<svg width="393" height="69" viewBox="0 0 393 69" fill="none" xmlns="http://www.w3.org/2000/svg">
<mask id="path-1-outside-1_25_508" maskUnits="userSpaceOnUse" x="-12" y="-12" width="417" height="93" fill="black">
<rect fill="white" x="-12" y="-12" width="417" height="93"/>
<path d="M0.0485174 54V3.81818H33.8624V12.5657H10.6582V24.5231H32.1227V33.2706H10.6582V45.2525H33.9604V54H0.0485174ZM52.5397 32.2415V54H42.1015V16.3636H52.0497V23.0039H52.4907C53.3238 20.815 54.7205 19.0834 56.6807 17.8093C58.6409 16.5188 61.0177 15.8736 63.811 15.8736C66.4247 15.8736 68.7034 16.4453 70.6473 17.5888C72.5912 18.7322 74.1022 20.3658 75.1804 22.4893C76.2585 24.5966 76.7975 27.1122 76.7975 30.0362V54H66.3593V31.8984C66.3757 29.5952 65.7876 27.7983 64.5951 26.5078C63.4027 25.201 61.761 24.5476 59.6701 24.5476C58.2652 24.5476 57.0237 24.8498 55.9456 25.4542C54.8838 26.0586 54.0507 26.9407 53.4463 28.1005C52.8583 29.244 52.5561 30.6243 52.5397 32.2415ZM102.029 54.7351C98.1742 54.7351 94.8582 53.9183 92.0812 52.2848C89.3205 50.6349 87.197 48.348 85.7104 45.424C84.2403 42.5 83.5052 39.1349 83.5052 35.3288C83.5052 31.4737 84.2484 28.0923 85.735 25.1847C87.2378 22.2607 89.3695 19.9819 92.1302 18.3484C94.8908 16.6985 98.1742 15.8736 101.98 15.8736C105.264 15.8736 108.139 16.4698 110.605 17.6623C113.072 18.8548 115.024 20.5291 116.462 22.6854C117.899 24.8416 118.691 27.3736 118.838 30.2812H108.988C108.71 28.4027 107.975 26.8917 106.783 25.7482C105.607 24.5884 104.063 24.0085 102.152 24.0085C100.535 24.0085 99.1217 24.4496 97.9129 25.3317C96.7204 26.1974 95.7893 27.4634 95.1195 29.1296C94.4498 30.7958 94.1149 32.8132 94.1149 35.1818C94.1149 37.5831 94.4416 39.625 95.095 41.3075C95.7648 42.9901 96.7041 44.2724 97.9129 45.1545C99.1217 46.0366 100.535 46.4776 102.152 46.4776C103.344 46.4776 104.414 46.2326 105.362 45.7425C106.326 45.2525 107.118 44.5419 107.739 43.6108C108.376 42.6634 108.792 41.5281 108.988 40.2049H118.838C118.675 43.0799 117.891 45.6119 116.486 47.8008C115.098 49.9734 113.178 51.6722 110.728 52.8974C108.278 54.1225 105.378 54.7351 102.029 54.7351ZM125.521 54V16.3636H135.641V22.9304H136.033C136.719 20.5945 137.871 18.8303 139.488 17.6378C141.105 16.429 142.967 15.8246 145.075 15.8246C145.597 15.8246 146.161 15.8572 146.765 15.9226C147.37 15.9879 147.901 16.0778 148.358 16.1921V25.4542C147.868 25.3072 147.19 25.1765 146.324 25.0621C145.459 24.9478 144.666 24.8906 143.948 24.8906C142.412 24.8906 141.04 25.2255 139.831 25.8952C138.639 26.5486 137.691 27.4634 136.989 28.6396C136.303 29.8157 135.96 31.1715 135.96 32.707V54H125.521ZM153.755 54V16.3636H164.193V54H153.755ZM158.998 11.5121C157.447 11.5121 156.115 10.9975 155.004 9.96839C153.91 8.92294 153.363 7.67329 153.363 6.21946C153.363 4.78196 153.91 3.54865 155.004 2.51953C156.115 1.47407 157.447 0.951347 158.998 0.951347C160.55 0.951347 161.873 1.47407 162.968 2.51953C164.079 3.54865 164.634 4.78196 164.634 6.21946C164.634 7.67329 164.079 8.92294 162.968 9.96839C161.873 10.9975 160.55 11.5121 158.998 11.5121ZM172.555 68.1136V16.3636H182.846V22.6854H183.311C183.769 21.6726 184.43 20.6435 185.296 19.598C186.178 18.5362 187.322 17.6541 188.727 16.9517C190.148 16.233 191.912 15.8736 194.019 15.8736C196.763 15.8736 199.295 16.5923 201.615 18.0298C203.935 19.451 205.789 21.5991 207.177 24.4741C208.566 27.3327 209.26 30.9183 209.26 35.2308C209.26 39.429 208.582 42.9737 207.226 45.8651C205.887 48.7401 204.057 50.9208 201.738 52.4073C199.434 53.8775 196.853 54.6126 193.995 54.6126C191.969 54.6126 190.246 54.2777 188.825 53.608C187.42 52.9382 186.268 52.0969 185.37 51.0842C184.471 50.055 183.785 49.0178 183.311 47.9723H182.993V68.1136H172.555ZM182.772 35.1818C182.772 37.4197 183.083 39.3718 183.703 41.038C184.324 42.7042 185.223 44.0028 186.399 44.9339C187.575 45.8487 189.004 46.3061 190.687 46.3061C192.386 46.3061 193.823 45.8406 194.999 44.9094C196.175 43.962 197.066 42.6552 197.67 40.989C198.291 39.3065 198.601 37.3707 198.601 35.1818C198.601 33.0092 198.299 31.098 197.695 29.4482C197.09 27.7983 196.2 26.5078 195.024 25.5767C193.848 24.6456 192.402 24.18 190.687 24.18C188.988 24.18 187.55 24.6293 186.374 25.5277C185.214 26.4261 184.324 27.7003 183.703 29.3501C183.083 31 182.772 32.9439 182.772 35.1818ZM236.238 16.3636V24.2045H213.572V16.3636H236.238ZM218.718 7.34659H229.156V42.4347C229.156 43.3984 229.303 44.1499 229.597 44.6889C229.891 45.2116 230.3 45.5792 230.822 45.7915C231.361 46.0039 231.982 46.1101 232.685 46.1101C233.175 46.1101 233.665 46.0692 234.155 45.9876C234.645 45.8896 235.021 45.8161 235.282 45.767L236.924 53.5344C236.401 53.6978 235.666 53.8857 234.718 54.098C233.771 54.3267 232.619 54.4656 231.263 54.5146C228.748 54.6126 226.543 54.2777 224.648 53.5099C222.769 52.7422 221.307 51.5497 220.262 49.9325C219.216 48.3153 218.702 46.2734 218.718 43.8068V7.34659ZM253.769 54.7106C251.368 54.7106 249.228 54.294 247.35 53.4609C245.471 52.6115 243.985 51.3619 242.89 49.712C241.812 48.0458 241.273 45.9712 241.273 43.4883C241.273 41.3974 241.657 39.6413 242.424 38.2202C243.192 36.799 244.238 35.6555 245.561 34.7898C246.884 33.924 248.387 33.2706 250.069 32.8295C251.768 32.3885 253.549 32.0781 255.411 31.8984C257.6 31.6697 259.364 31.4574 260.704 31.2614C262.043 31.049 263.015 30.7386 263.619 30.3303C264.224 29.9219 264.526 29.3175 264.526 28.517V28.37C264.526 26.8182 264.036 25.6175 263.056 24.7681C262.092 23.9187 260.72 23.494 258.939 23.494C257.061 23.494 255.566 23.9105 254.455 24.7436C253.345 25.5604 252.61 26.5895 252.25 27.831L242.596 27.0469C243.086 24.7599 244.05 22.7834 245.487 21.1172C246.925 19.4347 248.779 18.1442 251.049 17.2457C253.336 16.331 255.983 15.8736 258.988 15.8736C261.079 15.8736 263.08 16.1186 264.992 16.6087C266.919 17.0987 268.626 17.8583 270.113 18.8874C271.616 19.9165 272.8 21.2397 273.666 22.8569C274.531 24.4577 274.964 26.3771 274.964 28.6151V54H265.065V48.7809H264.771C264.167 49.957 263.358 50.9943 262.345 51.8928C261.333 52.7749 260.116 53.4691 258.694 53.9755C257.273 54.4656 255.632 54.7106 253.769 54.7106ZM256.759 47.5067C258.294 47.5067 259.65 47.2045 260.826 46.6001C262.002 45.9794 262.925 45.1463 263.595 44.1009C264.265 43.0554 264.6 41.8711 264.6 40.5479V36.554C264.273 36.7663 263.824 36.9624 263.252 37.142C262.697 37.3054 262.068 37.4606 261.365 37.6076C260.663 37.7383 259.96 37.8608 259.258 37.9751C258.556 38.0732 257.918 38.163 257.347 38.2447C256.122 38.4244 255.052 38.7102 254.137 39.1023C253.222 39.4943 252.511 40.0252 252.005 40.695C251.499 41.3484 251.246 42.1651 251.246 43.1452C251.246 44.5664 251.76 45.6527 252.789 46.4041C253.835 47.1392 255.158 47.5067 256.759 47.5067ZM296.931 54.6126C294.072 54.6126 291.483 53.8775 289.164 52.4073C286.86 50.9208 285.031 48.7401 283.675 45.8651C282.336 42.9737 281.666 39.429 281.666 35.2308C281.666 30.9183 282.36 27.3327 283.749 24.4741C285.137 21.5991 286.983 19.451 289.286 18.0298C291.606 16.5923 294.146 15.8736 296.907 15.8736C299.014 15.8736 300.77 16.233 302.175 16.9517C303.596 17.6541 304.739 18.5362 305.605 19.598C306.487 20.6435 307.157 21.6726 307.614 22.6854H307.933V3.81818H318.347V54H308.055V47.9723H307.614C307.124 49.0178 306.43 50.055 305.532 51.0842C304.649 52.0969 303.498 52.9382 302.077 53.608C300.672 54.2777 298.957 54.6126 296.931 54.6126ZM300.239 46.3061C301.921 46.3061 303.343 45.8487 304.502 44.9339C305.679 44.0028 306.577 42.7042 307.198 41.038C307.835 39.3718 308.153 37.4197 308.153 35.1818C308.153 32.9439 307.843 31 307.222 29.3501C306.602 27.7003 305.703 26.4261 304.527 25.5277C303.351 24.6293 301.921 24.18 300.239 24.18C298.524 24.18 297.078 24.6456 295.902 25.5767C294.726 26.5078 293.836 27.7983 293.231 29.4482C292.627 31.098 292.325 33.0092 292.325 35.1818C292.325 37.3707 292.627 39.3065 293.231 40.989C293.852 42.6552 294.742 43.962 295.902 44.9094C297.078 45.8406 298.524 46.3061 300.239 46.3061ZM343.934 54.7351C340.128 54.7351 336.836 53.9265 334.059 52.3093C331.298 50.6758 329.167 48.4052 327.664 45.4975C326.161 42.5735 325.409 39.1839 325.409 35.3288C325.409 31.4411 326.161 28.0433 327.664 25.1357C329.167 22.2116 331.298 19.941 334.059 18.3239C336.836 16.6903 340.128 15.8736 343.934 15.8736C347.74 15.8736 351.023 16.6903 353.784 18.3239C356.561 19.941 358.701 22.2116 360.204 25.1357C361.706 28.0433 362.458 31.4411 362.458 35.3288C362.458 39.1839 361.706 42.5735 360.204 45.4975C358.701 48.4052 356.561 50.6758 353.784 52.3093C351.023 53.9265 347.74 54.7351 343.934 54.7351ZM343.983 46.6491C345.714 46.6491 347.16 46.1591 348.32 45.179C349.479 44.1825 350.353 42.8267 350.941 41.1115C351.546 39.3963 351.848 37.4442 351.848 35.2553C351.848 33.0664 351.546 31.1143 350.941 29.3991C350.353 27.6839 349.479 26.3281 348.32 25.3317C347.16 24.3352 345.714 23.837 343.983 23.837C342.235 23.837 340.765 24.3352 339.572 25.3317C338.396 26.3281 337.506 27.6839 336.901 29.3991C336.313 31.1143 336.019 33.0664 336.019 35.2553C336.019 37.4442 336.313 39.3963 336.901 41.1115C337.506 42.8267 338.396 44.1825 339.572 45.179C340.765 46.1591 342.235 46.6491 343.983 46.6491ZM369.245 54V16.3636H379.365V22.9304H379.757C380.443 20.5945 381.595 18.8303 383.212 17.6378C384.829 16.429 386.691 15.8246 388.798 15.8246C389.321 15.8246 389.885 15.8572 390.489 15.9226C391.093 15.9879 391.624 16.0778 392.082 16.1921V25.4542C391.592 25.3072 390.914 25.1765 390.048 25.0621C389.182 24.9478 388.39 24.8906 387.671 24.8906C386.136 24.8906 384.764 25.2255 383.555 25.8952C382.362 26.5486 381.415 27.4634 380.712 28.6396C380.026 29.8157 379.683 31.1715 379.683 32.707V54H369.245Z"/>
</mask>
<path d="M0.0485174 54V3.81818H33.8624V12.5657H10.6582V24.5231H32.1227V33.2706H10.6582V45.2525H33.9604V54H0.0485174ZM52.5397 32.2415V54H42.1015V16.3636H52.0497V23.0039H52.4907C53.3238 20.815 54.7205 19.0834 56.6807 17.8093C58.6409 16.5188 61.0177 15.8736 63.811 15.8736C66.4247 15.8736 68.7034 16.4453 70.6473 17.5888C72.5912 18.7322 74.1022 20.3658 75.1804 22.4893C76.2585 24.5966 76.7975 27.1122 76.7975 30.0362V54H66.3593V31.8984C66.3757 29.5952 65.7876 27.7983 64.5951 26.5078C63.4027 25.201 61.761 24.5476 59.6701 24.5476C58.2652 24.5476 57.0237 24.8498 55.9456 25.4542C54.8838 26.0586 54.0507 26.9407 53.4463 28.1005C52.8583 29.244 52.5561 30.6243 52.5397 32.2415ZM102.029 54.7351C98.1742 54.7351 94.8582 53.9183 92.0812 52.2848C89.3205 50.6349 87.197 48.348 85.7104 45.424C84.2403 42.5 83.5052 39.1349 83.5052 35.3288C83.5052 31.4737 84.2484 28.0923 85.735 25.1847C87.2378 22.2607 89.3695 19.9819 92.1302 18.3484C94.8908 16.6985 98.1742 15.8736 101.98 15.8736C105.264 15.8736 108.139 16.4698 110.605 17.6623C113.072 18.8548 115.024 20.5291 116.462 22.6854C117.899 24.8416 118.691 27.3736 118.838 30.2812H108.988C108.71 28.4027 107.975 26.8917 106.783 25.7482C105.607 24.5884 104.063 24.0085 102.152 24.0085C100.535 24.0085 99.1217 24.4496 97.9129 25.3317C96.7204 26.1974 95.7893 27.4634 95.1195 29.1296C94.4498 30.7958 94.1149 32.8132 94.1149 35.1818C94.1149 37.5831 94.4416 39.625 95.095 41.3075C95.7648 42.9901 96.7041 44.2724 97.9129 45.1545C99.1217 46.0366 100.535 46.4776 102.152 46.4776C103.344 46.4776 104.414 46.2326 105.362 45.7425C106.326 45.2525 107.118 44.5419 107.739 43.6108C108.376 42.6634 108.792 41.5281 108.988 40.2049H118.838C118.675 43.0799 117.891 45.6119 116.486 47.8008C115.098 49.9734 113.178 51.6722 110.728 52.8974C108.278 54.1225 105.378 54.7351 102.029 54.7351ZM125.521 54V16.3636H135.641V22.9304H136.033C136.719 20.5945 137.871 18.8303 139.488 17.6378C141.105 16.429 142.967 15.8246 145.075 15.8246C145.597 15.8246 146.161 15.8572 146.765 15.9226C147.37 15.9879 147.901 16.0778 148.358 16.1921V25.4542C147.868 25.3072 147.19 25.1765 146.324 25.0621C145.459 24.9478 144.666 24.8906 143.948 24.8906C142.412 24.8906 141.04 25.2255 139.831 25.8952C138.639 26.5486 137.691 27.4634 136.989 28.6396C136.303 29.8157 135.96 31.1715 135.96 32.707V54H125.521ZM153.755 54V16.3636H164.193V54H153.755ZM158.998 11.5121C157.447 11.5121 156.115 10.9975 155.004 9.96839C153.91 8.92294 153.363 7.67329 153.363 6.21946C153.363 4.78196 153.91 3.54865 155.004 2.51953C156.115 1.47407 157.447 0.951347 158.998 0.951347C160.55 0.951347 161.873 1.47407 162.968 2.51953C164.079 3.54865 164.634 4.78196 164.634 6.21946C164.634 7.67329 164.079 8.92294 162.968 9.96839C161.873 10.9975 160.55 11.5121 158.998 11.5121ZM172.555 68.1136V16.3636H182.846V22.6854H183.311C183.769 21.6726 184.43 20.6435 185.296 19.598C186.178 18.5362 187.322 17.6541 188.727 16.9517C190.148 16.233 191.912 15.8736 194.019 15.8736C196.763 15.8736 199.295 16.5923 201.615 18.0298C203.935 19.451 205.789 21.5991 207.177 24.4741C208.566 27.3327 209.26 30.9183 209.26 35.2308C209.26 39.429 208.582 42.9737 207.226 45.8651C205.887 48.7401 204.057 50.9208 201.738 52.4073C199.434 53.8775 196.853 54.6126 193.995 54.6126C191.969 54.6126 190.246 54.2777 188.825 53.608C187.42 52.9382 186.268 52.0969 185.37 51.0842C184.471 50.055 183.785 49.0178 183.311 47.9723H182.993V68.1136H172.555ZM182.772 35.1818C182.772 37.4197 183.083 39.3718 183.703 41.038C184.324 42.7042 185.223 44.0028 186.399 44.9339C187.575 45.8487 189.004 46.3061 190.687 46.3061C192.386 46.3061 193.823 45.8406 194.999 44.9094C196.175 43.962 197.066 42.6552 197.67 40.989C198.291 39.3065 198.601 37.3707 198.601 35.1818C198.601 33.0092 198.299 31.098 197.695 29.4482C197.09 27.7983 196.2 26.5078 195.024 25.5767C193.848 24.6456 192.402 24.18 190.687 24.18C188.988 24.18 187.55 24.6293 186.374 25.5277C185.214 26.4261 184.324 27.7003 183.703 29.3501C183.083 31 182.772 32.9439 182.772 35.1818ZM236.238 16.3636V24.2045H213.572V16.3636H236.238ZM218.718 7.34659H229.156V42.4347C229.156 43.3984 229.303 44.1499 229.597 44.6889C229.891 45.2116 230.3 45.5792 230.822 45.7915C231.361 46.0039 231.982 46.1101 232.685 46.1101C233.175 46.1101 233.665 46.0692 234.155 45.9876C234.645 45.8896 235.021 45.8161 235.282 45.767L236.924 53.5344C236.401 53.6978 235.666 53.8857 234.718 54.098C233.771 54.3267 232.619 54.4656 231.263 54.5146C228.748 54.6126 226.543 54.2777 224.648 53.5099C222.769 52.7422 221.307 51.5497 220.262 49.9325C219.216 48.3153 218.702 46.2734 218.718 43.8068V7.34659ZM253.769 54.7106C251.368 54.7106 249.228 54.294 247.35 53.4609C245.471 52.6115 243.985 51.3619 242.89 49.712C241.812 48.0458 241.273 45.9712 241.273 43.4883C241.273 41.3974 241.657 39.6413 242.424 38.2202C243.192 36.799 244.238 35.6555 245.561 34.7898C246.884 33.924 248.387 33.2706 250.069 32.8295C251.768 32.3885 253.549 32.0781 255.411 31.8984C257.6 31.6697 259.364 31.4574 260.704 31.2614C262.043 31.049 263.015 30.7386 263.619 30.3303C264.224 29.9219 264.526 29.3175 264.526 28.517V28.37C264.526 26.8182 264.036 25.6175 263.056 24.7681C262.092 23.9187 260.72 23.494 258.939 23.494C257.061 23.494 255.566 23.9105 254.455 24.7436C253.345 25.5604 252.61 26.5895 252.25 27.831L242.596 27.0469C243.086 24.7599 244.05 22.7834 245.487 21.1172C246.925 19.4347 248.779 18.1442 251.049 17.2457C253.336 16.331 255.983 15.8736 258.988 15.8736C261.079 15.8736 263.08 16.1186 264.992 16.6087C266.919 17.0987 268.626 17.8583 270.113 18.8874C271.616 19.9165 272.8 21.2397 273.666 22.8569C274.531 24.4577 274.964 26.3771 274.964 28.6151V54H265.065V48.7809H264.771C264.167 49.957 263.358 50.9943 262.345 51.8928C261.333 52.7749 260.116 53.4691 258.694 53.9755C257.273 54.4656 255.632 54.7106 253.769 54.7106ZM256.759 47.5067C258.294 47.5067 259.65 47.2045 260.826 46.6001C262.002 45.9794 262.925 45.1463 263.595 44.1009C264.265 43.0554 264.6 41.8711 264.6 40.5479V36.554C264.273 36.7663 263.824 36.9624 263.252 37.142C262.697 37.3054 262.068 37.4606 261.365 37.6076C260.663 37.7383 259.96 37.8608 259.258 37.9751C258.556 38.0732 257.918 38.163 257.347 38.2447C256.122 38.4244 255.052 38.7102 254.137 39.1023C253.222 39.4943 252.511 40.0252 252.005 40.695C251.499 41.3484 251.246 42.1651 251.246 43.1452C251.246 44.5664 251.76 45.6527 252.789 46.4041C253.835 47.1392 255.158 47.5067 256.759 47.5067ZM296.931 54.6126C294.072 54.6126 291.483 53.8775 289.164 52.4073C286.86 50.9208 285.031 48.7401 283.675 45.8651C282.336 42.9737 281.666 39.429 281.666 35.2308C281.666 30.9183 282.36 27.3327 283.749 24.4741C285.137 21.5991 286.983 19.451 289.286 18.0298C291.606 16.5923 294.146 15.8736 296.907 15.8736C299.014 15.8736 300.77 16.233 302.175 16.9517C303.596 17.6541 304.739 18.5362 305.605 19.598C306.487 20.6435 307.157 21.6726 307.614 22.6854H307.933V3.81818H318.347V54H308.055V47.9723H307.614C307.124 49.0178 306.43 50.055 305.532 51.0842C304.649 52.0969 303.498 52.9382 302.077 53.608C300.672 54.2777 298.957 54.6126 296.931 54.6126ZM300.239 46.3061C301.921 46.3061 303.343 45.8487 304.502 44.9339C305.679 44.0028 306.577 42.7042 307.198 41.038C307.835 39.3718 308.153 37.4197 308.153 35.1818C308.153 32.9439 307.843 31 307.222 29.3501C306.602 27.7003 305.703 26.4261 304.527 25.5277C303.351 24.6293 301.921 24.18 300.239 24.18C298.524 24.18 297.078 24.6456 295.902 25.5767C294.726 26.5078 293.836 27.7983 293.231 29.4482C292.627 31.098 292.325 33.0092 292.325 35.1818C292.325 37.3707 292.627 39.3065 293.231 40.989C293.852 42.6552 294.742 43.962 295.902 44.9094C297.078 45.8406 298.524 46.3061 300.239 46.3061ZM343.934 54.7351C340.128 54.7351 336.836 53.9265 334.059 52.3093C331.298 50.6758 329.167 48.4052 327.664 45.4975C326.161 42.5735 325.409 39.1839 325.409 35.3288C325.409 31.4411 326.161 28.0433 327.664 25.1357C329.167 22.2116 331.298 19.941 334.059 18.3239C336.836 16.6903 340.128 15.8736 343.934 15.8736C347.74 15.8736 351.023 16.6903 353.784 18.3239C356.561 19.941 358.701 22.2116 360.204 25.1357C361.706 28.0433 362.458 31.4411 362.458 35.3288C362.458 39.1839 361.706 42.5735 360.204 45.4975C358.701 48.4052 356.561 50.6758 353.784 52.3093C351.023 53.9265 347.74 54.7351 343.934 54.7351ZM343.983 46.6491C345.714 46.6491 347.16 46.1591 348.32 45.179C349.479 44.1825 350.353 42.8267 350.941 41.1115C351.546 39.3963 351.848 37.4442 351.848 35.2553C351.848 33.0664 351.546 31.1143 350.941 29.3991C350.353 27.6839 349.479 26.3281 348.32 25.3317C347.16 24.3352 345.714 23.837 343.983 23.837C342.235 23.837 340.765 24.3352 339.572 25.3317C338.396 26.3281 337.506 27.6839 336.901 29.3991C336.313 31.1143 336.019 33.0664 336.019 35.2553C336.019 37.4442 336.313 39.3963 336.901 41.1115C337.506 42.8267 338.396 44.1825 339.572 45.179C340.765 46.1591 342.235 46.6491 343.983 46.6491ZM369.245 54V16.3636H379.365V22.9304H379.757C380.443 20.5945 381.595 18.8303 383.212 17.6378C384.829 16.429 386.691 15.8246 388.798 15.8246C389.321 15.8246 389.885 15.8572 390.489 15.9226C391.093 15.9879 391.624 16.0778 392.082 16.1921V25.4542C391.592 25.3072 390.914 25.1765 390.048 25.0621C389.182 24.9478 388.39 24.8906 387.671 24.8906C386.136 24.8906 384.764 25.2255 383.555 25.8952C382.362 26.5486 381.415 27.4634 380.712 28.6396C380.026 29.8157 379.683 31.1715 379.683 32.707V54H369.245Z" fill="white"/>
<path d="M0.0485174 54H-11.9515V66H0.0485174V54ZM0.0485174 3.81818V-8.18182H-11.9515V3.81818H0.0485174ZM33.8624 3.81818H45.8624V-8.18182H33.8624V3.81818ZM33.8624 12.5657V24.5657H45.8624V12.5657H33.8624ZM10.6582 12.5657V0.565694H-1.34175V12.5657H10.6582ZM10.6582 24.5231H-1.34175V36.5231H10.6582V24.5231ZM32.1227 24.5231H44.1227V12.5231H32.1227V24.5231ZM32.1227 33.2706V45.2706H44.1227V33.2706H32.1227ZM10.6582 33.2706V21.2706H-1.34175V33.2706H10.6582ZM10.6582 45.2525H-1.34175V57.2525H10.6582V45.2525ZM33.9604 45.2525H45.9604V33.2525H33.9604V45.2525ZM33.9604 54V66H45.9604V54H33.9604ZM12.0485 54V3.81818H-11.9515V54H12.0485ZM0.0485174 15.8182H33.8624V-8.18182H0.0485174V15.8182ZM21.8624 3.81818V12.5657H45.8624V3.81818H21.8624ZM33.8624 0.565694H10.6582V24.5657H33.8624V0.565694ZM-1.34175 12.5657V24.5231H22.6582V12.5657H-1.34175ZM10.6582 36.5231H32.1227V12.5231H10.6582V36.5231ZM20.1227 24.5231V33.2706H44.1227V24.5231H20.1227ZM32.1227 21.2706H10.6582V45.2706H32.1227V21.2706ZM-1.34175 33.2706V45.2525H22.6582V33.2706H-1.34175ZM10.6582 57.2525H33.9604V33.2525H10.6582V57.2525ZM21.9604 45.2525V54H45.9604V45.2525H21.9604ZM33.9604 42H0.0485174V66H33.9604V42ZM52.5397 32.2415L40.5403 32.1203L40.5397 32.1809V32.2415H52.5397ZM52.5397 54V66H64.5397V54H52.5397ZM42.1015 54H30.1015V66H42.1015V54ZM42.1015 16.3636V4.36364H30.1015V16.3636H42.1015ZM52.0497 16.3636H64.0497V4.36364H52.0497V16.3636ZM52.0497 23.0039H40.0497V35.0039H52.0497V23.0039ZM52.4907 23.0039V35.0039H60.7633L63.7059 27.2724L52.4907 23.0039ZM56.6807 17.8093L63.2206 27.8706L63.2499 27.8515L63.2792 27.8323L56.6807 17.8093ZM75.1804 22.4893L64.4804 27.9217L64.4888 27.9384L64.4974 27.9551L75.1804 22.4893ZM76.7975 54V66H88.7975V54H76.7975ZM66.3593 54H54.3593V66H66.3593V54ZM66.3593 31.8984L54.3596 31.8133L54.3593 31.8559V31.8984H66.3593ZM64.5951 26.5078L55.7309 34.5964L55.7562 34.6242L55.7818 34.6518L64.5951 26.5078ZM55.9456 25.4542L50.0776 14.9868L50.0433 15.006L50.0092 15.0254L55.9456 25.4542ZM53.4463 28.1005L42.8046 22.5548L42.7897 22.5835L42.7749 22.6123L53.4463 28.1005ZM40.5397 32.2415V54H64.5397V32.2415H40.5397ZM52.5397 42H42.1015V66H52.5397V42ZM54.1015 54V16.3636H30.1015V54H54.1015ZM42.1015 28.3636H52.0497V4.36364H42.1015V28.3636ZM40.0497 16.3636V23.0039H64.0497V16.3636H40.0497ZM52.0497 35.0039H52.4907V11.0039H52.0497V35.0039ZM63.7059 27.2724C63.6971 27.2956 63.6389 27.4293 63.5033 27.5975C63.3675 27.7658 63.247 27.8535 63.2206 27.8706L50.1408 7.74798C46.0434 10.4113 43.0119 14.1733 41.2755 18.7354L63.7059 27.2724ZM63.2792 27.8323C63.2199 27.8713 63.1643 27.9007 63.1199 27.9205C63.0761 27.94 63.0586 27.9434 63.0774 27.9383C63.1145 27.9283 63.3367 27.8736 63.811 27.8736V3.87358C59.1257 3.87358 54.3487 4.9776 50.0822 7.78631L63.2792 27.8323ZM63.811 27.8736C64.2422 27.8736 64.4758 27.9205 64.5601 27.9416C64.635 27.9604 64.6191 27.9649 64.5631 27.932L76.7316 7.24556C72.6677 4.85504 68.2197 3.87358 63.811 3.87358V27.8736ZM64.5631 27.932C64.5566 27.9282 64.5355 27.915 64.5062 27.8914C64.4768 27.8678 64.4502 27.8426 64.4293 27.82C64.4086 27.7977 64.4027 27.7877 64.4096 27.7978C64.4169 27.8085 64.4423 27.8467 64.4804 27.9217L85.8804 17.057C83.8253 13.0093 80.7646 9.61791 76.7316 7.24556L64.5631 27.932ZM64.4974 27.9551C64.5298 28.0184 64.7975 28.5734 64.7975 30.0362H88.7975C88.7975 25.651 87.9872 21.1748 85.8633 17.0236L64.4974 27.9551ZM64.7975 30.0362V54H88.7975V30.0362H64.7975ZM76.7975 42H66.3593V66H76.7975V42ZM78.3593 54V31.8984H54.3593V54H78.3593ZM78.359 31.9835C78.3901 27.6074 77.2482 22.5191 73.4085 18.3638L55.7818 34.6518C55.1199 33.9356 54.7269 33.1704 54.5258 32.5558C54.3397 31.9871 54.3605 31.6851 54.3596 31.8133L78.359 31.9835ZM73.4593 18.4192C69.5779 14.1656 64.4644 12.5476 59.6701 12.5476V36.5476C59.469 36.5476 58.8565 36.5152 58.032 36.187C57.1624 35.8409 56.3579 35.2835 55.7309 34.5964L73.4593 18.4192ZM59.6701 12.5476C56.4952 12.5476 53.1814 13.2468 50.0776 14.9868L61.8137 35.9216C60.8661 36.4528 60.0353 36.5476 59.6701 36.5476V12.5476ZM50.0092 15.0254C46.7994 16.8526 44.3968 19.4996 42.8046 22.5548L64.088 33.6462C63.9181 33.9723 63.6492 34.3844 63.2486 34.8086C62.8437 35.2373 62.3763 35.6016 61.882 35.883L50.0092 15.0254ZM42.7749 22.6123C41.1409 25.7895 40.5708 29.1047 40.5403 32.1203L64.5391 32.3627C64.5413 32.1439 64.5756 32.6984 64.1178 33.5887L42.7749 22.6123ZM92.0812 52.2848L85.9252 62.5855L85.961 62.6069L85.9969 62.628L92.0812 52.2848ZM85.7104 45.424L74.9893 50.8145L75.0013 50.8384L75.0134 50.8622L85.7104 45.424ZM85.735 25.1847L75.0621 19.6992L75.0562 19.7107L75.0503 19.7223L85.735 25.1847ZM92.1302 18.3484L98.2411 28.6758L98.2637 28.6625L98.2862 28.649L92.1302 18.3484ZM110.605 17.6623L115.828 6.85857L115.828 6.85856L110.605 17.6623ZM118.838 30.2812V42.2812H131.46L130.823 29.6753L118.838 30.2812ZM108.988 30.2812L97.1172 32.0361L98.6317 42.2812H108.988V30.2812ZM106.783 25.7482L98.3572 34.2926L98.4169 34.3515L98.4775 34.4096L106.783 25.7482ZM97.9129 25.3317L104.963 35.0423L104.975 35.0337L104.986 35.0252L97.9129 25.3317ZM95.095 41.3075L83.9089 45.6516L83.9272 45.6987L83.9459 45.7455L95.095 41.3075ZM97.9129 45.1545L104.986 35.461L104.986 35.461L97.9129 45.1545ZM105.362 45.7425L99.9228 35.0459L99.8856 35.0648L99.8487 35.0839L105.362 45.7425ZM107.739 43.6108L97.7804 36.9148L97.7671 36.9346L97.7539 36.9544L107.739 43.6108ZM108.988 40.2049V28.2049H98.635L97.1177 38.4463L108.988 40.2049ZM118.838 40.2049L130.819 40.8856L131.539 28.2049H118.838V40.2049ZM116.486 47.8008L106.387 41.3193L106.381 41.329L106.375 41.3386L116.486 47.8008ZM110.728 52.8974L105.361 42.1642L105.361 42.1642L110.728 52.8974ZM102.029 42.7351C99.8917 42.7351 98.7657 42.2947 98.1654 41.9416L85.9969 62.628C90.9507 65.542 96.4568 66.7351 102.029 66.7351V42.7351ZM98.2372 41.9841C97.4587 41.5189 96.8905 40.9359 96.4075 39.9858L75.0134 50.8622C77.5035 55.7601 81.1823 59.751 85.9252 62.5855L98.2372 41.9841ZM96.4316 40.0335C95.9294 39.0346 95.5052 37.5679 95.5052 35.3288H71.5052C71.5052 40.702 72.5512 45.9654 74.9893 50.8145L96.4316 40.0335ZM95.5052 35.3288C95.5052 33.0314 95.9408 31.5837 96.4196 30.647L75.0503 19.7223C72.5561 24.601 71.5052 29.9161 71.5052 35.3288H95.5052ZM96.4078 30.6701C96.9039 29.7049 97.4776 29.1276 98.2411 28.6758L86.0193 8.0209C81.2615 10.8361 77.5717 14.8164 75.0621 19.6992L96.4078 30.6701ZM98.2862 28.649C98.8695 28.3004 99.941 27.8736 101.98 27.8736V3.87358C96.4074 3.87358 90.9122 5.0966 85.9742 8.04771L98.2862 28.649ZM101.98 27.8736C103.809 27.8736 104.836 28.2019 105.382 28.466L115.828 6.85856C111.441 4.73777 106.718 3.87358 101.98 3.87358V27.8736ZM105.382 28.466C106.035 28.7814 106.297 29.0714 106.477 29.3418L126.446 16.029C123.751 11.9868 120.109 8.92809 115.828 6.85857L105.382 28.466ZM106.477 29.3418C106.572 29.4837 106.802 29.8667 106.854 30.8872L130.823 29.6753C130.581 24.8804 129.226 20.1995 126.446 16.029L106.477 29.3418ZM118.838 18.2812H108.988V42.2812H118.838V18.2812ZM120.859 28.5264C120.253 24.4257 118.483 20.3419 115.088 17.0868L98.4775 34.4096C98.0325 33.9829 97.6798 33.4862 97.4377 32.9887C97.2041 32.5084 97.1347 32.1546 97.1172 32.0361L120.859 28.5264ZM115.209 17.2038C111.433 13.4805 106.682 12.0085 102.152 12.0085V36.0085C101.892 36.0085 101.297 35.9675 100.523 35.677C99.7172 35.3742 98.9649 34.8919 98.3572 34.2926L115.209 17.2038ZM102.152 12.0085C98.2089 12.0085 94.2706 13.1342 90.8392 15.6382L104.986 35.0252C104.541 35.3502 104.017 35.6188 103.455 35.7942C102.902 35.9668 102.444 36.0085 102.152 36.0085V12.0085ZM90.8627 15.6211C87.4804 18.0768 85.3122 21.3531 83.9854 24.6541L106.254 33.6051C106.266 33.5737 105.96 34.3181 104.963 35.0423L90.8627 15.6211ZM83.9854 24.6541C82.5931 28.1177 82.1149 31.7431 82.1149 35.1818H106.115C106.115 33.8833 106.306 33.4739 106.254 33.6051L83.9854 24.6541ZM82.1149 35.1818C82.1149 38.6062 82.5722 42.2096 83.9089 45.6516L106.281 36.9634C106.311 37.0404 106.115 36.56 106.115 35.1818H82.1149ZM83.9459 45.7455C85.275 49.0846 87.4527 52.3767 90.8392 54.848L104.986 35.461C105.955 36.168 106.255 36.8955 106.244 36.8695L83.9459 45.7455ZM90.8392 54.848C94.2706 57.3519 98.2089 58.4776 102.152 58.4776V34.4776C102.444 34.4776 102.902 34.5194 103.455 34.6919C104.017 34.8673 104.541 35.1359 104.986 35.461L90.8392 54.848ZM102.152 58.4776C105.034 58.4776 108.031 57.8722 110.875 56.4012L99.8487 35.0839C100.798 34.593 101.655 34.4776 102.152 34.4776V58.4776ZM110.801 56.4392C113.667 54.9816 116.001 52.8505 117.723 50.2672L97.7539 36.9544C98.2346 36.2333 98.9837 35.5234 99.9228 35.0459L110.801 56.4392ZM117.697 50.3068C119.488 47.6428 120.445 44.7529 120.859 41.9635L97.1177 38.4463C97.1389 38.3032 97.2633 37.6839 97.7804 36.9148L117.697 50.3068ZM108.988 52.2049H118.838V28.2049H108.988V52.2049ZM106.858 39.5242C106.799 40.5621 106.559 41.0509 106.387 41.3193L126.585 54.2822C129.222 50.1728 130.551 45.5977 130.819 40.8856L106.858 39.5242ZM106.375 41.3386C106.227 41.5701 105.999 41.8452 105.361 42.1642L116.094 63.6305C120.357 61.4992 123.968 58.3766 126.597 54.263L106.375 41.3386ZM105.361 42.1642C104.907 42.3913 103.923 42.7351 102.029 42.7351V66.7351C106.833 66.7351 111.648 65.8537 116.094 63.6305L105.361 42.1642ZM125.521 54H113.521V66H125.521V54ZM125.521 16.3636V4.36364H113.521V16.3636H125.521ZM135.641 16.3636H147.641V4.36364H135.641V16.3636ZM135.641 22.9304H123.641V34.9304H135.641V22.9304ZM136.033 22.9304V34.9304H145.016L147.547 26.312L136.033 22.9304ZM139.488 17.6378L146.61 27.296L146.641 27.2728L146.673 27.2494L139.488 17.6378ZM146.765 15.9226L148.055 3.9921L148.055 3.9921L146.765 15.9226ZM148.358 16.1921H160.358V6.82276L151.268 4.55039L148.358 16.1921ZM148.358 25.4542L144.91 36.9481L160.358 41.5826V25.4542H148.358ZM139.831 25.8952L145.598 36.419L145.622 36.4054L145.647 36.3918L139.831 25.8952ZM136.989 28.6396L126.686 22.4867L126.655 22.5397L126.623 22.5931L136.989 28.6396ZM135.96 54V66H147.96V54H135.96ZM137.521 54V16.3636H113.521V54H137.521ZM125.521 28.3636H135.641V4.36364H125.521V28.3636ZM123.641 16.3636V22.9304H147.641V16.3636H123.641ZM135.641 34.9304H136.033V10.9304H135.641V34.9304ZM147.547 26.312C147.61 26.0982 147.616 26.176 147.46 26.4148C147.291 26.6731 147.009 27.0015 146.61 27.296L132.366 7.97956C128.222 11.0356 125.784 15.2438 124.519 19.5488L147.547 26.312ZM146.673 27.2494C146.461 27.4075 146.161 27.5753 145.802 27.6918C145.449 27.8064 145.183 27.8246 145.075 27.8246V3.82457C140.499 3.82457 136.09 5.19585 132.304 8.02615L146.673 27.2494ZM145.075 27.8246C145.104 27.8246 145.232 27.8268 145.476 27.8531L148.055 3.9921C147.09 3.88771 146.091 3.82457 145.075 3.82457V27.8246ZM145.476 27.8531C145.521 27.858 145.556 27.8624 145.58 27.8656C145.604 27.8689 145.615 27.8708 145.615 27.8707C145.614 27.8707 145.6 27.8683 145.573 27.8627C145.546 27.8572 145.504 27.8479 145.448 27.8338L151.268 4.55039C150.151 4.27115 149.058 4.10056 148.055 3.9921L145.476 27.8531ZM136.358 16.1921V25.4542H160.358V16.1921H136.358ZM151.806 13.9603C150.422 13.5451 149.02 13.3139 147.896 13.1655L144.753 36.9588C144.878 36.9753 144.979 36.9901 145.057 37.0026C145.136 37.0152 145.186 37.0243 145.211 37.029C145.236 37.0338 145.223 37.032 145.18 37.0215C145.137 37.0115 145.044 36.9883 144.91 36.9481L151.806 13.9603ZM147.896 13.1655C146.615 12.9964 145.289 12.8906 143.948 12.8906V36.8906C144.044 36.8906 144.302 36.8992 144.753 36.9588L147.896 13.1655ZM143.948 12.8906C140.608 12.8906 137.195 13.6367 134.015 15.3987L145.647 36.3918C145.297 36.5859 144.94 36.7195 144.612 36.7996C144.29 36.8783 144.056 36.8906 143.948 36.8906V12.8906ZM134.065 15.3715C130.983 17.06 128.476 19.4901 126.686 22.4867L147.291 34.7925C147.121 35.0776 146.88 35.3963 146.561 35.7042C146.242 36.0124 145.907 36.2492 145.598 36.419L134.065 15.3715ZM126.623 22.5931C124.735 25.8298 123.96 29.3239 123.96 32.707H147.96C147.96 32.8359 147.945 33.1089 147.85 33.4819C147.754 33.8628 147.592 34.278 147.354 34.686L126.623 22.5931ZM123.96 32.707V54H147.96V32.707H123.96ZM135.96 42H125.521V66H135.96V42ZM153.755 54H141.755V66H153.755V54ZM153.755 16.3636V4.36364H141.755V16.3636H153.755ZM164.193 16.3636H176.193V4.36364H164.193V16.3636ZM164.193 54V66H176.193V54H164.193ZM155.004 9.96839L146.716 18.6457L146.782 18.7089L146.849 18.7711L155.004 9.96839ZM155.004 2.51953L163.225 11.2618L163.229 11.2579L155.004 2.51953ZM162.968 2.51953L154.679 11.1968L154.745 11.2601L154.812 11.3223L162.968 2.51953ZM162.968 9.96839L171.188 18.7106L171.192 18.7068L162.968 9.96839ZM165.755 54V16.3636H141.755V54H165.755ZM153.755 28.3636H164.193V4.36364H153.755V28.3636ZM152.193 16.3636V54H176.193V16.3636H152.193ZM164.193 42H153.755V66H164.193V42ZM158.998 -0.487927C159.572 -0.487927 160.332 -0.387783 161.162 -0.0668986C161.997 0.255927 162.67 0.711974 163.16 1.16566L146.849 18.7711C150.239 21.9114 154.505 23.5121 158.998 23.5121V-0.487927ZM163.293 1.29106C163.768 1.74452 164.336 2.45286 164.765 3.43347C165.199 4.42452 165.363 5.40005 165.363 6.21946H141.363C141.363 11.0995 143.36 15.4406 146.716 18.6457L163.293 1.29106ZM165.363 6.21946C165.363 7.06578 165.192 8.06876 164.742 9.08328C164.297 10.086 163.71 10.8051 163.225 11.2618L146.784 -6.2227C143.4 -3.04073 141.363 1.30695 141.363 6.21946H165.363ZM163.229 11.2579C162.746 11.7123 162.071 12.1796 161.222 12.5132C160.376 12.8454 159.595 12.9513 158.998 12.9513V-11.0487C154.449 -11.0487 150.159 -9.39939 146.78 -6.21886L163.229 11.2579ZM158.998 12.9513C158.403 12.9513 157.61 12.8457 156.746 12.504C155.875 12.1602 155.18 11.6754 154.679 11.1968L171.257 -6.15779C167.868 -9.39514 163.551 -11.0487 158.998 -11.0487V12.9513ZM154.812 11.3223C154.33 10.8752 153.733 10.1579 153.276 9.14374C152.813 8.11533 152.634 7.09099 152.634 6.21946H176.634C176.634 1.24474 174.538 -3.1196 171.123 -6.28321L154.812 11.3223ZM152.634 6.21946C152.634 5.37518 152.805 4.37846 153.252 3.3734C153.693 2.38113 154.272 1.6742 154.744 1.22999L171.192 18.7068C174.579 15.5191 176.634 11.1608 176.634 6.21946H152.634ZM154.748 1.22617C155.256 0.74818 155.95 0.274875 156.805 -0.0579017C157.654 -0.388016 158.425 -0.487927 158.998 -0.487927V23.5121C163.494 23.5121 167.788 21.9076 171.188 18.7106L154.748 1.22617ZM172.555 68.1136H160.555V80.1136H172.555V68.1136ZM172.555 16.3636V4.36364H160.555V16.3636H172.555ZM182.846 16.3636H194.846V4.36364H182.846V16.3636ZM182.846 22.6854H170.846V34.6854H182.846V22.6854ZM183.311 22.6854V34.6854H191.059L194.248 27.6244L183.311 22.6854ZM185.296 19.598L176.066 11.9298L176.06 11.937L176.054 11.9442L185.296 19.598ZM188.727 16.9517L194.093 27.6848L194.118 27.6725L194.142 27.6601L188.727 16.9517ZM201.615 18.0298L195.294 28.2299L195.32 28.2461L195.346 28.2621L201.615 18.0298ZM207.177 24.4741L196.371 29.6928L196.377 29.7049L196.383 29.7169L207.177 24.4741ZM207.226 45.8651L196.361 40.7703L196.355 40.7837L196.349 40.7972L207.226 45.8651ZM201.738 52.4073L208.194 62.5224L208.203 62.5165L208.212 62.5107L201.738 52.4073ZM188.825 53.608L183.66 64.44L183.685 64.4515L183.709 64.4629L188.825 53.608ZM185.37 51.0842L176.33 58.9761L176.361 59.0119L176.393 59.0475L185.37 51.0842ZM183.311 47.9723L194.242 43.0195L191.048 35.9723H183.311V47.9723ZM182.993 47.9723V35.9723H170.993V47.9723H182.993ZM182.993 68.1136V80.1136H194.993V68.1136H182.993ZM186.399 44.9339L178.95 54.3425L178.991 54.3745L179.031 54.4062L186.399 44.9339ZM194.999 44.9094L202.448 54.318L202.488 54.2864L202.527 54.2545L194.999 44.9094ZM197.67 40.989L186.412 36.8355L186.4 36.8662L186.389 36.897L197.67 40.989ZM197.695 29.4482L208.962 25.3204L208.962 25.3204L197.695 29.4482ZM195.024 25.5767L202.472 16.1682L202.472 16.1682L195.024 25.5767ZM186.374 25.5277L179.09 15.9916L179.058 16.0163L179.025 16.0411L186.374 25.5277ZM183.703 29.3501L172.472 25.1245L172.472 25.1245L183.703 29.3501ZM184.555 68.1136V16.3636H160.555V68.1136H184.555ZM172.555 28.3636H182.846V4.36364H172.555V28.3636ZM170.846 16.3636V22.6854H194.846V16.3636H170.846ZM182.846 34.6854H183.311V10.6854H182.846V34.6854ZM194.248 27.6244C194.18 27.7756 194.211 27.6471 194.538 27.2518L176.054 11.9442C174.65 13.6398 173.358 15.5696 172.375 17.7463L194.248 27.6244ZM194.526 27.2662C194.378 27.4451 194.24 27.5681 194.145 27.6415C194.053 27.7125 194.023 27.7196 194.093 27.6848L183.36 6.21858C180.673 7.56195 178.147 9.42515 176.066 11.9298L194.526 27.2662ZM194.142 27.6601C193.782 27.8421 193.544 27.8949 193.511 27.9016C193.485 27.9069 193.638 27.8736 194.019 27.8736V3.87358C190.614 3.87358 186.864 4.44637 183.311 6.24331L194.142 27.6601ZM194.019 27.8736C194.543 27.8736 194.884 27.976 195.294 28.2299L207.936 7.82971C203.707 5.20866 198.984 3.87358 194.019 3.87358V27.8736ZM195.346 28.2621C195.384 28.2853 195.806 28.5231 196.371 29.6928L217.983 19.2554C215.771 14.6751 212.485 10.6167 207.884 7.79758L195.346 28.2621ZM196.383 29.7169C196.747 30.4665 197.26 32.1198 197.26 35.2308H221.26C221.26 29.7168 220.384 24.1989 217.971 19.2312L196.383 29.7169ZM197.26 35.2308C197.26 38.198 196.773 39.8921 196.361 40.7703L218.091 50.9598C220.391 46.0553 221.26 40.66 221.26 35.2308H197.26ZM196.349 40.7972C195.821 41.9292 195.391 42.2217 195.263 42.3039L208.212 62.5107C212.723 59.62 215.952 55.5509 218.104 50.9329L196.349 40.7972ZM195.281 42.2922C194.998 42.4731 194.677 42.6126 193.995 42.6126V66.6126C199.03 66.6126 203.871 65.2819 208.194 62.5224L195.281 42.2922ZM193.995 42.6126C193.818 42.6126 193.688 42.6052 193.6 42.5974C193.512 42.5895 193.471 42.5816 193.472 42.5817C193.474 42.5822 193.652 42.6173 193.94 42.753L183.709 64.4629C187.123 66.0718 190.693 66.6126 193.995 66.6126V42.6126ZM193.989 42.776C193.898 42.7328 193.909 42.7284 193.986 42.7847C194.066 42.8432 194.197 42.9522 194.347 43.1208L176.393 59.0475C178.505 61.4285 181.021 63.1815 183.66 64.44L193.989 42.776ZM194.409 43.1923C194.139 42.8829 194.15 42.8182 194.242 43.0195L172.381 52.9251C173.42 55.2173 174.803 57.2272 176.33 58.9761L194.409 43.1923ZM183.311 35.9723H182.993V59.9723H183.311V35.9723ZM170.993 47.9723V68.1136H194.993V47.9723H170.993ZM182.993 56.1136H172.555V80.1136H182.993V56.1136ZM170.772 35.1818C170.772 38.4954 171.228 41.9245 172.458 45.2273L194.948 36.8487C194.937 36.8191 194.772 36.3441 194.772 35.1818H170.772ZM172.458 45.2273C173.701 48.5632 175.761 51.8173 178.95 54.3425L193.847 35.5254C194.237 35.8339 194.522 36.1599 194.711 36.4343C194.895 36.6991 194.954 36.8639 194.948 36.8487L172.458 45.2273ZM179.031 54.4062C182.584 57.1689 186.699 58.3061 190.687 58.3061V34.3061C190.938 34.3061 191.409 34.3416 192.01 34.534C192.628 34.7316 193.234 35.0477 193.766 35.4617L179.031 54.4062ZM190.687 58.3061C194.712 58.3061 198.873 57.1476 202.448 54.318L187.551 35.5009C188.092 35.0726 188.711 34.7451 189.342 34.5407C189.956 34.3419 190.435 34.3061 190.687 34.3061V58.3061ZM202.527 54.2545C205.688 51.7086 207.73 48.446 208.951 45.081L186.389 36.897C186.388 36.9003 186.45 36.7296 186.632 36.4626C186.82 36.1862 187.097 35.8655 187.471 35.5644L202.527 54.2545ZM208.928 45.1425C210.134 41.8732 210.601 38.4856 210.601 35.1818H186.601C186.601 36.2558 186.447 36.7398 186.412 36.8355L208.928 45.1425ZM210.601 35.1818C210.601 31.9219 210.15 28.5636 208.962 25.3204L186.427 33.5759C186.448 33.6325 186.601 34.0966 186.601 35.1818H210.601ZM208.962 25.3204C207.729 21.9528 205.663 18.6941 202.472 16.1682L187.575 34.9852C187.188 34.6786 186.897 34.348 186.696 34.0572C186.502 33.7758 186.432 33.5889 186.427 33.5759L208.962 25.3204ZM202.472 16.1682C198.877 13.3222 194.698 12.18 190.687 12.18V36.18C190.455 36.18 189.987 36.1474 189.379 35.9515C188.752 35.7497 188.128 35.4224 187.575 34.9853L202.472 16.1682ZM190.687 12.18C186.762 12.18 182.66 13.2646 179.09 15.9916L193.659 35.0638C193.113 35.4803 192.509 35.7848 191.914 35.9707C191.336 36.1512 190.898 36.18 190.687 36.18V12.18ZM179.025 16.0411C175.784 18.5518 173.716 21.8172 172.472 25.1245L194.935 33.5758C194.939 33.5652 194.872 33.7454 194.673 34.0302C194.467 34.3256 194.155 34.6798 193.723 35.0143L179.025 16.0411ZM172.472 25.1245C171.227 28.4344 170.772 31.8727 170.772 35.1818H194.772C194.772 34.0151 194.939 33.5656 194.935 33.5758L172.472 25.1245ZM236.238 16.3636H248.238V4.36364H236.238V16.3636ZM236.238 24.2045V36.2045H248.238V24.2045H236.238ZM213.572 24.2045H201.572V36.2045H213.572V24.2045ZM213.572 16.3636V4.36364H201.572V16.3636H213.572ZM218.718 7.34659V-4.65341H206.718V7.34659H218.718ZM229.156 7.34659H241.156V-4.65341H229.156V7.34659ZM229.597 44.6889L219.063 50.4351L219.1 50.5038L219.138 50.572L229.597 44.6889ZM230.822 45.7915L226.306 56.9091L226.365 56.9331L226.424 56.9564L230.822 45.7915ZM234.155 45.9876L236.128 57.8243L236.318 57.7925L236.508 57.7545L234.155 45.9876ZM235.282 45.767L247.023 43.2856L244.597 31.8113L233.07 33.9726L235.282 45.767ZM236.924 53.5344L240.503 64.9882L250.921 61.7324L248.664 51.053L236.924 53.5344ZM234.718 54.098L232.094 42.3885L231.998 42.41L231.903 42.433L234.718 54.098ZM231.263 54.5146L230.83 42.5224L230.813 42.523L230.796 42.5237L231.263 54.5146ZM224.648 53.5099L220.108 64.618L220.125 64.6249L220.141 64.6317L224.648 53.5099ZM220.262 49.9325L230.339 43.4177L230.339 43.4177L220.262 49.9325ZM218.718 43.8068L230.718 43.8863L230.718 43.8466V43.8068H218.718ZM224.238 16.3636V24.2045H248.238V16.3636H224.238ZM236.238 12.2045H213.572V36.2045H236.238V12.2045ZM225.572 24.2045V16.3636H201.572V24.2045H225.572ZM213.572 28.3636H236.238V4.36364H213.572V28.3636ZM218.718 19.3466H229.156V-4.65341H218.718V19.3466ZM217.156 7.34659V42.4347H241.156V7.34659H217.156ZM217.156 42.4347C217.156 44.3713 217.41 47.406 219.063 50.4351L240.132 38.9427C240.697 39.978 240.937 40.8727 241.043 41.4169C241.15 41.9653 241.156 42.3318 241.156 42.4347H217.156ZM219.138 50.572C220.674 53.3017 223.102 55.6076 226.306 56.9091L235.339 34.6739C237.497 35.5508 239.109 37.1216 240.056 38.8058L219.138 50.572ZM226.424 56.9564C228.627 57.8242 230.788 58.1101 232.685 58.1101V34.1101C233.177 34.1101 234.096 34.1837 235.221 34.6266L226.424 56.9564ZM232.685 58.1101C233.845 58.1101 234.995 58.0131 236.128 57.8243L232.182 34.1508C232.335 34.1254 232.505 34.1101 232.685 34.1101V58.1101ZM236.508 57.7545C236.984 57.6593 237.304 57.597 237.493 57.5615L233.07 33.9726C232.737 34.0351 232.305 34.1198 231.801 34.2206L236.508 57.7545ZM223.541 48.2485L225.183 56.0159L248.664 51.053L247.023 43.2856L223.541 48.2485ZM233.344 42.0807C233.35 42.0789 233.325 42.0866 233.265 42.1037C233.205 42.1204 233.121 42.143 233.009 42.1715C232.783 42.2292 232.482 42.3016 232.094 42.3885L237.343 65.8075C238.407 65.5689 239.514 65.2971 240.503 64.9882L233.344 42.0807ZM231.903 42.433C231.959 42.4194 231.904 42.4363 231.708 42.4599C231.515 42.4832 231.227 42.508 230.83 42.5224L231.697 66.5067C233.569 66.4391 235.569 66.2374 237.534 65.763L231.903 42.433ZM230.796 42.5237C230.202 42.5468 229.788 42.5129 229.524 42.4729C229.266 42.4337 229.157 42.3895 229.154 42.3882L220.141 64.6317C223.935 66.1686 227.898 66.6548 231.731 66.5055L230.796 42.5237ZM229.188 42.4018C229.264 42.4332 229.471 42.5321 229.727 42.7407C229.987 42.9531 230.196 43.1958 230.339 43.4177L210.184 56.4473C212.636 60.2405 216.087 62.9746 220.108 64.618L229.188 42.4018ZM230.339 43.4177C230.592 43.8082 230.695 44.124 230.728 44.2559C230.757 44.3705 230.715 44.273 230.718 43.8863L206.718 43.7273C206.691 47.8807 207.556 52.3825 210.184 56.4473L230.339 43.4177ZM230.718 43.8068V7.34659H206.718V43.8068H230.718ZM247.35 53.4609L242.405 64.3951L242.445 64.413L242.485 64.4306L247.35 53.4609ZM242.89 49.712L232.815 56.231L232.852 56.2885L232.89 56.3455L242.89 49.712ZM242.424 38.2202L231.867 32.5165L231.867 32.5165L242.424 38.2202ZM245.561 34.7898L238.991 24.7483L238.991 24.7483L245.561 34.7898ZM250.069 32.8295L247.054 21.2146L247.04 21.2181L247.027 21.2217L250.069 32.8295ZM255.411 31.8984L256.564 43.843L256.611 43.8384L256.658 43.8335L255.411 31.8984ZM260.704 31.2614L262.441 43.1349L262.512 43.1245L262.583 43.1133L260.704 31.2614ZM263.619 30.3303L256.901 20.3872L256.901 20.3872L263.619 30.3303ZM263.056 24.7681L255.121 33.7706L255.159 33.8037L255.197 33.8364L263.056 24.7681ZM254.455 24.7436L261.564 34.4114L261.61 34.3777L261.655 34.3436L254.455 24.7436ZM252.25 27.831L251.279 39.7916L261.051 40.5852L263.777 31.1677L252.25 27.831ZM242.596 27.0469L230.862 24.5325L227.998 37.9007L241.625 39.0075L242.596 27.0469ZM245.487 21.1172L254.573 28.956L254.592 28.9341L254.611 28.9121L245.487 21.1172ZM251.049 17.2457L255.465 28.404L255.485 28.3958L255.506 28.3875L251.049 17.2457ZM264.992 16.6087L262.011 28.2326L262.023 28.2357L262.035 28.2387L264.992 16.6087ZM270.113 18.8874L263.282 28.7537L263.307 28.7712L263.333 28.7885L270.113 18.8874ZM273.666 22.8569L263.086 28.5206L263.098 28.543L263.11 28.5653L273.666 22.8569ZM274.964 54V66H286.964V54H274.964ZM265.065 54H253.065V66H265.065V54ZM265.065 48.7809H277.065V36.7809H265.065V48.7809ZM264.771 48.7809V36.7809H257.446L254.098 43.2961L264.771 48.7809ZM262.345 51.8928L270.227 60.9417L270.268 60.9059L270.309 60.8696L262.345 51.8928ZM258.694 53.9755L262.606 65.32L262.664 65.3L262.722 65.2793L258.694 53.9755ZM260.826 46.6001L266.311 57.2733L266.369 57.2434L266.427 57.2128L260.826 46.6001ZM263.595 44.1009L253.491 37.6277L253.491 37.6277L263.595 44.1009ZM264.6 36.554H276.6V14.4418L258.06 26.4926L264.6 36.554ZM263.252 37.142L266.638 48.6544L266.744 48.6232L266.85 48.59L263.252 37.142ZM261.365 37.6076L263.56 49.4052L263.692 49.3806L263.824 49.3531L261.365 37.6076ZM259.258 37.9751L260.916 49.86L261.051 49.8411L261.186 49.8192L259.258 37.9751ZM257.347 38.2447L255.65 26.3653L255.628 26.3684L255.605 26.3717L257.347 38.2447ZM254.137 39.1023L258.864 50.132L258.864 50.132L254.137 39.1023ZM252.005 40.695L261.49 48.0458L261.534 47.9893L261.577 47.9323L252.005 40.695ZM252.789 46.4041L245.713 56.0956L245.799 56.1588L245.887 56.2205L252.789 46.4041ZM253.769 42.7106C252.764 42.7106 252.325 42.5401 252.214 42.4913L242.485 64.4306C246.132 66.0479 249.972 66.7106 253.769 66.7106V42.7106ZM252.294 42.5268C252.29 42.5252 252.317 42.537 252.365 42.5673C252.414 42.5979 252.477 42.6421 252.548 42.7012C252.699 42.8282 252.816 42.9672 252.89 43.0785L232.89 56.3455C235.285 59.9558 238.56 62.6563 242.405 64.3951L252.294 42.5268ZM252.965 43.193C253.066 43.3498 253.142 43.4971 253.197 43.6239C253.252 43.7498 253.279 43.842 253.291 43.8885C253.315 43.9778 253.273 43.8683 253.273 43.4883H229.273C229.273 47.7044 230.199 52.1873 232.815 56.231L252.965 43.193ZM253.273 43.4883C253.273 43.1684 253.303 43.0787 253.284 43.1658C253.263 43.2621 253.188 43.5429 252.982 43.9238L231.867 32.5165C229.914 36.1305 229.273 39.9755 229.273 43.4883H253.273ZM252.982 43.9238C252.919 44.0409 252.809 44.2102 252.641 44.3939C252.472 44.5786 252.293 44.7256 252.131 44.8312L238.991 24.7483C235.961 26.7304 233.561 29.3799 231.867 32.5165L252.982 43.9238ZM252.131 44.8312C252.268 44.7417 252.558 44.5827 253.112 44.4374L247.027 21.2217C244.216 21.9585 241.5 23.1063 238.991 24.7483L252.131 44.8312ZM253.085 44.4445C254.134 44.1722 255.289 43.9659 256.564 43.843L254.258 19.9539C251.809 20.1903 249.403 20.6048 247.054 21.2146L253.085 44.4445ZM256.658 43.8335C258.923 43.5968 260.87 43.3648 262.441 43.1349L258.966 19.3878C257.858 19.55 256.277 19.7427 254.164 19.9634L256.658 43.8335ZM262.583 43.1133C264.416 42.8227 267.511 42.1834 270.338 40.2733L256.901 20.3872C257.838 19.7539 258.582 19.5033 258.787 19.438C259.033 19.3595 259.077 19.3694 258.825 19.4094L262.583 43.1133ZM270.338 40.2733C274.606 37.3893 276.526 32.8465 276.526 28.517H252.526C252.526 27.3959 252.744 25.8489 253.566 24.2041C254.411 22.5156 255.634 21.2434 256.901 20.3872L270.338 40.2733ZM276.526 28.517V28.37H252.526V28.517H276.526ZM276.526 28.37C276.526 24.088 275.043 19.2777 270.915 15.6998L255.197 33.8364C254.262 33.0265 253.516 31.9859 253.048 30.8404C252.602 29.7478 252.526 28.8498 252.526 28.37H276.526ZM270.99 15.7656C267.115 12.3504 262.514 11.494 258.939 11.494V35.494C258.926 35.494 257.069 35.487 255.121 33.7706L270.99 15.7656ZM258.939 11.494C255.37 11.494 251.067 12.2852 247.255 15.1436L261.655 34.3436C260.066 35.5358 258.752 35.494 258.939 35.494V11.494ZM247.347 15.0758C244.258 17.347 241.869 20.5381 240.723 24.4943L263.777 31.1677C263.588 31.8215 263.274 32.4887 262.836 33.1029C262.402 33.7096 261.939 34.1357 261.564 34.4114L247.347 15.0758ZM253.222 15.8703L243.567 15.0863L241.625 39.0075L251.279 39.7916L253.222 15.8703ZM254.33 29.5612C254.425 29.1154 254.534 29.0017 254.573 28.956L236.401 13.2784C233.566 16.5651 231.747 20.4044 230.862 24.5325L254.33 29.5612ZM254.611 28.9121C254.649 28.8673 254.823 28.6581 255.465 28.404L246.634 6.08748C242.735 7.63028 239.201 10.002 236.364 13.3223L254.611 28.9121ZM255.506 28.3875C256.101 28.1495 257.183 27.8736 258.988 27.8736V3.87358C254.783 3.87358 250.572 4.5124 246.593 6.10401L255.506 28.3875ZM258.988 27.8736C260.134 27.8736 261.13 28.0067 262.011 28.2326L267.972 4.98469C265.031 4.2305 262.025 3.87358 258.988 3.87358V27.8736ZM262.035 28.2387C262.715 28.4116 263.084 28.6162 263.282 28.7537L276.943 9.02112C274.169 7.10041 271.123 5.78587 267.948 4.97864L262.035 28.2387ZM263.333 28.7885C263.311 28.7734 263.253 28.7285 263.187 28.6548C263.156 28.6208 263.132 28.5889 263.113 28.5623C263.094 28.5358 263.086 28.5205 263.086 28.5206L284.245 17.1932C282.478 13.8919 279.995 11.1109 276.893 8.98639L263.333 28.7885ZM263.11 28.5653C263.048 28.4494 263.004 28.3485 262.975 28.2706C262.947 28.1932 262.936 28.1461 262.934 28.1371C262.93 28.1216 262.964 28.2653 262.964 28.6151H286.964C286.964 24.8361 286.229 20.8614 284.221 17.1484L263.11 28.5653ZM262.964 28.6151V54H286.964V28.6151H262.964ZM274.964 42H265.065V66H274.964V42ZM277.065 54V48.7809H253.065V54H277.065ZM265.065 36.7809H264.771V60.7809H265.065V36.7809ZM254.098 43.2961C254.137 43.2204 254.188 43.1397 254.247 43.0634C254.306 42.9875 254.356 42.9385 254.382 42.9159L270.309 60.8696C272.406 59.009 274.144 56.7954 275.444 54.2657L254.098 43.2961ZM254.464 42.8438C254.581 42.742 254.676 42.6808 254.727 42.6518C254.775 42.6241 254.763 42.6372 254.667 42.6717L262.722 65.2793C265.384 64.3309 267.951 62.9241 270.227 60.9417L254.464 42.8438ZM254.782 42.631C254.879 42.5976 254.606 42.7106 253.769 42.7106V66.7106C256.657 66.7106 259.667 66.3335 262.606 65.32L254.782 42.631ZM256.759 59.5067C259.894 59.5067 263.184 58.8804 266.311 57.2733L255.341 35.927C256.116 35.5287 256.694 35.5067 256.759 35.5067V59.5067ZM266.427 57.2128C269.302 55.6955 271.832 53.489 273.699 50.574L253.491 37.6277C253.733 37.2494 254.029 36.9005 254.36 36.602C254.687 36.3066 254.993 36.1098 255.225 35.9875L266.427 57.2128ZM273.699 50.574C275.689 47.4678 276.6 44.0079 276.6 40.5479H252.6C252.6 40.188 252.647 39.7102 252.801 39.1634C252.957 38.6111 253.195 38.0888 253.491 37.6277L273.699 50.574ZM276.6 40.5479V36.554H252.6V40.5479H276.6ZM258.06 26.4926C258.57 26.1612 258.985 25.9637 259.218 25.8618C259.461 25.756 259.618 25.7055 259.654 25.6941L266.85 48.59C267.967 48.2389 269.549 47.6493 271.139 46.6153L258.06 26.4926ZM259.866 25.6297C259.679 25.6848 259.368 25.7657 258.907 25.8621L263.824 49.3531C264.768 49.1555 265.714 48.926 266.638 48.6544L259.866 25.6297ZM259.17 25.81C258.556 25.9243 257.943 26.0313 257.33 26.1311L261.186 49.8192C261.978 49.6903 262.769 49.5523 263.56 49.4052L259.17 25.81ZM257.6 26.0903C256.887 26.1897 256.237 26.2814 255.65 26.3653L259.044 50.1241C259.6 50.0446 260.224 49.9566 260.916 49.86L257.6 26.0903ZM255.605 26.3717C253.591 26.6671 251.478 27.1862 249.41 28.0725L258.864 50.132C258.737 50.1863 258.683 50.1979 258.723 50.1872C258.763 50.1764 258.88 50.1482 259.088 50.1177L255.605 26.3717ZM249.41 28.0725C246.935 29.1333 244.412 30.8399 242.433 33.4577L261.577 47.9323C260.611 49.2105 259.51 49.8553 258.864 50.132L249.41 28.0725ZM242.52 33.3441C240.095 36.4728 239.246 40.0158 239.246 43.1452H263.246C263.246 44.3145 262.902 46.2239 261.49 48.0458L242.52 33.3441ZM239.246 43.1452C239.246 47.8874 241.199 52.8 245.713 56.0956L259.866 36.7126C260.867 37.4438 261.825 38.5143 262.476 39.8888C263.106 41.2181 263.246 42.4 263.246 43.1452H239.246ZM245.887 56.2205C249.413 58.6997 253.316 59.5067 256.759 59.5067V35.5067C257 35.5067 258.256 35.5787 259.691 36.5878L245.887 56.2205ZM289.164 52.4073L282.657 62.4898L282.698 62.5166L282.74 62.543L289.164 52.4073ZM283.675 45.8651L272.787 50.9094L272.804 50.9465L272.821 50.9835L283.675 45.8651ZM283.749 24.4741L294.543 29.7169L294.548 29.7049L294.554 29.6928L283.749 24.4741ZM289.286 18.0298L295.587 28.2423L295.597 28.2361L295.607 28.2299L289.286 18.0298ZM302.175 16.9517L296.709 27.6347L296.783 27.6726L296.858 27.7094L302.175 16.9517ZM305.605 19.598L296.305 27.1813L296.369 27.2594L296.434 27.3365L305.605 19.598ZM307.614 22.6854L296.678 27.6244L299.867 34.6854H307.614V22.6854ZM307.933 22.6854V34.6854H319.933V22.6854H307.933ZM307.933 3.81818V-8.18182H295.933V3.81818H307.933ZM318.347 3.81818H330.347V-8.18182H318.347V3.81818ZM318.347 54V66H330.347V54H318.347ZM308.055 54H296.055V66H308.055V54ZM308.055 47.9723H320.055V35.9723H308.055V47.9723ZM307.614 47.9723V35.9723H299.986L296.749 42.8791L307.614 47.9723ZM305.532 51.0842L296.492 43.1923L296.483 43.2028L305.532 51.0842ZM302.077 53.608L296.961 42.753L296.937 42.7644L296.913 42.776L302.077 53.608ZM304.502 44.9339L311.934 54.3559L311.942 54.3492L311.951 54.3425L304.502 44.9339ZM307.198 41.038L295.989 36.7523L295.971 36.8004L295.953 36.8487L307.198 41.038ZM307.222 29.3501L318.454 25.1245L318.454 25.1245L307.222 29.3501ZM295.902 25.5767L288.454 16.1682L288.454 16.1682L295.902 25.5767ZM293.231 40.989L281.938 45.0459L281.962 45.1122L281.986 45.1783L293.231 40.989ZM295.902 44.9094L288.31 54.2028L288.381 54.2609L288.454 54.318L295.902 44.9094ZM296.931 42.6126C296.249 42.6126 295.905 42.4727 295.588 42.2716L282.74 62.543C287.062 65.2823 291.896 66.6126 296.931 66.6126V42.6126ZM295.671 42.3248C295.536 42.2379 295.083 41.9229 294.529 40.7466L272.821 50.9835C274.978 55.5572 278.185 59.6037 282.657 62.4898L295.671 42.3248ZM294.563 40.8208C294.15 39.9281 293.666 38.215 293.666 35.2308H269.666C269.666 40.6429 270.521 46.0193 272.787 50.9094L294.563 40.8208ZM293.666 35.2308C293.666 32.1198 294.179 30.4665 294.543 29.7169L272.954 19.2312C270.542 24.1989 269.666 29.7168 269.666 35.2308H293.666ZM294.554 29.6928C295.13 28.5017 295.558 28.2603 295.587 28.2423L282.985 7.8174C278.408 10.6416 275.145 14.6964 272.943 19.2554L294.554 29.6928ZM295.607 28.2299C296.005 27.9834 296.352 27.8736 296.907 27.8736V3.87358C291.94 3.87358 287.206 5.20129 282.965 7.82971L295.607 28.2299ZM296.907 27.8736C297.289 27.8736 297.435 27.9071 297.398 27.8994C297.354 27.8904 297.094 27.8316 296.709 27.6347L307.64 6.26873C304.073 4.44372 300.304 3.87358 296.907 3.87358V27.8736ZM296.858 27.7094C296.926 27.7431 296.882 27.7291 296.769 27.6415C296.651 27.5511 296.484 27.4006 296.305 27.1813L314.905 12.0147C312.797 9.42857 310.212 7.5384 307.492 6.19396L296.858 27.7094ZM296.434 27.3365C296.59 27.5223 296.675 27.6442 296.711 27.6994C296.747 27.7542 296.725 27.7295 296.678 27.6244L318.551 17.7463C317.546 15.5222 316.216 13.5651 314.777 11.8596L296.434 27.3365ZM307.614 34.6854H307.933V10.6854H307.614V34.6854ZM319.933 22.6854V3.81818H295.933V22.6854H319.933ZM307.933 15.8182H318.347V-8.18182H307.933V15.8182ZM306.347 3.81818V54H330.347V3.81818H306.347ZM318.347 42H308.055V66H318.347V42ZM320.055 54V47.9723H296.055V54H320.055ZM308.055 35.9723H307.614V59.9723H308.055V35.9723ZM296.749 42.8791C296.811 42.7457 296.785 42.8567 296.492 43.1923L314.571 58.9761C316.075 57.2534 317.437 55.2898 318.48 53.0655L296.749 42.8791ZM296.483 43.2028C296.861 42.7682 297.132 42.6725 296.961 42.753L307.192 64.463C309.864 63.2039 312.438 61.4257 314.581 58.9655L296.483 43.2028ZM296.913 42.776C297.225 42.6269 297.423 42.5865 297.437 42.5838C297.444 42.5825 297.407 42.5899 297.322 42.5976C297.237 42.6052 297.108 42.6126 296.931 42.6126V66.6126C300.226 66.6126 303.813 66.074 307.241 64.44L296.913 42.776ZM300.239 58.3061C304.224 58.3061 308.367 57.1693 311.934 54.3559L297.071 35.512C297.626 35.0744 298.255 34.7446 298.89 34.5401C299.508 34.3413 299.988 34.3061 300.239 34.3061V58.3061ZM311.951 54.3425C315.141 51.8173 317.2 48.5632 318.443 45.2273L295.953 36.8487C295.947 36.8639 296.007 36.6991 296.19 36.4343C296.38 36.1599 296.664 35.8339 297.054 35.5254L311.951 54.3425ZM318.406 45.3236C319.681 41.9903 320.153 38.5263 320.153 35.1818H296.153C296.153 36.3132 295.989 36.7533 295.989 36.7523L318.406 45.3236ZM320.153 35.1818C320.153 31.8727 319.699 28.4344 318.454 25.1245L295.991 33.5758C295.987 33.5656 296.153 34.0151 296.153 35.1818H320.153ZM318.454 25.1245C317.194 21.776 315.091 18.4969 311.811 15.9916L297.242 35.0638C296.811 34.734 296.492 34.3786 296.276 34.0724C296.067 33.7768 295.993 33.5822 295.991 33.5758L318.454 25.1245ZM311.811 15.9916C308.262 13.2801 304.177 12.18 300.239 12.18V36.18C300.008 36.18 299.558 36.1481 298.975 35.9649C298.376 35.7765 297.777 35.4718 297.242 35.0638L311.811 15.9916ZM300.239 12.18C296.227 12.18 292.048 13.3222 288.454 16.1682L303.35 34.9853C302.798 35.4224 302.174 35.7497 301.547 35.9515C300.938 36.1474 300.471 36.18 300.239 36.18V12.18ZM288.454 16.1682C285.263 18.6941 283.197 21.9528 281.963 25.3204L304.499 33.5759C304.494 33.5889 304.424 33.7758 304.23 34.0572C304.029 34.348 303.738 34.6786 303.35 34.9852L288.454 16.1682ZM281.963 25.3204C280.775 28.5636 280.325 31.9219 280.325 35.1818H304.325C304.325 34.0966 304.478 33.6325 304.499 33.5759L281.963 25.3204ZM280.325 35.1818C280.325 38.454 280.774 41.8069 281.938 45.0459L304.525 36.9321C304.479 36.806 304.325 36.2875 304.325 35.1818H280.325ZM281.986 45.1783C283.21 48.4641 285.216 51.6754 288.31 54.2028L303.494 35.6161C303.855 35.9117 304.114 36.2162 304.282 36.4626C304.444 36.7001 304.49 36.8373 304.476 36.7997L281.986 45.1783ZM288.454 54.318C292.048 57.1639 296.227 58.3061 300.239 58.3061V34.3061C300.471 34.3061 300.938 34.3387 301.547 34.5346C302.174 34.7365 302.798 35.0637 303.35 35.5009L288.454 54.318ZM334.059 52.3093L327.948 62.6368L327.984 62.658L328.02 62.6791L334.059 52.3093ZM327.664 45.4975L316.991 50.983L316.997 50.9952L317.003 51.0073L327.664 45.4975ZM327.664 25.1357L338.324 30.6455L338.33 30.6333L338.337 30.6211L327.664 25.1357ZM334.059 18.3239L340.124 28.6781L340.134 28.6726L340.143 28.6671L334.059 18.3239ZM353.784 18.3239L347.673 28.6513L347.709 28.6726L347.745 28.6936L353.784 18.3239ZM360.204 25.1357L349.531 30.6211L349.537 30.6333L349.543 30.6455L360.204 25.1357ZM360.204 45.4975L370.864 51.0073L370.87 50.9952L370.876 50.983L360.204 45.4975ZM353.784 52.3093L359.849 62.6635L359.859 62.658L359.868 62.6525L353.784 52.3093ZM348.32 45.179L356.065 54.3445L356.103 54.3129L356.14 54.281L348.32 45.179ZM350.941 41.1115L339.624 37.1233L339.607 37.1714L339.59 37.2196L350.941 41.1115ZM350.941 29.3991L339.59 33.291L339.607 33.3393L339.624 33.3874L350.941 29.3991ZM339.572 25.3317L331.878 16.1234L331.846 16.1495L331.815 16.1759L339.572 25.3317ZM336.901 29.3991L325.583 25.4109L325.567 25.459L325.55 25.5073L336.901 29.3991ZM336.901 41.1115L325.55 45.0034L325.567 45.0516L325.583 45.0997L336.901 41.1115ZM339.572 45.179L331.815 54.3348L331.883 54.3926L331.953 54.4495L339.572 45.179ZM343.934 42.7351C341.856 42.7351 340.729 42.307 340.098 41.9395L328.02 62.6791C332.943 65.546 338.399 66.7351 343.934 66.7351V42.7351ZM340.17 41.9818C339.389 41.5198 338.815 40.9374 338.324 39.9877L317.003 51.0073C319.518 55.873 323.208 59.8317 327.948 62.6368L340.17 41.9818ZM338.337 40.012C337.845 39.0552 337.409 37.6049 337.409 35.3288H313.409C313.409 40.763 314.477 46.0918 316.991 50.983L338.337 40.012ZM337.409 35.3288C337.409 32.9999 337.853 31.5578 338.324 30.6455L317.003 19.6258C314.469 24.5289 313.409 29.8822 313.409 35.3288H337.409ZM338.337 30.6211C338.828 29.6658 339.387 29.1099 340.124 28.6781L327.994 7.96964C323.209 10.7722 319.506 14.7575 316.991 19.6502L338.337 30.6211ZM340.143 28.6671C340.766 28.3007 341.876 27.8736 343.934 27.8736V3.87358C338.379 3.87358 332.906 5.07996 327.975 7.98065L340.143 28.6671ZM343.934 27.8736C345.993 27.8736 347.082 28.3015 347.673 28.6513L359.895 7.99639C354.965 5.0792 349.486 3.87358 343.934 3.87358V27.8736ZM347.745 28.6936C348.495 29.1305 349.049 29.6844 349.531 30.6211L370.876 19.6502C368.352 14.7389 364.626 10.7516 359.823 7.95409L347.745 28.6936ZM349.543 30.6455C350.015 31.5578 350.458 33 350.458 35.3288H374.458C374.458 29.8821 373.398 24.5289 370.864 19.6258L349.543 30.6455ZM350.458 35.3288C350.458 37.6049 350.022 39.0552 349.531 40.012L370.876 50.983C373.39 46.0918 374.458 40.763 374.458 35.3288H350.458ZM349.543 39.9877C349.062 40.9188 348.493 41.4991 347.7 41.9661L359.868 62.6525C364.628 59.8524 368.339 55.8915 370.864 51.0073L349.543 39.9877ZM347.718 41.9551C347.119 42.3062 346.014 42.7351 343.934 42.7351V66.7351C349.466 66.7351 354.927 65.5467 359.849 62.6635L347.718 41.9551ZM343.983 58.6491C348.128 58.6491 352.438 57.41 356.065 54.3445L340.574 36.0134C341.149 35.5278 341.82 35.1519 342.513 34.9168C343.185 34.6889 343.712 34.6491 343.983 34.6491V58.6491ZM356.14 54.281C359.197 51.654 361.142 48.3609 362.293 45.0034L339.59 37.2196C339.572 37.271 339.61 37.1445 339.759 36.9134C339.913 36.6733 340.156 36.3723 340.5 36.077L356.14 54.281ZM362.259 45.0997C363.397 41.8725 363.848 38.5343 363.848 35.2553H339.848C339.848 36.3542 339.695 36.9201 339.624 37.1233L362.259 45.0997ZM363.848 35.2553C363.848 31.9764 363.397 28.6381 362.259 25.4109L339.624 33.3874C339.695 33.5906 339.848 34.1564 339.848 35.2553H363.848ZM362.293 25.5073C361.142 22.1498 359.197 18.8566 356.14 16.2297L340.5 34.4337C340.156 34.1383 339.913 33.8374 339.759 33.5972C339.61 33.3662 339.572 33.2396 339.59 33.291L362.293 25.5073ZM356.14 16.2297C352.515 13.1155 348.179 11.837 343.983 11.837V35.837C343.692 35.837 343.145 35.7935 342.456 35.5558C341.745 35.311 341.07 34.9235 340.5 34.4337L356.14 16.2297ZM343.983 11.837C339.795 11.837 335.498 13.0977 331.878 16.1234L347.267 34.54C346.727 34.9907 346.09 35.3488 345.421 35.5758C344.77 35.7964 344.256 35.837 343.983 35.837V11.837ZM331.815 16.1759C328.744 18.7779 326.767 22.0514 325.583 25.4109L348.219 33.3873C348.237 33.336 348.2 33.4584 348.053 33.6824C347.9 33.9151 347.663 34.2047 347.329 34.4875L331.815 16.1759ZM325.55 25.5073C324.454 28.7039 324.019 32.0079 324.019 35.2553H348.019C348.019 34.1249 348.173 33.5248 348.253 33.291L325.55 25.5073ZM324.019 35.2553C324.019 38.5028 324.454 41.8068 325.55 45.0034L348.253 37.2196C348.173 36.9858 348.019 36.3857 348.019 35.2553H324.019ZM325.583 45.0997C326.767 48.4592 328.744 51.7327 331.815 54.3348L347.329 36.0232C347.663 36.306 347.9 36.5955 348.053 36.8283C348.2 37.0523 348.237 37.1747 348.219 37.1233L325.583 45.0997ZM331.953 54.4495C335.575 57.4268 339.845 58.6491 343.983 58.6491V34.6491C344.236 34.6491 344.73 34.6861 345.364 34.8974C346.017 35.115 346.649 35.462 347.192 35.9085L331.953 54.4495ZM369.245 54H357.245V66H369.245V54ZM369.245 16.3636V4.36364H357.245V16.3636H369.245ZM379.365 16.3636H391.365V4.36364H379.365V16.3636ZM379.365 22.9304H367.365V34.9304H379.365V22.9304ZM379.757 22.9304V34.9304H388.739L391.27 26.312L379.757 22.9304ZM383.212 17.6378L390.333 27.296L390.365 27.2728L390.396 27.2494L383.212 17.6378ZM390.489 15.9226L391.779 3.9921L391.779 3.9921L390.489 15.9226ZM392.082 16.1921H404.082V6.82276L394.992 4.55039L392.082 16.1921ZM392.082 25.4542L388.634 36.9481L404.082 41.5826V25.4542H392.082ZM383.555 25.8952L389.321 36.419L389.346 36.4054L389.37 36.3918L383.555 25.8952ZM380.712 28.6396L370.41 22.4867L370.378 22.5397L370.347 22.5931L380.712 28.6396ZM379.683 54V66H391.683V54H379.683ZM381.245 54V16.3636H357.245V54H381.245ZM369.245 28.3636H379.365V4.36364H369.245V28.3636ZM367.365 16.3636V22.9304H391.365V16.3636H367.365ZM379.365 34.9304H379.757V10.9304H379.365V34.9304ZM391.27 26.312C391.333 26.0982 391.339 26.176 391.184 26.4148C391.015 26.6731 390.733 27.0015 390.333 27.296L376.09 7.97956C371.946 11.0356 369.508 15.2438 368.243 19.5488L391.27 26.312ZM390.396 27.2494C390.185 27.4075 389.885 27.5753 389.526 27.6918C389.172 27.8064 388.907 27.8246 388.798 27.8246V3.82457C384.222 3.82457 379.814 5.19585 376.027 8.02615L390.396 27.2494ZM388.798 27.8246C388.828 27.8246 388.956 27.8268 389.199 27.8531L391.779 3.9921C390.813 3.88771 389.815 3.82457 388.798 3.82457V27.8246ZM389.199 27.8531C389.245 27.858 389.28 27.8624 389.303 27.8656C389.327 27.8689 389.339 27.8708 389.338 27.8707C389.338 27.8707 389.324 27.8683 389.297 27.8627C389.27 27.8572 389.228 27.8479 389.171 27.8338L394.992 4.55039C393.875 4.27115 392.782 4.10056 391.779 3.9921L389.199 27.8531ZM380.082 16.1921V25.4542H404.082V16.1921H380.082ZM395.53 13.9603C394.146 13.5451 392.744 13.3139 391.619 13.1655L388.477 36.9588C388.601 36.9753 388.702 36.9901 388.781 37.0026C388.86 37.0152 388.91 37.0243 388.934 37.029C388.959 37.0338 388.947 37.032 388.903 37.0215C388.861 37.0115 388.767 36.9883 388.634 36.9481L395.53 13.9603ZM391.619 13.1655C390.339 12.9964 389.013 12.8906 387.671 12.8906V36.8906C387.767 36.8906 388.026 36.8992 388.477 36.9588L391.619 13.1655ZM387.671 12.8906C384.332 12.8906 380.919 13.6367 377.739 15.3987L389.37 36.3918C389.02 36.5859 388.664 36.7195 388.336 36.7996C388.013 36.8783 387.779 36.8906 387.671 36.8906V12.8906ZM377.788 15.3715C374.707 17.06 372.2 19.4901 370.41 22.4867L391.015 34.7925C390.845 35.0776 390.604 35.3963 390.285 35.7042C389.966 36.0124 389.631 36.2492 389.321 36.419L377.788 15.3715ZM370.347 22.5931C368.459 25.8298 367.683 29.3239 367.683 32.707H391.683C391.683 32.8359 391.668 33.1089 391.574 33.4819C391.478 33.8628 391.316 34.278 391.078 34.686L370.347 22.5931ZM367.683 32.707V54H391.683V32.707H367.683ZM379.683 42H369.245V66H379.683V42Z" fill="#789CE1" mask="url(#path-1-outside-1_25_508)"/>
</svg>
