<svg width="569" height="148" viewBox="0 0 569 148" fill="none" xmlns="http://www.w3.org/2000/svg">
<mask id="path-1-outside-1_29_574" maskUnits="userSpaceOnUse" x="78" y="1" width="417" height="93" fill="black">
<rect fill="white" x="78" y="1" width="417" height="93"/>
<path d="M90.0485 67V16.8182H123.862V25.5657H100.658V37.5231H122.123V46.2706H100.658V58.2525H123.96V67H90.0485ZM142.54 45.2415V67H132.102V29.3636H142.05V36.0039H142.491C143.324 33.815 144.72 32.0834 146.681 30.8093C148.641 29.5188 151.018 28.8736 153.811 28.8736C156.425 28.8736 158.703 29.4453 160.647 30.5888C162.591 31.7322 164.102 33.3658 165.18 35.4893C166.258 37.5966 166.798 40.1122 166.798 43.0362V67H156.359V44.8984C156.376 42.5952 155.788 40.7983 154.595 39.5078C153.403 38.201 151.761 37.5476 149.67 37.5476C148.265 37.5476 147.024 37.8498 145.946 38.4542C144.884 39.0586 144.051 39.9407 143.446 41.1005C142.858 42.244 142.556 43.6243 142.54 45.2415ZM192.029 67.7351C188.174 67.7351 184.858 66.9183 182.081 65.2848C179.321 63.6349 177.197 61.348 175.71 58.424C174.24 55.5 173.505 52.1349 173.505 48.3288C173.505 44.4737 174.248 41.0923 175.735 38.1847C177.238 35.2607 179.37 32.9819 182.13 31.3484C184.891 29.6985 188.174 28.8736 191.98 28.8736C195.264 28.8736 198.139 29.4698 200.605 30.6623C203.072 31.8548 205.024 33.5291 206.462 35.6854C207.899 37.8416 208.691 40.3736 208.838 43.2812H198.988C198.71 41.4027 197.975 39.8917 196.783 38.7482C195.607 37.5884 194.063 37.0085 192.152 37.0085C190.535 37.0085 189.122 37.4496 187.913 38.3317C186.72 39.1974 185.789 40.4634 185.12 42.1296C184.45 43.7958 184.115 45.8132 184.115 48.1818C184.115 50.5831 184.442 52.625 185.095 54.3075C185.765 55.9901 186.704 57.2724 187.913 58.1545C189.122 59.0366 190.535 59.4776 192.152 59.4776C193.344 59.4776 194.414 59.2326 195.362 58.7425C196.326 58.2525 197.118 57.5419 197.739 56.6108C198.376 55.6634 198.792 54.5281 198.988 53.2049H208.838C208.675 56.0799 207.891 58.6119 206.486 60.8008C205.098 62.9734 203.178 64.6722 200.728 65.8974C198.278 67.1225 195.378 67.7351 192.029 67.7351ZM215.521 67V29.3636H225.641V35.9304H226.033C226.719 33.5945 227.871 31.8303 229.488 30.6378C231.105 29.429 232.967 28.8246 235.075 28.8246C235.597 28.8246 236.161 28.8572 236.765 28.9226C237.37 28.9879 237.901 29.0778 238.358 29.1921V38.4542C237.868 38.3072 237.19 38.1765 236.324 38.0621C235.459 37.9478 234.666 37.8906 233.948 37.8906C232.412 37.8906 231.04 38.2255 229.831 38.8952C228.639 39.5486 227.691 40.4634 226.989 41.6396C226.303 42.8157 225.96 44.1715 225.96 45.707V67H215.521ZM243.755 67V29.3636H254.193V67H243.755ZM248.998 24.5121C247.447 24.5121 246.115 23.9975 245.004 22.9684C243.91 21.9229 243.363 20.6733 243.363 19.2195C243.363 17.782 243.91 16.5486 245.004 15.5195C246.115 14.4741 247.447 13.9513 248.998 13.9513C250.55 13.9513 251.873 14.4741 252.968 15.5195C254.079 16.5486 254.634 17.782 254.634 19.2195C254.634 20.6733 254.079 21.9229 252.968 22.9684C251.873 23.9975 250.55 24.5121 248.998 24.5121ZM262.555 81.1136V29.3636H272.846V35.6854H273.311C273.769 34.6726 274.43 33.6435 275.296 32.598C276.178 31.5362 277.322 30.6541 278.727 29.9517C280.148 29.233 281.912 28.8736 284.019 28.8736C286.763 28.8736 289.295 29.5923 291.615 31.0298C293.935 32.451 295.789 34.5991 297.177 37.4741C298.566 40.3327 299.26 43.9183 299.26 48.2308C299.26 52.429 298.582 55.9737 297.226 58.8651C295.887 61.7401 294.057 63.9208 291.738 65.4073C289.434 66.8775 286.853 67.6126 283.995 67.6126C281.969 67.6126 280.246 67.2777 278.825 66.608C277.42 65.9382 276.268 65.0969 275.37 64.0842C274.471 63.055 273.785 62.0178 273.311 60.9723H272.993V81.1136H262.555ZM272.772 48.1818C272.772 50.4197 273.083 52.3718 273.703 54.038C274.324 55.7042 275.223 57.0028 276.399 57.9339C277.575 58.8487 279.004 59.3061 280.687 59.3061C282.386 59.3061 283.823 58.8406 284.999 57.9094C286.175 56.962 287.066 55.6552 287.67 53.989C288.291 52.3065 288.601 50.3707 288.601 48.1818C288.601 46.0092 288.299 44.098 287.695 42.4482C287.09 40.7983 286.2 39.5078 285.024 38.5767C283.848 37.6456 282.402 37.18 280.687 37.18C278.988 37.18 277.55 37.6293 276.374 38.5277C275.214 39.4261 274.324 40.7003 273.703 42.3501C273.083 44 272.772 45.9439 272.772 48.1818ZM326.238 29.3636V37.2045H303.572V29.3636H326.238ZM308.718 20.3466H319.156V55.4347C319.156 56.3984 319.303 57.1499 319.597 57.6889C319.891 58.2116 320.3 58.5792 320.822 58.7915C321.361 59.0039 321.982 59.1101 322.685 59.1101C323.175 59.1101 323.665 59.0692 324.155 58.9876C324.645 58.8896 325.021 58.8161 325.282 58.767L326.924 66.5344C326.401 66.6978 325.666 66.8857 324.718 67.098C323.771 67.3267 322.619 67.4656 321.263 67.5146C318.748 67.6126 316.543 67.2777 314.648 66.5099C312.769 65.7422 311.307 64.5497 310.262 62.9325C309.216 61.3153 308.702 59.2734 308.718 56.8068V20.3466ZM343.769 67.7106C341.368 67.7106 339.228 67.294 337.35 66.4609C335.471 65.6115 333.985 64.3619 332.89 62.712C331.812 61.0458 331.273 58.9712 331.273 56.4883C331.273 54.3974 331.657 52.6413 332.424 51.2202C333.192 49.799 334.238 48.6555 335.561 47.7898C336.884 46.924 338.387 46.2706 340.069 45.8295C341.768 45.3885 343.549 45.0781 345.411 44.8984C347.6 44.6697 349.364 44.4574 350.704 44.2614C352.043 44.049 353.015 43.7386 353.619 43.3303C354.224 42.9219 354.526 42.3175 354.526 41.517V41.37C354.526 39.8182 354.036 38.6175 353.056 37.7681C352.092 36.9187 350.72 36.494 348.939 36.494C347.061 36.494 345.566 36.9105 344.455 37.7436C343.345 38.5604 342.61 39.5895 342.25 40.831L332.596 40.0469C333.086 37.7599 334.05 35.7834 335.487 34.1172C336.925 32.4347 338.779 31.1442 341.049 30.2457C343.336 29.331 345.983 28.8736 348.988 28.8736C351.079 28.8736 353.08 29.1186 354.992 29.6087C356.919 30.0987 358.626 30.8583 360.113 31.8874C361.616 32.9165 362.8 34.2397 363.666 35.8569C364.531 37.4577 364.964 39.3771 364.964 41.6151V67H355.065V61.7809H354.771C354.167 62.957 353.358 63.9943 352.345 64.8928C351.333 65.7749 350.116 66.4691 348.694 66.9755C347.273 67.4656 345.632 67.7106 343.769 67.7106ZM346.759 60.5067C348.294 60.5067 349.65 60.2045 350.826 59.6001C352.002 58.9794 352.925 58.1463 353.595 57.1009C354.265 56.0554 354.6 54.8711 354.6 53.5479V49.554C354.273 49.7663 353.824 49.9624 353.252 50.142C352.697 50.3054 352.068 50.4606 351.365 50.6076C350.663 50.7383 349.96 50.8608 349.258 50.9751C348.556 51.0732 347.918 51.163 347.347 51.2447C346.122 51.4244 345.052 51.7102 344.137 52.1023C343.222 52.4943 342.511 53.0252 342.005 53.695C341.499 54.3484 341.246 55.1651 341.246 56.1452C341.246 57.5664 341.76 58.6527 342.789 59.4041C343.835 60.1392 345.158 60.5067 346.759 60.5067ZM386.931 67.6126C384.072 67.6126 381.483 66.8775 379.164 65.4073C376.86 63.9208 375.031 61.7401 373.675 58.8651C372.336 55.9737 371.666 52.429 371.666 48.2308C371.666 43.9183 372.36 40.3327 373.749 37.4741C375.137 34.5991 376.983 32.451 379.286 31.0298C381.606 29.5923 384.146 28.8736 386.907 28.8736C389.014 28.8736 390.77 29.233 392.175 29.9517C393.596 30.6541 394.739 31.5362 395.605 32.598C396.487 33.6435 397.157 34.6726 397.614 35.6854H397.933V16.8182H408.347V67H398.055V60.9723H397.614C397.124 62.0178 396.43 63.055 395.532 64.0842C394.649 65.0969 393.498 65.9382 392.077 66.608C390.672 67.2777 388.957 67.6126 386.931 67.6126ZM390.239 59.3061C391.921 59.3061 393.343 58.8487 394.502 57.9339C395.679 57.0028 396.577 55.7042 397.198 54.038C397.835 52.3718 398.153 50.4197 398.153 48.1818C398.153 45.9439 397.843 44 397.222 42.3501C396.602 40.7003 395.703 39.4261 394.527 38.5277C393.351 37.6293 391.921 37.18 390.239 37.18C388.524 37.18 387.078 37.6456 385.902 38.5767C384.726 39.5078 383.836 40.7983 383.231 42.4482C382.627 44.098 382.325 46.0092 382.325 48.1818C382.325 50.3707 382.627 52.3065 383.231 53.989C383.852 55.6552 384.742 56.962 385.902 57.9094C387.078 58.8406 388.524 59.3061 390.239 59.3061ZM433.934 67.7351C430.128 67.7351 426.836 66.9265 424.059 65.3093C421.298 63.6758 419.167 61.4052 417.664 58.4975C416.161 55.5735 415.409 52.1839 415.409 48.3288C415.409 44.4411 416.161 41.0433 417.664 38.1357C419.167 35.2116 421.298 32.941 424.059 31.3239C426.836 29.6903 430.128 28.8736 433.934 28.8736C437.74 28.8736 441.023 29.6903 443.784 31.3239C446.561 32.941 448.701 35.2116 450.204 38.1357C451.706 41.0433 452.458 44.4411 452.458 48.3288C452.458 52.1839 451.706 55.5735 450.204 58.4975C448.701 61.4052 446.561 63.6758 443.784 65.3093C441.023 66.9265 437.74 67.7351 433.934 67.7351ZM433.983 59.6491C435.714 59.6491 437.16 59.1591 438.32 58.179C439.479 57.1825 440.353 55.8267 440.941 54.1115C441.546 52.3963 441.848 50.4442 441.848 48.2553C441.848 46.0664 441.546 44.1143 440.941 42.3991C440.353 40.6839 439.479 39.3281 438.32 38.3317C437.16 37.3352 435.714 36.837 433.983 36.837C432.235 36.837 430.765 37.3352 429.572 38.3317C428.396 39.3281 427.506 40.6839 426.901 42.3991C426.313 44.1143 426.019 46.0664 426.019 48.2553C426.019 50.4442 426.313 52.3963 426.901 54.1115C427.506 55.8267 428.396 57.1825 429.572 58.179C430.765 59.1591 432.235 59.6491 433.983 59.6491ZM459.245 67V29.3636H469.365V35.9304H469.757C470.443 33.5945 471.595 31.8303 473.212 30.6378C474.829 29.429 476.691 28.8246 478.798 28.8246C479.321 28.8246 479.885 28.8572 480.489 28.9226C481.093 28.9879 481.624 29.0778 482.082 29.1921V38.4542C481.592 38.3072 480.914 38.1765 480.048 38.0621C479.182 37.9478 478.39 37.8906 477.671 37.8906C476.136 37.8906 474.764 38.2255 473.555 38.8952C472.362 39.5486 471.415 40.4634 470.712 41.6396C470.026 42.8157 469.683 44.1715 469.683 45.707V67H459.245Z"/>
</mask>
<path d="M90.0485 67V16.8182H123.862V25.5657H100.658V37.5231H122.123V46.2706H100.658V58.2525H123.96V67H90.0485ZM142.54 45.2415V67H132.102V29.3636H142.05V36.0039H142.491C143.324 33.815 144.72 32.0834 146.681 30.8093C148.641 29.5188 151.018 28.8736 153.811 28.8736C156.425 28.8736 158.703 29.4453 160.647 30.5888C162.591 31.7322 164.102 33.3658 165.18 35.4893C166.258 37.5966 166.798 40.1122 166.798 43.0362V67H156.359V44.8984C156.376 42.5952 155.788 40.7983 154.595 39.5078C153.403 38.201 151.761 37.5476 149.67 37.5476C148.265 37.5476 147.024 37.8498 145.946 38.4542C144.884 39.0586 144.051 39.9407 143.446 41.1005C142.858 42.244 142.556 43.6243 142.54 45.2415ZM192.029 67.7351C188.174 67.7351 184.858 66.9183 182.081 65.2848C179.321 63.6349 177.197 61.348 175.71 58.424C174.24 55.5 173.505 52.1349 173.505 48.3288C173.505 44.4737 174.248 41.0923 175.735 38.1847C177.238 35.2607 179.37 32.9819 182.13 31.3484C184.891 29.6985 188.174 28.8736 191.98 28.8736C195.264 28.8736 198.139 29.4698 200.605 30.6623C203.072 31.8548 205.024 33.5291 206.462 35.6854C207.899 37.8416 208.691 40.3736 208.838 43.2812H198.988C198.71 41.4027 197.975 39.8917 196.783 38.7482C195.607 37.5884 194.063 37.0085 192.152 37.0085C190.535 37.0085 189.122 37.4496 187.913 38.3317C186.72 39.1974 185.789 40.4634 185.12 42.1296C184.45 43.7958 184.115 45.8132 184.115 48.1818C184.115 50.5831 184.442 52.625 185.095 54.3075C185.765 55.9901 186.704 57.2724 187.913 58.1545C189.122 59.0366 190.535 59.4776 192.152 59.4776C193.344 59.4776 194.414 59.2326 195.362 58.7425C196.326 58.2525 197.118 57.5419 197.739 56.6108C198.376 55.6634 198.792 54.5281 198.988 53.2049H208.838C208.675 56.0799 207.891 58.6119 206.486 60.8008C205.098 62.9734 203.178 64.6722 200.728 65.8974C198.278 67.1225 195.378 67.7351 192.029 67.7351ZM215.521 67V29.3636H225.641V35.9304H226.033C226.719 33.5945 227.871 31.8303 229.488 30.6378C231.105 29.429 232.967 28.8246 235.075 28.8246C235.597 28.8246 236.161 28.8572 236.765 28.9226C237.37 28.9879 237.901 29.0778 238.358 29.1921V38.4542C237.868 38.3072 237.19 38.1765 236.324 38.0621C235.459 37.9478 234.666 37.8906 233.948 37.8906C232.412 37.8906 231.04 38.2255 229.831 38.8952C228.639 39.5486 227.691 40.4634 226.989 41.6396C226.303 42.8157 225.96 44.1715 225.96 45.707V67H215.521ZM243.755 67V29.3636H254.193V67H243.755ZM248.998 24.5121C247.447 24.5121 246.115 23.9975 245.004 22.9684C243.91 21.9229 243.363 20.6733 243.363 19.2195C243.363 17.782 243.91 16.5486 245.004 15.5195C246.115 14.4741 247.447 13.9513 248.998 13.9513C250.55 13.9513 251.873 14.4741 252.968 15.5195C254.079 16.5486 254.634 17.782 254.634 19.2195C254.634 20.6733 254.079 21.9229 252.968 22.9684C251.873 23.9975 250.55 24.5121 248.998 24.5121ZM262.555 81.1136V29.3636H272.846V35.6854H273.311C273.769 34.6726 274.43 33.6435 275.296 32.598C276.178 31.5362 277.322 30.6541 278.727 29.9517C280.148 29.233 281.912 28.8736 284.019 28.8736C286.763 28.8736 289.295 29.5923 291.615 31.0298C293.935 32.451 295.789 34.5991 297.177 37.4741C298.566 40.3327 299.26 43.9183 299.26 48.2308C299.26 52.429 298.582 55.9737 297.226 58.8651C295.887 61.7401 294.057 63.9208 291.738 65.4073C289.434 66.8775 286.853 67.6126 283.995 67.6126C281.969 67.6126 280.246 67.2777 278.825 66.608C277.42 65.9382 276.268 65.0969 275.37 64.0842C274.471 63.055 273.785 62.0178 273.311 60.9723H272.993V81.1136H262.555ZM272.772 48.1818C272.772 50.4197 273.083 52.3718 273.703 54.038C274.324 55.7042 275.223 57.0028 276.399 57.9339C277.575 58.8487 279.004 59.3061 280.687 59.3061C282.386 59.3061 283.823 58.8406 284.999 57.9094C286.175 56.962 287.066 55.6552 287.67 53.989C288.291 52.3065 288.601 50.3707 288.601 48.1818C288.601 46.0092 288.299 44.098 287.695 42.4482C287.09 40.7983 286.2 39.5078 285.024 38.5767C283.848 37.6456 282.402 37.18 280.687 37.18C278.988 37.18 277.55 37.6293 276.374 38.5277C275.214 39.4261 274.324 40.7003 273.703 42.3501C273.083 44 272.772 45.9439 272.772 48.1818ZM326.238 29.3636V37.2045H303.572V29.3636H326.238ZM308.718 20.3466H319.156V55.4347C319.156 56.3984 319.303 57.1499 319.597 57.6889C319.891 58.2116 320.3 58.5792 320.822 58.7915C321.361 59.0039 321.982 59.1101 322.685 59.1101C323.175 59.1101 323.665 59.0692 324.155 58.9876C324.645 58.8896 325.021 58.8161 325.282 58.767L326.924 66.5344C326.401 66.6978 325.666 66.8857 324.718 67.098C323.771 67.3267 322.619 67.4656 321.263 67.5146C318.748 67.6126 316.543 67.2777 314.648 66.5099C312.769 65.7422 311.307 64.5497 310.262 62.9325C309.216 61.3153 308.702 59.2734 308.718 56.8068V20.3466ZM343.769 67.7106C341.368 67.7106 339.228 67.294 337.35 66.4609C335.471 65.6115 333.985 64.3619 332.89 62.712C331.812 61.0458 331.273 58.9712 331.273 56.4883C331.273 54.3974 331.657 52.6413 332.424 51.2202C333.192 49.799 334.238 48.6555 335.561 47.7898C336.884 46.924 338.387 46.2706 340.069 45.8295C341.768 45.3885 343.549 45.0781 345.411 44.8984C347.6 44.6697 349.364 44.4574 350.704 44.2614C352.043 44.049 353.015 43.7386 353.619 43.3303C354.224 42.9219 354.526 42.3175 354.526 41.517V41.37C354.526 39.8182 354.036 38.6175 353.056 37.7681C352.092 36.9187 350.72 36.494 348.939 36.494C347.061 36.494 345.566 36.9105 344.455 37.7436C343.345 38.5604 342.61 39.5895 342.25 40.831L332.596 40.0469C333.086 37.7599 334.05 35.7834 335.487 34.1172C336.925 32.4347 338.779 31.1442 341.049 30.2457C343.336 29.331 345.983 28.8736 348.988 28.8736C351.079 28.8736 353.08 29.1186 354.992 29.6087C356.919 30.0987 358.626 30.8583 360.113 31.8874C361.616 32.9165 362.8 34.2397 363.666 35.8569C364.531 37.4577 364.964 39.3771 364.964 41.6151V67H355.065V61.7809H354.771C354.167 62.957 353.358 63.9943 352.345 64.8928C351.333 65.7749 350.116 66.4691 348.694 66.9755C347.273 67.4656 345.632 67.7106 343.769 67.7106ZM346.759 60.5067C348.294 60.5067 349.65 60.2045 350.826 59.6001C352.002 58.9794 352.925 58.1463 353.595 57.1009C354.265 56.0554 354.6 54.8711 354.6 53.5479V49.554C354.273 49.7663 353.824 49.9624 353.252 50.142C352.697 50.3054 352.068 50.4606 351.365 50.6076C350.663 50.7383 349.96 50.8608 349.258 50.9751C348.556 51.0732 347.918 51.163 347.347 51.2447C346.122 51.4244 345.052 51.7102 344.137 52.1023C343.222 52.4943 342.511 53.0252 342.005 53.695C341.499 54.3484 341.246 55.1651 341.246 56.1452C341.246 57.5664 341.76 58.6527 342.789 59.4041C343.835 60.1392 345.158 60.5067 346.759 60.5067ZM386.931 67.6126C384.072 67.6126 381.483 66.8775 379.164 65.4073C376.86 63.9208 375.031 61.7401 373.675 58.8651C372.336 55.9737 371.666 52.429 371.666 48.2308C371.666 43.9183 372.36 40.3327 373.749 37.4741C375.137 34.5991 376.983 32.451 379.286 31.0298C381.606 29.5923 384.146 28.8736 386.907 28.8736C389.014 28.8736 390.77 29.233 392.175 29.9517C393.596 30.6541 394.739 31.5362 395.605 32.598C396.487 33.6435 397.157 34.6726 397.614 35.6854H397.933V16.8182H408.347V67H398.055V60.9723H397.614C397.124 62.0178 396.43 63.055 395.532 64.0842C394.649 65.0969 393.498 65.9382 392.077 66.608C390.672 67.2777 388.957 67.6126 386.931 67.6126ZM390.239 59.3061C391.921 59.3061 393.343 58.8487 394.502 57.9339C395.679 57.0028 396.577 55.7042 397.198 54.038C397.835 52.3718 398.153 50.4197 398.153 48.1818C398.153 45.9439 397.843 44 397.222 42.3501C396.602 40.7003 395.703 39.4261 394.527 38.5277C393.351 37.6293 391.921 37.18 390.239 37.18C388.524 37.18 387.078 37.6456 385.902 38.5767C384.726 39.5078 383.836 40.7983 383.231 42.4482C382.627 44.098 382.325 46.0092 382.325 48.1818C382.325 50.3707 382.627 52.3065 383.231 53.989C383.852 55.6552 384.742 56.962 385.902 57.9094C387.078 58.8406 388.524 59.3061 390.239 59.3061ZM433.934 67.7351C430.128 67.7351 426.836 66.9265 424.059 65.3093C421.298 63.6758 419.167 61.4052 417.664 58.4975C416.161 55.5735 415.409 52.1839 415.409 48.3288C415.409 44.4411 416.161 41.0433 417.664 38.1357C419.167 35.2116 421.298 32.941 424.059 31.3239C426.836 29.6903 430.128 28.8736 433.934 28.8736C437.74 28.8736 441.023 29.6903 443.784 31.3239C446.561 32.941 448.701 35.2116 450.204 38.1357C451.706 41.0433 452.458 44.4411 452.458 48.3288C452.458 52.1839 451.706 55.5735 450.204 58.4975C448.701 61.4052 446.561 63.6758 443.784 65.3093C441.023 66.9265 437.74 67.7351 433.934 67.7351ZM433.983 59.6491C435.714 59.6491 437.16 59.1591 438.32 58.179C439.479 57.1825 440.353 55.8267 440.941 54.1115C441.546 52.3963 441.848 50.4442 441.848 48.2553C441.848 46.0664 441.546 44.1143 440.941 42.3991C440.353 40.6839 439.479 39.3281 438.32 38.3317C437.16 37.3352 435.714 36.837 433.983 36.837C432.235 36.837 430.765 37.3352 429.572 38.3317C428.396 39.3281 427.506 40.6839 426.901 42.3991C426.313 44.1143 426.019 46.0664 426.019 48.2553C426.019 50.4442 426.313 52.3963 426.901 54.1115C427.506 55.8267 428.396 57.1825 429.572 58.179C430.765 59.1591 432.235 59.6491 433.983 59.6491ZM459.245 67V29.3636H469.365V35.9304H469.757C470.443 33.5945 471.595 31.8303 473.212 30.6378C474.829 29.429 476.691 28.8246 478.798 28.8246C479.321 28.8246 479.885 28.8572 480.489 28.9226C481.093 28.9879 481.624 29.0778 482.082 29.1921V38.4542C481.592 38.3072 480.914 38.1765 480.048 38.0621C479.182 37.9478 478.39 37.8906 477.671 37.8906C476.136 37.8906 474.764 38.2255 473.555 38.8952C472.362 39.5486 471.415 40.4634 470.712 41.6396C470.026 42.8157 469.683 44.1715 469.683 45.707V67H459.245Z" fill="white"/>
<path d="M90.0485 67H78.0485V79H90.0485V67ZM90.0485 16.8182V4.81818H78.0485V16.8182H90.0485ZM123.862 16.8182H135.862V4.81818H123.862V16.8182ZM123.862 25.5657V37.5657H135.862V25.5657H123.862ZM100.658 25.5657V13.5657H88.6582V25.5657H100.658ZM100.658 37.5231H88.6582V49.5231H100.658V37.5231ZM122.123 37.5231H134.123V25.5231H122.123V37.5231ZM122.123 46.2706V58.2706H134.123V46.2706H122.123ZM100.658 46.2706V34.2706H88.6582V46.2706H100.658ZM100.658 58.2525H88.6582V70.2525H100.658V58.2525ZM123.96 58.2525H135.96V46.2525H123.96V58.2525ZM123.96 67V79H135.96V67H123.96ZM102.049 67V16.8182H78.0485V67H102.049ZM90.0485 28.8182H123.862V4.81818H90.0485V28.8182ZM111.862 16.8182V25.5657H135.862V16.8182H111.862ZM123.862 13.5657H100.658V37.5657H123.862V13.5657ZM88.6582 25.5657V37.5231H112.658V25.5657H88.6582ZM100.658 49.5231H122.123V25.5231H100.658V49.5231ZM110.123 37.5231V46.2706H134.123V37.5231H110.123ZM122.123 34.2706H100.658V58.2706H122.123V34.2706ZM88.6582 46.2706V58.2525H112.658V46.2706H88.6582ZM100.658 70.2525H123.96V46.2525H100.658V70.2525ZM111.96 58.2525V67H135.96V58.2525H111.96ZM123.96 55H90.0485V79H123.96V55ZM142.54 45.2415L130.54 45.1203L130.54 45.1809V45.2415H142.54ZM142.54 67V79H154.54V67H142.54ZM132.102 67H120.102V79H132.102V67ZM132.102 29.3636V17.3636H120.102V29.3636H132.102ZM142.05 29.3636H154.05V17.3636H142.05V29.3636ZM142.05 36.0039H130.05V48.0039H142.05V36.0039ZM142.491 36.0039V48.0039H150.763L153.706 40.2724L142.491 36.0039ZM146.681 30.8093L153.221 40.8706L153.25 40.8515L153.279 40.8323L146.681 30.8093ZM165.18 35.4893L154.48 40.9217L154.489 40.9384L154.497 40.9551L165.18 35.4893ZM166.798 67V79H178.798V67H166.798ZM156.359 67H144.359V79H156.359V67ZM156.359 44.8984L144.36 44.8133L144.359 44.8559V44.8984H156.359ZM154.595 39.5078L145.731 47.5964L145.756 47.6242L145.782 47.6518L154.595 39.5078ZM145.946 38.4542L140.078 27.9868L140.043 28.006L140.009 28.0254L145.946 38.4542ZM143.446 41.1005L132.805 35.5548L132.79 35.5835L132.775 35.6123L143.446 41.1005ZM130.54 45.2415V67H154.54V45.2415H130.54ZM142.54 55H132.102V79H142.54V55ZM144.102 67V29.3636H120.102V67H144.102ZM132.102 41.3636H142.05V17.3636H132.102V41.3636ZM130.05 29.3636V36.0039H154.05V29.3636H130.05ZM142.05 48.0039H142.491V24.0039H142.05V48.0039ZM153.706 40.2724C153.697 40.2956 153.639 40.4293 153.503 40.5975C153.368 40.7658 153.247 40.8535 153.221 40.8706L140.141 20.748C136.043 23.4113 133.012 27.1733 131.276 31.7354L153.706 40.2724ZM153.279 40.8323C153.22 40.8713 153.164 40.9007 153.12 40.9205C153.076 40.94 153.059 40.9434 153.077 40.9383C153.114 40.9283 153.337 40.8736 153.811 40.8736V16.8736C149.126 16.8736 144.349 17.9776 140.082 20.7863L153.279 40.8323ZM153.811 40.8736C154.242 40.8736 154.476 40.9205 154.56 40.9416C154.635 40.9604 154.619 40.9649 154.563 40.932L166.732 20.2456C162.668 17.855 158.22 16.8736 153.811 16.8736V40.8736ZM154.563 40.932C154.557 40.9282 154.535 40.915 154.506 40.8914C154.477 40.8678 154.45 40.8426 154.429 40.82C154.409 40.7977 154.403 40.7877 154.41 40.7978C154.417 40.8085 154.442 40.8467 154.48 40.9217L175.88 30.057C173.825 26.0093 170.765 22.6179 166.732 20.2456L154.563 40.932ZM154.497 40.9551C154.53 41.0184 154.798 41.5734 154.798 43.0362H178.798C178.798 38.651 177.987 34.1748 175.863 30.0236L154.497 40.9551ZM154.798 43.0362V67H178.798V43.0362H154.798ZM166.798 55H156.359V79H166.798V55ZM168.359 67V44.8984H144.359V67H168.359ZM168.359 44.9835C168.39 40.6074 167.248 35.5191 163.408 31.3638L145.782 47.6518C145.12 46.9356 144.727 46.1704 144.526 45.5558C144.34 44.9871 144.361 44.6851 144.36 44.8133L168.359 44.9835ZM163.459 31.4192C159.578 27.1656 154.464 25.5476 149.67 25.5476V49.5476C149.469 49.5476 148.856 49.5152 148.032 49.187C147.162 48.8409 146.358 48.2835 145.731 47.5964L163.459 31.4192ZM149.67 25.5476C146.495 25.5476 143.181 26.2468 140.078 27.9868L151.814 48.9216C150.866 49.4528 150.035 49.5476 149.67 49.5476V25.5476ZM140.009 28.0254C136.799 29.8526 134.397 32.4996 132.805 35.5548L154.088 46.6462C153.918 46.9723 153.649 47.3844 153.249 47.8086C152.844 48.2373 152.376 48.6016 151.882 48.883L140.009 28.0254ZM132.775 35.6123C131.141 38.7895 130.571 42.1047 130.54 45.1203L154.539 45.3627C154.541 45.1439 154.576 45.6984 154.118 46.5887L132.775 35.6123ZM182.081 65.2848L175.925 75.5855L175.961 75.6069L175.997 75.628L182.081 65.2848ZM175.71 58.424L164.989 63.8145L165.001 63.8384L165.013 63.8622L175.71 58.424ZM175.735 38.1847L165.062 32.6992L165.056 32.7107L165.05 32.7223L175.735 38.1847ZM182.13 31.3484L188.241 41.6758L188.264 41.6625L188.286 41.649L182.13 31.3484ZM200.605 30.6623L205.828 19.8586L205.828 19.8586L200.605 30.6623ZM208.838 43.2812V55.2812H221.46L220.823 42.6753L208.838 43.2812ZM198.988 43.2812L187.117 45.0361L188.632 55.2812H198.988V43.2812ZM196.783 38.7482L188.357 47.2926L188.417 47.3515L188.477 47.4096L196.783 38.7482ZM187.913 38.3317L194.963 48.0423L194.975 48.0337L194.986 48.0252L187.913 38.3317ZM185.095 54.3075L173.909 58.6516L173.927 58.6987L173.946 58.7455L185.095 54.3075ZM187.913 58.1545L194.986 48.461L194.986 48.461L187.913 58.1545ZM195.362 58.7425L189.923 48.0459L189.886 48.0648L189.849 48.0839L195.362 58.7425ZM197.739 56.6108L187.78 49.9148L187.767 49.9346L187.754 49.9544L197.739 56.6108ZM198.988 53.2049V41.2049H188.635L187.118 51.4463L198.988 53.2049ZM208.838 53.2049L220.819 53.8856L221.539 41.2049H208.838V53.2049ZM206.486 60.8008L196.387 54.3193L196.381 54.329L196.375 54.3386L206.486 60.8008ZM200.728 65.8974L195.361 55.1642L195.361 55.1642L200.728 65.8974ZM192.029 55.7351C189.892 55.7351 188.766 55.2947 188.165 54.9416L175.997 75.628C180.951 78.542 186.457 79.7351 192.029 79.7351V55.7351ZM188.237 54.9841C187.459 54.5189 186.89 53.9359 186.407 52.9858L165.013 63.8622C167.503 68.7601 171.182 72.751 175.925 75.5855L188.237 54.9841ZM186.432 53.0335C185.929 52.0346 185.505 50.5679 185.505 48.3288H161.505C161.505 53.702 162.551 58.9654 164.989 63.8145L186.432 53.0335ZM185.505 48.3288C185.505 46.0314 185.941 44.5837 186.42 43.647L165.05 32.7223C162.556 37.601 161.505 42.9161 161.505 48.3288H185.505ZM186.408 43.6701C186.904 42.7049 187.478 42.1276 188.241 41.6758L176.019 21.0209C171.262 23.8361 167.572 27.8164 165.062 32.6992L186.408 43.6701ZM188.286 41.649C188.87 41.3004 189.941 40.8736 191.98 40.8736V16.8736C186.407 16.8736 180.912 18.0966 175.974 21.0477L188.286 41.649ZM191.98 40.8736C193.809 40.8736 194.836 41.2019 195.382 41.466L205.828 19.8586C201.441 17.7378 196.718 16.8736 191.98 16.8736V40.8736ZM195.382 41.466C196.035 41.7814 196.297 42.0714 196.477 42.3418L216.446 29.029C213.751 24.9868 210.109 21.9281 205.828 19.8586L195.382 41.466ZM196.477 42.3418C196.572 42.4837 196.802 42.8667 196.854 43.8872L220.823 42.6753C220.581 37.8804 219.226 33.1995 216.446 29.029L196.477 42.3418ZM208.838 31.2812H198.988V55.2812H208.838V31.2812ZM210.859 41.5264C210.253 37.4257 208.483 33.3419 205.088 30.0868L188.477 47.4096C188.032 46.9829 187.68 46.4862 187.438 45.9887C187.204 45.5084 187.135 45.1546 187.117 45.0361L210.859 41.5264ZM205.209 30.2038C201.433 26.4805 196.682 25.0085 192.152 25.0085V49.0085C191.892 49.0085 191.297 48.9675 190.523 48.677C189.717 48.3742 188.965 47.8919 188.357 47.2926L205.209 30.2038ZM192.152 25.0085C188.209 25.0085 184.271 26.1342 180.839 28.6382L194.986 48.0252C194.541 48.3502 194.017 48.6188 193.455 48.7942C192.902 48.9668 192.444 49.0085 192.152 49.0085V25.0085ZM180.863 28.6211C177.48 31.0768 175.312 34.3531 173.985 37.6541L196.254 46.6051C196.266 46.5737 195.96 47.3181 194.963 48.0423L180.863 28.6211ZM173.985 37.6541C172.593 41.1177 172.115 44.7431 172.115 48.1818H196.115C196.115 46.8833 196.306 46.4739 196.254 46.6051L173.985 37.6541ZM172.115 48.1818C172.115 51.6062 172.572 55.2096 173.909 58.6516L196.281 49.9634C196.311 50.0404 196.115 49.56 196.115 48.1818H172.115ZM173.946 58.7455C175.275 62.0846 177.453 65.3767 180.839 67.848L194.986 48.461C195.955 49.168 196.255 49.8955 196.244 49.8695L173.946 58.7455ZM180.839 67.848C184.271 70.3519 188.209 71.4776 192.152 71.4776V47.4776C192.444 47.4776 192.902 47.5194 193.455 47.6919C194.017 47.8673 194.541 48.1359 194.986 48.461L180.839 67.848ZM192.152 71.4776C195.034 71.4776 198.031 70.8722 200.875 69.4012L189.849 48.0839C190.798 47.593 191.655 47.4776 192.152 47.4776V71.4776ZM200.801 69.4392C203.667 67.9816 206.001 65.8505 207.723 63.2672L187.754 49.9544C188.235 49.2333 188.984 48.5234 189.923 48.0459L200.801 69.4392ZM207.697 63.3068C209.488 60.6428 210.445 57.7529 210.859 54.9635L187.118 51.4463C187.139 51.3032 187.263 50.6839 187.78 49.9148L207.697 63.3068ZM198.988 65.2049H208.838V41.2049H198.988V65.2049ZM196.858 52.5242C196.799 53.5621 196.559 54.0509 196.387 54.3193L216.585 67.2822C219.222 63.1728 220.551 58.5977 220.819 53.8856L196.858 52.5242ZM196.375 54.3386C196.227 54.5701 195.999 54.8452 195.361 55.1642L206.094 76.6305C210.357 74.4992 213.968 71.3766 216.597 67.263L196.375 54.3386ZM195.361 55.1642C194.907 55.3913 193.923 55.7351 192.029 55.7351V79.7351C196.833 79.7351 201.648 78.8537 206.094 76.6305L195.361 55.1642ZM215.521 67H203.521V79H215.521V67ZM215.521 29.3636V17.3636H203.521V29.3636H215.521ZM225.641 29.3636H237.641V17.3636H225.641V29.3636ZM225.641 35.9304H213.641V47.9304H225.641V35.9304ZM226.033 35.9304V47.9304H235.016L237.547 39.312L226.033 35.9304ZM229.488 30.6378L236.61 40.296L236.641 40.2728L236.673 40.2494L229.488 30.6378ZM236.765 28.9226L238.055 16.9921L238.055 16.9921L236.765 28.9226ZM238.358 29.1921H250.358V19.8228L241.268 17.5504L238.358 29.1921ZM238.358 38.4542L234.91 49.9481L250.358 54.5826V38.4542H238.358ZM229.831 38.8952L235.598 49.419L235.622 49.4054L235.647 49.3918L229.831 38.8952ZM226.989 41.6396L216.686 35.4867L216.655 35.5397L216.623 35.5931L226.989 41.6396ZM225.96 67V79H237.96V67H225.96ZM227.521 67V29.3636H203.521V67H227.521ZM215.521 41.3636H225.641V17.3636H215.521V41.3636ZM213.641 29.3636V35.9304H237.641V29.3636H213.641ZM225.641 47.9304H226.033V23.9304H225.641V47.9304ZM237.547 39.312C237.61 39.0982 237.616 39.176 237.46 39.4148C237.291 39.6731 237.009 40.0015 236.61 40.296L222.366 20.9796C218.222 24.0356 215.784 28.2438 214.519 32.5488L237.547 39.312ZM236.673 40.2494C236.461 40.4075 236.161 40.5753 235.802 40.6918C235.449 40.8064 235.183 40.8246 235.075 40.8246V16.8246C230.499 16.8246 226.09 18.1958 222.304 21.0262L236.673 40.2494ZM235.075 40.8246C235.104 40.8246 235.232 40.8268 235.476 40.8531L238.055 16.9921C237.09 16.8877 236.091 16.8246 235.075 16.8246V40.8246ZM235.476 40.8531C235.521 40.858 235.556 40.8624 235.58 40.8656C235.604 40.8689 235.615 40.8708 235.615 40.8707C235.614 40.8707 235.6 40.8683 235.573 40.8627C235.546 40.8572 235.504 40.8479 235.448 40.8338L241.268 17.5504C240.151 17.2711 239.058 17.1006 238.055 16.9921L235.476 40.8531ZM226.358 29.1921V38.4542H250.358V29.1921H226.358ZM241.806 26.9603C240.422 26.5451 239.02 26.3139 237.896 26.1655L234.753 49.9588C234.878 49.9753 234.979 49.9901 235.057 50.0026C235.136 50.0152 235.186 50.0243 235.211 50.029C235.236 50.0338 235.223 50.032 235.18 50.0215C235.137 50.0115 235.044 49.9883 234.91 49.9481L241.806 26.9603ZM237.896 26.1655C236.615 25.9964 235.289 25.8906 233.948 25.8906V49.8906C234.044 49.8906 234.302 49.8992 234.753 49.9588L237.896 26.1655ZM233.948 25.8906C230.608 25.8906 227.195 26.6367 224.015 28.3987L235.647 49.3918C235.297 49.5859 234.94 49.7195 234.612 49.7996C234.29 49.8783 234.056 49.8906 233.948 49.8906V25.8906ZM224.065 28.3715C220.983 30.06 218.476 32.4901 216.686 35.4867L237.291 47.7925C237.121 48.0776 236.88 48.3963 236.561 48.7042C236.242 49.0124 235.907 49.2492 235.598 49.419L224.065 28.3715ZM216.623 35.5931C214.735 38.8298 213.96 42.3239 213.96 45.707H237.96C237.96 45.8359 237.945 46.1089 237.85 46.4819C237.754 46.8628 237.592 47.278 237.354 47.686L216.623 35.5931ZM213.96 45.707V67H237.96V45.707H213.96ZM225.96 55H215.521V79H225.96V55ZM243.755 67H231.755V79H243.755V67ZM243.755 29.3636V17.3636H231.755V29.3636H243.755ZM254.193 29.3636H266.193V17.3636H254.193V29.3636ZM254.193 67V79H266.193V67H254.193ZM245.004 22.9684L236.716 31.6457L236.782 31.7089L236.849 31.7711L245.004 22.9684ZM245.004 15.5195L253.225 24.2618L253.229 24.2579L245.004 15.5195ZM252.968 15.5195L244.679 24.1968L244.745 24.2601L244.812 24.3223L252.968 15.5195ZM252.968 22.9684L261.188 31.7106L261.192 31.7068L252.968 22.9684ZM255.755 67V29.3636H231.755V67H255.755ZM243.755 41.3636H254.193V17.3636H243.755V41.3636ZM242.193 29.3636V67H266.193V29.3636H242.193ZM254.193 55H243.755V79H254.193V55ZM248.998 12.5121C249.572 12.5121 250.332 12.6122 251.162 12.9331C251.997 13.2559 252.67 13.712 253.16 14.1657L236.849 31.7711C240.239 34.9114 244.505 36.5121 248.998 36.5121V12.5121ZM253.293 14.2911C253.768 14.7445 254.336 15.4529 254.765 16.4335C255.199 17.4245 255.363 18.4 255.363 19.2195H231.363C231.363 24.0995 233.36 28.4406 236.716 31.6457L253.293 14.2911ZM255.363 19.2195C255.363 20.0658 255.192 21.0688 254.742 22.0833C254.297 23.086 253.71 23.8051 253.225 24.2618L236.784 6.7773C233.4 9.95927 231.363 14.307 231.363 19.2195H255.363ZM253.229 24.2579C252.746 24.7123 252.071 25.1796 251.222 25.5132C250.376 25.8454 249.595 25.9513 248.998 25.9513V1.95135C244.449 1.95135 240.159 3.60061 236.78 6.78114L253.229 24.2579ZM248.998 25.9513C248.403 25.9513 247.61 25.8457 246.746 25.504C245.875 25.1602 245.18 24.6754 244.679 24.1968L261.257 6.84221C257.868 3.60486 253.551 1.95135 248.998 1.95135V25.9513ZM244.812 24.3223C244.33 23.8752 243.733 23.1579 243.276 22.1437C242.813 21.1153 242.634 20.091 242.634 19.2195H266.634C266.634 14.2447 264.538 9.8804 261.123 6.71679L244.812 24.3223ZM242.634 19.2195C242.634 18.3752 242.805 17.3785 243.252 16.3734C243.693 15.3811 244.272 14.6742 244.744 14.23L261.192 31.7068C264.579 28.5191 266.634 24.1608 266.634 19.2195H242.634ZM244.748 14.2262C245.256 13.7482 245.95 13.2749 246.805 12.9421C247.654 12.612 248.425 12.5121 248.998 12.5121V36.5121C253.494 36.5121 257.788 34.9076 261.188 31.7106L244.748 14.2262ZM262.555 81.1136H250.555V93.1136H262.555V81.1136ZM262.555 29.3636V17.3636H250.555V29.3636H262.555ZM272.846 29.3636H284.846V17.3636H272.846V29.3636ZM272.846 35.6854H260.846V47.6854H272.846V35.6854ZM273.311 35.6854V47.6854H281.059L284.248 40.6244L273.311 35.6854ZM275.296 32.598L266.066 24.9298L266.06 24.937L266.054 24.9442L275.296 32.598ZM278.727 29.9517L284.093 40.6848L284.118 40.6725L284.142 40.6601L278.727 29.9517ZM291.615 31.0298L285.294 41.2299L285.32 41.2461L285.346 41.2621L291.615 31.0298ZM297.177 37.4741L286.371 42.6928L286.377 42.7049L286.383 42.7169L297.177 37.4741ZM297.226 58.8651L286.361 53.7703L286.355 53.7837L286.349 53.7972L297.226 58.8651ZM291.738 65.4073L298.194 75.5224L298.203 75.5165L298.212 75.5107L291.738 65.4073ZM278.825 66.608L273.66 77.44L273.685 77.4515L273.709 77.4629L278.825 66.608ZM275.37 64.0842L266.33 71.9761L266.361 72.0119L266.393 72.0475L275.37 64.0842ZM273.311 60.9723L284.242 56.0195L281.048 48.9723H273.311V60.9723ZM272.993 60.9723V48.9723H260.993V60.9723H272.993ZM272.993 81.1136V93.1136H284.993V81.1136H272.993ZM276.399 57.9339L268.95 67.3425L268.991 67.3745L269.031 67.4062L276.399 57.9339ZM284.999 57.9094L292.448 67.318L292.488 67.2864L292.527 67.2545L284.999 57.9094ZM287.67 53.989L276.412 49.8355L276.4 49.8662L276.389 49.897L287.67 53.989ZM287.695 42.4482L298.962 38.3204L298.962 38.3204L287.695 42.4482ZM285.024 38.5767L292.472 29.1682L292.472 29.1682L285.024 38.5767ZM276.374 38.5277L269.09 28.9916L269.058 29.0163L269.025 29.0411L276.374 38.5277ZM273.703 42.3501L262.472 38.1245L262.472 38.1245L273.703 42.3501ZM274.555 81.1136V29.3636H250.555V81.1136H274.555ZM262.555 41.3636H272.846V17.3636H262.555V41.3636ZM260.846 29.3636V35.6854H284.846V29.3636H260.846ZM272.846 47.6854H273.311V23.6854H272.846V47.6854ZM284.248 40.6244C284.18 40.7756 284.211 40.6471 284.538 40.2518L266.054 24.9442C264.65 26.6398 263.358 28.5696 262.375 30.7463L284.248 40.6244ZM284.526 40.2662C284.378 40.4451 284.24 40.5681 284.145 40.6415C284.053 40.7125 284.023 40.7196 284.093 40.6848L273.36 19.2186C270.673 20.5619 268.147 22.4251 266.066 24.9298L284.526 40.2662ZM284.142 40.6601C283.782 40.8421 283.544 40.8949 283.511 40.9016C283.485 40.9069 283.638 40.8736 284.019 40.8736V16.8736C280.614 16.8736 276.864 17.4464 273.311 19.2433L284.142 40.6601ZM284.019 40.8736C284.543 40.8736 284.884 40.976 285.294 41.2299L297.936 20.8297C293.707 18.2087 288.984 16.8736 284.019 16.8736V40.8736ZM285.346 41.2621C285.384 41.2853 285.806 41.5231 286.371 42.6928L307.983 32.2554C305.771 27.6751 302.485 23.6167 297.884 20.7976L285.346 41.2621ZM286.383 42.7169C286.747 43.4665 287.26 45.1198 287.26 48.2308H311.26C311.26 42.7168 310.384 37.1989 307.971 32.2312L286.383 42.7169ZM287.26 48.2308C287.26 51.198 286.773 52.8921 286.361 53.7703L308.091 63.9598C310.391 59.0553 311.26 53.66 311.26 48.2308H287.26ZM286.349 53.7972C285.821 54.9292 285.391 55.2217 285.263 55.3039L298.212 75.5107C302.723 72.62 305.952 68.5509 308.104 63.9329L286.349 53.7972ZM285.281 55.2922C284.998 55.4731 284.677 55.6126 283.995 55.6126V79.6126C289.03 79.6126 293.871 78.2819 298.194 75.5224L285.281 55.2922ZM283.995 55.6126C283.818 55.6126 283.688 55.6052 283.6 55.5974C283.512 55.5895 283.471 55.5816 283.472 55.5817C283.474 55.5822 283.652 55.6173 283.94 55.753L273.709 77.4629C277.123 79.0718 280.693 79.6126 283.995 79.6126V55.6126ZM283.989 55.776C283.898 55.7328 283.909 55.7284 283.986 55.7847C284.066 55.8432 284.197 55.9522 284.347 56.1208L266.393 72.0475C268.505 74.4285 271.021 76.1815 273.66 77.44L283.989 55.776ZM284.409 56.1923C284.139 55.8829 284.15 55.8182 284.242 56.0195L262.381 65.9251C263.42 68.2173 264.803 70.2272 266.33 71.9761L284.409 56.1923ZM273.311 48.9723H272.993V72.9723H273.311V48.9723ZM260.993 60.9723V81.1136H284.993V60.9723H260.993ZM272.993 69.1136H262.555V93.1136H272.993V69.1136ZM260.772 48.1818C260.772 51.4954 261.228 54.9245 262.458 58.2273L284.948 49.8487C284.937 49.8191 284.772 49.3441 284.772 48.1818H260.772ZM262.458 58.2273C263.701 61.5632 265.761 64.8173 268.95 67.3425L283.847 48.5254C284.237 48.8339 284.522 49.1599 284.711 49.4343C284.895 49.6991 284.954 49.8639 284.948 49.8487L262.458 58.2273ZM269.031 67.4062C272.584 70.1689 276.699 71.3061 280.687 71.3061V47.3061C280.938 47.3061 281.409 47.3416 282.01 47.534C282.628 47.7316 283.234 48.0477 283.766 48.4617L269.031 67.4062ZM280.687 71.3061C284.712 71.3061 288.873 70.1476 292.448 67.318L277.551 48.5009C278.092 48.0726 278.711 47.7451 279.342 47.5407C279.956 47.3419 280.435 47.3061 280.687 47.3061V71.3061ZM292.527 67.2545C295.688 64.7086 297.73 61.446 298.951 58.081L276.389 49.897C276.388 49.9003 276.45 49.7296 276.632 49.4626C276.82 49.1862 277.097 48.8655 277.471 48.5644L292.527 67.2545ZM298.928 58.1425C300.134 54.8732 300.601 51.4856 300.601 48.1818H276.601C276.601 49.2558 276.447 49.7398 276.412 49.8355L298.928 58.1425ZM300.601 48.1818C300.601 44.9219 300.15 41.5636 298.962 38.3204L276.427 46.5759C276.448 46.6325 276.601 47.0966 276.601 48.1818H300.601ZM298.962 38.3204C297.729 34.9528 295.663 31.6941 292.472 29.1682L277.575 47.9852C277.188 47.6786 276.897 47.348 276.696 47.0572C276.502 46.7758 276.432 46.5889 276.427 46.5759L298.962 38.3204ZM292.472 29.1682C288.877 26.3222 284.698 25.18 280.687 25.18V49.18C280.455 49.18 279.987 49.1474 279.379 48.9515C278.752 48.7497 278.128 48.4224 277.575 47.9853L292.472 29.1682ZM280.687 25.18C276.762 25.18 272.66 26.2646 269.09 28.9916L283.659 48.0638C283.113 48.4803 282.509 48.7848 281.914 48.9707C281.336 49.1512 280.898 49.18 280.687 49.18V25.18ZM269.025 29.0411C265.784 31.5518 263.716 34.8172 262.472 38.1245L284.935 46.5758C284.939 46.5652 284.872 46.7454 284.673 47.0302C284.467 47.3256 284.155 47.6798 283.723 48.0143L269.025 29.0411ZM262.472 38.1245C261.227 41.4344 260.772 44.8727 260.772 48.1818H284.772C284.772 47.0151 284.939 46.5656 284.935 46.5758L262.472 38.1245ZM326.238 29.3636H338.238V17.3636H326.238V29.3636ZM326.238 37.2045V49.2045H338.238V37.2045H326.238ZM303.572 37.2045H291.572V49.2045H303.572V37.2045ZM303.572 29.3636V17.3636H291.572V29.3636H303.572ZM308.718 20.3466V8.34659H296.718V20.3466H308.718ZM319.156 20.3466H331.156V8.34659H319.156V20.3466ZM319.597 57.6889L309.063 63.4351L309.1 63.5038L309.138 63.572L319.597 57.6889ZM320.822 58.7915L316.306 69.9091L316.365 69.9331L316.424 69.9564L320.822 58.7915ZM324.155 58.9876L326.128 70.8243L326.318 70.7925L326.508 70.7545L324.155 58.9876ZM325.282 58.767L337.023 56.2856L334.597 44.8113L323.07 46.9726L325.282 58.767ZM326.924 66.5344L330.503 77.9882L340.921 74.7324L338.664 64.053L326.924 66.5344ZM324.718 67.098L322.094 55.3885L321.998 55.41L321.903 55.433L324.718 67.098ZM321.263 67.5146L320.83 55.5224L320.813 55.523L320.796 55.5237L321.263 67.5146ZM314.648 66.5099L310.108 77.618L310.125 77.6249L310.141 77.6317L314.648 66.5099ZM310.262 62.9325L320.339 56.4177L320.339 56.4177L310.262 62.9325ZM308.718 56.8068L320.718 56.8863L320.718 56.8466V56.8068H308.718ZM314.238 29.3636V37.2045H338.238V29.3636H314.238ZM326.238 25.2045H303.572V49.2045H326.238V25.2045ZM315.572 37.2045V29.3636H291.572V37.2045H315.572ZM303.572 41.3636H326.238V17.3636H303.572V41.3636ZM308.718 32.3466H319.156V8.34659H308.718V32.3466ZM307.156 20.3466V55.4347H331.156V20.3466H307.156ZM307.156 55.4347C307.156 57.3713 307.41 60.406 309.063 63.4351L330.132 51.9427C330.697 52.978 330.937 53.8727 331.043 54.4169C331.15 54.9653 331.156 55.3318 331.156 55.4347H307.156ZM309.138 63.572C310.674 66.3017 313.102 68.6076 316.306 69.9091L325.339 47.6739C327.497 48.5508 329.109 50.1216 330.056 51.8058L309.138 63.572ZM316.424 69.9564C318.627 70.8242 320.788 71.1101 322.685 71.1101V47.1101C323.177 47.1101 324.096 47.1837 325.221 47.6266L316.424 69.9564ZM322.685 71.1101C323.845 71.1101 324.995 71.0131 326.128 70.8243L322.182 47.1508C322.335 47.1254 322.505 47.1101 322.685 47.1101V71.1101ZM326.508 70.7545C326.984 70.6593 327.304 70.597 327.493 70.5615L323.07 46.9726C322.737 47.0351 322.305 47.1198 321.801 47.2206L326.508 70.7545ZM313.541 61.2485L315.183 69.0159L338.664 64.053L337.023 56.2856L313.541 61.2485ZM323.344 55.0807C323.35 55.0789 323.325 55.0866 323.265 55.1037C323.205 55.1204 323.121 55.143 323.009 55.1715C322.783 55.2292 322.482 55.3016 322.094 55.3885L327.343 78.8075C328.407 78.5689 329.514 78.2971 330.503 77.9882L323.344 55.0807ZM321.903 55.433C321.959 55.4194 321.904 55.4363 321.708 55.4599C321.515 55.4832 321.227 55.508 320.83 55.5224L321.697 79.5067C323.569 79.4391 325.569 79.2374 327.534 78.763L321.903 55.433ZM320.796 55.5237C320.202 55.5468 319.788 55.5129 319.524 55.4729C319.266 55.4337 319.157 55.3895 319.154 55.3882L310.141 77.6317C313.935 79.1686 317.898 79.6548 321.731 79.5055L320.796 55.5237ZM319.188 55.4018C319.264 55.4332 319.471 55.5321 319.727 55.7407C319.987 55.9531 320.196 56.1958 320.339 56.4177L300.184 69.4473C302.636 73.2405 306.087 75.9746 310.108 77.618L319.188 55.4018ZM320.339 56.4177C320.592 56.8082 320.695 57.124 320.728 57.2559C320.757 57.3705 320.715 57.273 320.718 56.8863L296.718 56.7273C296.691 60.8807 297.556 65.3825 300.184 69.4473L320.339 56.4177ZM320.718 56.8068V20.3466H296.718V56.8068H320.718ZM337.35 66.4609L332.405 77.3951L332.445 77.413L332.485 77.4306L337.35 66.4609ZM332.89 62.712L322.815 69.231L322.852 69.2885L322.89 69.3455L332.89 62.712ZM332.424 51.2202L321.867 45.5165L321.867 45.5165L332.424 51.2202ZM335.561 47.7898L328.991 37.7483L328.991 37.7483L335.561 47.7898ZM340.069 45.8295L337.054 34.2146L337.04 34.2181L337.027 34.2217L340.069 45.8295ZM345.411 44.8984L346.564 56.843L346.611 56.8384L346.658 56.8335L345.411 44.8984ZM350.704 44.2614L352.441 56.1349L352.512 56.1245L352.583 56.1133L350.704 44.2614ZM353.619 43.3303L346.901 33.3872L346.901 33.3872L353.619 43.3303ZM353.056 37.7681L345.121 46.7706L345.159 46.8037L345.197 46.8364L353.056 37.7681ZM344.455 37.7436L351.564 47.4114L351.61 47.3777L351.655 47.3436L344.455 37.7436ZM342.25 40.831L341.279 52.7916L351.051 53.5852L353.777 44.1677L342.25 40.831ZM332.596 40.0469L320.862 37.5325L317.998 50.9007L331.625 52.0075L332.596 40.0469ZM335.487 34.1172L344.573 41.956L344.592 41.9341L344.611 41.9121L335.487 34.1172ZM341.049 30.2457L345.465 41.404L345.485 41.3958L345.506 41.3875L341.049 30.2457ZM354.992 29.6087L352.011 41.2326L352.023 41.2357L352.035 41.2387L354.992 29.6087ZM360.113 31.8874L353.282 41.7537L353.307 41.7712L353.333 41.7885L360.113 31.8874ZM363.666 35.8569L353.086 41.5206L353.098 41.543L353.11 41.5653L363.666 35.8569ZM364.964 67V79H376.964V67H364.964ZM355.065 67H343.065V79H355.065V67ZM355.065 61.7809H367.065V49.7809H355.065V61.7809ZM354.771 61.7809V49.7809H347.446L344.098 56.2961L354.771 61.7809ZM352.345 64.8928L360.227 73.9417L360.268 73.9059L360.309 73.8696L352.345 64.8928ZM348.694 66.9755L352.606 78.32L352.664 78.3L352.722 78.2793L348.694 66.9755ZM350.826 59.6001L356.311 70.2733L356.369 70.2434L356.427 70.2128L350.826 59.6001ZM353.595 57.1009L343.491 50.6277L343.491 50.6277L353.595 57.1009ZM354.6 49.554H366.6V27.4418L348.06 39.4926L354.6 49.554ZM353.252 50.142L356.638 61.6544L356.744 61.6232L356.85 61.59L353.252 50.142ZM351.365 50.6076L353.56 62.4052L353.692 62.3806L353.824 62.3531L351.365 50.6076ZM349.258 50.9751L350.916 62.86L351.051 62.8411L351.186 62.8192L349.258 50.9751ZM347.347 51.2447L345.65 39.3653L345.628 39.3684L345.605 39.3717L347.347 51.2447ZM344.137 52.1023L348.864 63.132L348.864 63.132L344.137 52.1023ZM342.005 53.695L351.49 61.0458L351.534 60.9893L351.577 60.9323L342.005 53.695ZM342.789 59.4041L335.713 69.0956L335.799 69.1588L335.887 69.2205L342.789 59.4041ZM343.769 55.7106C342.764 55.7106 342.325 55.5401 342.214 55.4913L332.485 77.4306C336.132 79.0479 339.972 79.7106 343.769 79.7106V55.7106ZM342.294 55.5268C342.29 55.5252 342.317 55.537 342.365 55.5673C342.414 55.5979 342.477 55.6421 342.548 55.7012C342.699 55.8282 342.816 55.9672 342.89 56.0785L322.89 69.3455C325.285 72.9558 328.56 75.6563 332.405 77.3951L342.294 55.5268ZM342.965 56.193C343.066 56.3498 343.142 56.4971 343.197 56.6239C343.252 56.7498 343.279 56.842 343.291 56.8885C343.315 56.9778 343.273 56.8683 343.273 56.4883H319.273C319.273 60.7044 320.199 65.1873 322.815 69.231L342.965 56.193ZM343.273 56.4883C343.273 56.1684 343.303 56.0787 343.284 56.1658C343.263 56.2621 343.188 56.5429 342.982 56.9238L321.867 45.5165C319.914 49.1305 319.273 52.9755 319.273 56.4883H343.273ZM342.982 56.9238C342.919 57.0409 342.809 57.2102 342.641 57.3939C342.472 57.5786 342.293 57.7256 342.131 57.8312L328.991 37.7483C325.961 39.7304 323.561 42.3799 321.867 45.5165L342.982 56.9238ZM342.131 57.8312C342.268 57.7417 342.558 57.5827 343.112 57.4374L337.027 34.2217C334.216 34.9585 331.5 36.1063 328.991 37.7483L342.131 57.8312ZM343.085 57.4445C344.134 57.1722 345.289 56.9659 346.564 56.843L344.258 32.9539C341.809 33.1903 339.403 33.6048 337.054 34.2146L343.085 57.4445ZM346.658 56.8335C348.923 56.5968 350.87 56.3648 352.441 56.1349L348.966 32.3878C347.858 32.55 346.277 32.7427 344.164 32.9634L346.658 56.8335ZM352.583 56.1133C354.416 55.8227 357.511 55.1834 360.338 53.2733L346.901 33.3872C347.838 32.7539 348.582 32.5033 348.787 32.438C349.033 32.3595 349.077 32.3694 348.825 32.4094L352.583 56.1133ZM360.338 53.2733C364.606 50.3893 366.526 45.8465 366.526 41.517H342.526C342.526 40.3959 342.744 38.8489 343.566 37.2041C344.411 35.5156 345.634 34.2434 346.901 33.3872L360.338 53.2733ZM366.526 41.517V41.37H342.526V41.517H366.526ZM366.526 41.37C366.526 37.088 365.043 32.2777 360.915 28.6998L345.197 46.8364C344.262 46.0265 343.516 44.9859 343.048 43.8404C342.602 42.7478 342.526 41.8498 342.526 41.37H366.526ZM360.99 28.7656C357.115 25.3504 352.514 24.494 348.939 24.494V48.494C348.926 48.494 347.069 48.487 345.121 46.7706L360.99 28.7656ZM348.939 24.494C345.37 24.494 341.067 25.2852 337.255 28.1436L351.655 47.3436C350.066 48.5358 348.752 48.494 348.939 48.494V24.494ZM337.347 28.0758C334.258 30.347 331.869 33.5381 330.723 37.4943L353.777 44.1677C353.588 44.8215 353.274 45.4887 352.836 46.1029C352.402 46.7096 351.939 47.1357 351.564 47.4114L337.347 28.0758ZM343.222 28.8703L333.567 28.0863L331.625 52.0075L341.279 52.7916L343.222 28.8703ZM344.33 42.5612C344.425 42.1154 344.534 42.0017 344.573 41.956L326.401 26.2784C323.566 29.5651 321.747 33.4044 320.862 37.5325L344.33 42.5612ZM344.611 41.9121C344.649 41.8673 344.823 41.6581 345.465 41.404L336.634 19.0875C332.735 20.6303 329.201 23.002 326.364 26.3223L344.611 41.9121ZM345.506 41.3875C346.101 41.1495 347.183 40.8736 348.988 40.8736V16.8736C344.783 16.8736 340.572 17.5124 336.593 19.104L345.506 41.3875ZM348.988 40.8736C350.134 40.8736 351.13 41.0067 352.011 41.2326L357.972 17.9847C355.031 17.2305 352.025 16.8736 348.988 16.8736V40.8736ZM352.035 41.2387C352.715 41.4116 353.084 41.6162 353.282 41.7537L366.943 22.0211C364.169 20.1004 361.123 18.7859 357.948 17.9786L352.035 41.2387ZM353.333 41.7885C353.311 41.7734 353.253 41.7285 353.187 41.6548C353.156 41.6208 353.132 41.5889 353.113 41.5623C353.094 41.5358 353.086 41.5205 353.086 41.5206L374.245 30.1932C372.478 26.8919 369.995 24.1109 366.893 21.9864L353.333 41.7885ZM353.11 41.5653C353.048 41.4494 353.004 41.3485 352.975 41.2706C352.947 41.1932 352.936 41.1461 352.934 41.1371C352.93 41.1216 352.964 41.2653 352.964 41.6151H376.964C376.964 37.8361 376.229 33.8614 374.221 30.1484L353.11 41.5653ZM352.964 41.6151V67H376.964V41.6151H352.964ZM364.964 55H355.065V79H364.964V55ZM367.065 67V61.7809H343.065V67H367.065ZM355.065 49.7809H354.771V73.7809H355.065V49.7809ZM344.098 56.2961C344.137 56.2204 344.188 56.1397 344.247 56.0634C344.306 55.9875 344.356 55.9385 344.382 55.9159L360.309 73.8696C362.406 72.009 364.144 69.7954 365.444 67.2657L344.098 56.2961ZM344.464 55.8438C344.581 55.742 344.676 55.6808 344.727 55.6518C344.775 55.6241 344.763 55.6372 344.667 55.6717L352.722 78.2793C355.384 77.3309 357.951 75.9241 360.227 73.9417L344.464 55.8438ZM344.782 55.631C344.879 55.5976 344.606 55.7106 343.769 55.7106V79.7106C346.657 79.7106 349.667 79.3335 352.606 78.32L344.782 55.631ZM346.759 72.5067C349.894 72.5067 353.184 71.8804 356.311 70.2733L345.341 48.927C346.116 48.5287 346.694 48.5067 346.759 48.5067V72.5067ZM356.427 70.2128C359.302 68.6955 361.832 66.489 363.699 63.574L343.491 50.6277C343.733 50.2494 344.029 49.9005 344.36 49.602C344.687 49.3066 344.993 49.1098 345.225 48.9875L356.427 70.2128ZM363.699 63.574C365.689 60.4678 366.6 57.0079 366.6 53.5479H342.6C342.6 53.188 342.647 52.7102 342.801 52.1634C342.957 51.6111 343.195 51.0888 343.491 50.6277L363.699 63.574ZM366.6 53.5479V49.554H342.6V53.5479H366.6ZM348.06 39.4926C348.57 39.1612 348.985 38.9637 349.218 38.8618C349.461 38.756 349.618 38.7055 349.654 38.6941L356.85 61.59C357.967 61.2389 359.549 60.6493 361.139 59.6153L348.06 39.4926ZM349.866 38.6297C349.679 38.6848 349.368 38.7657 348.907 38.8621L353.824 62.3531C354.768 62.1555 355.714 61.926 356.638 61.6544L349.866 38.6297ZM349.17 38.81C348.556 38.9243 347.943 39.0313 347.33 39.1311L351.186 62.8192C351.978 62.6903 352.769 62.5523 353.56 62.4052L349.17 38.81ZM347.6 39.0903C346.887 39.1897 346.237 39.2814 345.65 39.3653L349.044 63.1241C349.6 63.0446 350.224 62.9566 350.916 62.86L347.6 39.0903ZM345.605 39.3717C343.591 39.6671 341.478 40.1862 339.41 41.0725L348.864 63.132C348.737 63.1863 348.683 63.1979 348.723 63.1872C348.763 63.1764 348.88 63.1482 349.088 63.1177L345.605 39.3717ZM339.41 41.0725C336.935 42.1333 334.412 43.8399 332.433 46.4577L351.577 60.9323C350.611 62.2105 349.51 62.8553 348.864 63.132L339.41 41.0725ZM332.52 46.3441C330.095 49.4728 329.246 53.0158 329.246 56.1452H353.246C353.246 57.3145 352.902 59.2239 351.49 61.0458L332.52 46.3441ZM329.246 56.1452C329.246 60.8874 331.199 65.8 335.713 69.0956L349.866 49.7126C350.867 50.4438 351.825 51.5143 352.476 52.8888C353.106 54.2181 353.246 55.4 353.246 56.1452H329.246ZM335.887 69.2205C339.413 71.6997 343.316 72.5067 346.759 72.5067V48.5067C347 48.5067 348.256 48.5787 349.691 49.5878L335.887 69.2205ZM379.164 65.4073L372.657 75.4898L372.698 75.5166L372.74 75.543L379.164 65.4073ZM373.675 58.8651L362.787 63.9094L362.804 63.9465L362.821 63.9835L373.675 58.8651ZM373.749 37.4741L384.543 42.7169L384.548 42.7049L384.554 42.6928L373.749 37.4741ZM379.286 31.0298L385.587 41.2423L385.597 41.2361L385.607 41.2299L379.286 31.0298ZM392.175 29.9517L386.709 40.6347L386.783 40.6726L386.858 40.7094L392.175 29.9517ZM395.605 32.598L386.305 40.1813L386.369 40.2594L386.434 40.3365L395.605 32.598ZM397.614 35.6854L386.678 40.6244L389.867 47.6854H397.614V35.6854ZM397.933 35.6854V47.6854H409.933V35.6854H397.933ZM397.933 16.8182V4.81818H385.933V16.8182H397.933ZM408.347 16.8182H420.347V4.81818H408.347V16.8182ZM408.347 67V79H420.347V67H408.347ZM398.055 67H386.055V79H398.055V67ZM398.055 60.9723H410.055V48.9723H398.055V60.9723ZM397.614 60.9723V48.9723H389.986L386.749 55.8791L397.614 60.9723ZM395.532 64.0842L386.492 56.1923L386.483 56.2028L395.532 64.0842ZM392.077 66.608L386.961 55.753L386.937 55.7644L386.913 55.776L392.077 66.608ZM394.502 57.9339L401.934 67.3559L401.942 67.3492L401.951 67.3425L394.502 57.9339ZM397.198 54.038L385.989 49.7523L385.971 49.8004L385.953 49.8487L397.198 54.038ZM397.222 42.3501L408.454 38.1245L408.454 38.1245L397.222 42.3501ZM385.902 38.5767L378.454 29.1682L378.454 29.1682L385.902 38.5767ZM383.231 53.989L371.938 58.0459L371.962 58.1122L371.986 58.1783L383.231 53.989ZM385.902 57.9094L378.31 67.2028L378.381 67.2609L378.454 67.318L385.902 57.9094ZM386.931 55.6126C386.249 55.6126 385.905 55.4727 385.588 55.2716L372.74 75.543C377.062 78.2823 381.896 79.6126 386.931 79.6126V55.6126ZM385.671 55.3248C385.536 55.2379 385.083 54.9229 384.529 53.7466L362.821 63.9835C364.978 68.5572 368.185 72.6037 372.657 75.4898L385.671 55.3248ZM384.563 53.8208C384.15 52.9281 383.666 51.215 383.666 48.2308H359.666C359.666 53.6429 360.521 59.0193 362.787 63.9094L384.563 53.8208ZM383.666 48.2308C383.666 45.1198 384.179 43.4665 384.543 42.7169L362.954 32.2312C360.542 37.1989 359.666 42.7168 359.666 48.2308H383.666ZM384.554 42.6928C385.13 41.5017 385.558 41.2603 385.587 41.2423L372.985 20.8174C368.408 23.6416 365.145 27.6964 362.943 32.2554L384.554 42.6928ZM385.607 41.2299C386.005 40.9834 386.352 40.8736 386.907 40.8736V16.8736C381.94 16.8736 377.206 18.2013 372.965 20.8297L385.607 41.2299ZM386.907 40.8736C387.289 40.8736 387.435 40.9071 387.398 40.8994C387.354 40.8904 387.094 40.8316 386.709 40.6347L397.64 19.2687C394.073 17.4437 390.304 16.8736 386.907 16.8736V40.8736ZM386.858 40.7094C386.926 40.7431 386.882 40.7291 386.769 40.6415C386.651 40.5511 386.484 40.4006 386.305 40.1813L404.905 25.0147C402.797 22.4286 400.212 20.5384 397.492 19.194L386.858 40.7094ZM386.434 40.3365C386.59 40.5223 386.675 40.6442 386.711 40.6994C386.747 40.7542 386.725 40.7295 386.678 40.6244L408.551 30.7463C407.546 28.5222 406.216 26.5651 404.777 24.8596L386.434 40.3365ZM397.614 47.6854H397.933V23.6854H397.614V47.6854ZM409.933 35.6854V16.8182H385.933V35.6854H409.933ZM397.933 28.8182H408.347V4.81818H397.933V28.8182ZM396.347 16.8182V67H420.347V16.8182H396.347ZM408.347 55H398.055V79H408.347V55ZM410.055 67V60.9723H386.055V67H410.055ZM398.055 48.9723H397.614V72.9723H398.055V48.9723ZM386.749 55.8791C386.811 55.7457 386.785 55.8567 386.492 56.1923L404.571 71.9761C406.075 70.2534 407.437 68.2898 408.48 66.0655L386.749 55.8791ZM386.483 56.2028C386.861 55.7682 387.132 55.6725 386.961 55.753L397.192 77.463C399.864 76.2039 402.438 74.4257 404.581 71.9655L386.483 56.2028ZM386.913 55.776C387.225 55.6269 387.423 55.5865 387.437 55.5838C387.444 55.5825 387.407 55.5899 387.322 55.5976C387.237 55.6052 387.108 55.6126 386.931 55.6126V79.6126C390.226 79.6126 393.813 79.074 397.241 77.44L386.913 55.776ZM390.239 71.3061C394.224 71.3061 398.367 70.1693 401.934 67.3559L387.071 48.512C387.626 48.0744 388.255 47.7446 388.89 47.5401C389.508 47.3413 389.988 47.3061 390.239 47.3061V71.3061ZM401.951 67.3425C405.141 64.8173 407.2 61.5632 408.443 58.2273L385.953 49.8487C385.947 49.8639 386.007 49.6991 386.19 49.4343C386.38 49.1599 386.664 48.8339 387.054 48.5254L401.951 67.3425ZM408.406 58.3236C409.681 54.9903 410.153 51.5263 410.153 48.1818H386.153C386.153 49.3132 385.989 49.7533 385.989 49.7523L408.406 58.3236ZM410.153 48.1818C410.153 44.8727 409.699 41.4344 408.454 38.1245L385.991 46.5758C385.987 46.5656 386.153 47.0151 386.153 48.1818H410.153ZM408.454 38.1245C407.194 34.776 405.091 31.4969 401.811 28.9916L387.242 48.0638C386.811 47.734 386.492 47.3786 386.276 47.0724C386.067 46.7768 385.993 46.5822 385.991 46.5758L408.454 38.1245ZM401.811 28.9916C398.262 26.2801 394.177 25.18 390.239 25.18V49.18C390.008 49.18 389.558 49.1481 388.975 48.9649C388.376 48.7765 387.777 48.4718 387.242 48.0638L401.811 28.9916ZM390.239 25.18C386.227 25.18 382.048 26.3222 378.454 29.1682L393.35 47.9853C392.798 48.4224 392.174 48.7497 391.547 48.9515C390.938 49.1474 390.471 49.18 390.239 49.18V25.18ZM378.454 29.1682C375.263 31.6941 373.197 34.9528 371.963 38.3204L394.499 46.5759C394.494 46.5889 394.424 46.7758 394.23 47.0572C394.029 47.348 393.738 47.6786 393.35 47.9852L378.454 29.1682ZM371.963 38.3204C370.775 41.5636 370.325 44.9219 370.325 48.1818H394.325C394.325 47.0966 394.478 46.6325 394.499 46.5759L371.963 38.3204ZM370.325 48.1818C370.325 51.454 370.774 54.8069 371.938 58.0459L394.525 49.9321C394.479 49.806 394.325 49.2875 394.325 48.1818H370.325ZM371.986 58.1783C373.21 61.4641 375.216 64.6754 378.31 67.2028L393.494 48.6161C393.855 48.9117 394.114 49.2162 394.282 49.4626C394.444 49.7001 394.49 49.8373 394.476 49.7997L371.986 58.1783ZM378.454 67.318C382.048 70.1639 386.227 71.3061 390.239 71.3061V47.3061C390.471 47.3061 390.938 47.3387 391.547 47.5346C392.174 47.7365 392.798 48.0637 393.35 48.5009L378.454 67.318ZM424.059 65.3093L417.948 75.6368L417.984 75.658L418.02 75.6791L424.059 65.3093ZM417.664 58.4975L406.991 63.983L406.997 63.9952L407.003 64.0073L417.664 58.4975ZM417.664 38.1357L428.324 43.6455L428.33 43.6333L428.337 43.6211L417.664 38.1357ZM424.059 31.3239L430.124 41.6781L430.134 41.6726L430.143 41.6671L424.059 31.3239ZM443.784 31.3239L437.673 41.6513L437.709 41.6726L437.745 41.6936L443.784 31.3239ZM450.204 38.1357L439.531 43.6211L439.537 43.6333L439.543 43.6455L450.204 38.1357ZM450.204 58.4975L460.864 64.0073L460.87 63.9952L460.876 63.983L450.204 58.4975ZM443.784 65.3093L449.849 75.6635L449.859 75.658L449.868 75.6525L443.784 65.3093ZM438.32 58.179L446.065 67.3445L446.103 67.3129L446.14 67.281L438.32 58.179ZM440.941 54.1115L429.624 50.1233L429.607 50.1714L429.59 50.2196L440.941 54.1115ZM440.941 42.3991L429.59 46.291L429.607 46.3393L429.624 46.3874L440.941 42.3991ZM429.572 38.3317L421.878 29.1234L421.846 29.1495L421.815 29.1759L429.572 38.3317ZM426.901 42.3991L415.583 38.4109L415.567 38.459L415.55 38.5073L426.901 42.3991ZM426.901 54.1115L415.55 58.0034L415.567 58.0516L415.583 58.0997L426.901 54.1115ZM429.572 58.179L421.815 67.3348L421.883 67.3926L421.953 67.4495L429.572 58.179ZM433.934 55.7351C431.856 55.7351 430.729 55.307 430.098 54.9395L418.02 75.6791C422.943 78.546 428.399 79.7351 433.934 79.7351V55.7351ZM430.17 54.9818C429.389 54.5198 428.815 53.9374 428.324 52.9877L407.003 64.0073C409.518 68.873 413.208 72.8317 417.948 75.6368L430.17 54.9818ZM428.337 53.012C427.845 52.0552 427.409 50.6049 427.409 48.3288H403.409C403.409 53.763 404.477 59.0918 406.991 63.983L428.337 53.012ZM427.409 48.3288C427.409 45.9999 427.853 44.5578 428.324 43.6455L407.003 32.6258C404.469 37.5289 403.409 42.8822 403.409 48.3288H427.409ZM428.337 43.6211C428.828 42.6658 429.387 42.1099 430.124 41.6781L417.994 20.9696C413.209 23.7722 409.506 27.7575 406.991 32.6502L428.337 43.6211ZM430.143 41.6671C430.766 41.3007 431.876 40.8736 433.934 40.8736V16.8736C428.379 16.8736 422.906 18.08 417.975 20.9806L430.143 41.6671ZM433.934 40.8736C435.993 40.8736 437.082 41.3015 437.673 41.6513L449.895 20.9964C444.965 18.0792 439.486 16.8736 433.934 16.8736V40.8736ZM437.745 41.6936C438.495 42.1305 439.049 42.6844 439.531 43.6211L460.876 32.6502C458.352 27.7389 454.626 23.7516 449.823 20.9541L437.745 41.6936ZM439.543 43.6455C440.015 44.5578 440.458 46 440.458 48.3288H464.458C464.458 42.8821 463.398 37.5289 460.864 32.6258L439.543 43.6455ZM440.458 48.3288C440.458 50.6049 440.022 52.0552 439.531 53.012L460.876 63.983C463.39 59.0918 464.458 53.763 464.458 48.3288H440.458ZM439.543 52.9877C439.062 53.9188 438.493 54.4991 437.7 54.9661L449.868 75.6525C454.628 72.8524 458.339 68.8915 460.864 64.0073L439.543 52.9877ZM437.718 54.9551C437.119 55.3062 436.014 55.7351 433.934 55.7351V79.7351C439.466 79.7351 444.927 78.5467 449.849 75.6635L437.718 54.9551ZM433.983 71.6491C438.128 71.6491 442.438 70.41 446.065 67.3445L430.574 49.0134C431.149 48.5278 431.82 48.1519 432.513 47.9168C433.185 47.6889 433.712 47.6491 433.983 47.6491V71.6491ZM446.14 67.281C449.197 64.654 451.142 61.3609 452.293 58.0034L429.59 50.2196C429.572 50.271 429.61 50.1445 429.759 49.9134C429.913 49.6733 430.156 49.3723 430.5 49.077L446.14 67.281ZM452.259 58.0997C453.397 54.8725 453.848 51.5343 453.848 48.2553H429.848C429.848 49.3542 429.695 49.9201 429.624 50.1233L452.259 58.0997ZM453.848 48.2553C453.848 44.9764 453.397 41.6381 452.259 38.4109L429.624 46.3874C429.695 46.5906 429.848 47.1564 429.848 48.2553H453.848ZM452.293 38.5073C451.142 35.1498 449.197 31.8566 446.14 29.2297L430.5 47.4337C430.156 47.1383 429.913 46.8374 429.759 46.5972C429.61 46.3662 429.572 46.2396 429.59 46.291L452.293 38.5073ZM446.14 29.2297C442.515 26.1155 438.179 24.837 433.983 24.837V48.837C433.692 48.837 433.145 48.7935 432.456 48.5558C431.745 48.311 431.07 47.9235 430.5 47.4337L446.14 29.2297ZM433.983 24.837C429.795 24.837 425.498 26.0977 421.878 29.1234L437.267 47.54C436.727 47.9907 436.09 48.3488 435.421 48.5758C434.77 48.7964 434.256 48.837 433.983 48.837V24.837ZM421.815 29.1759C418.744 31.7779 416.767 35.0514 415.583 38.4109L438.219 46.3873C438.237 46.336 438.2 46.4584 438.053 46.6824C437.9 46.9151 437.663 47.2047 437.329 47.4875L421.815 29.1759ZM415.55 38.5073C414.454 41.7039 414.019 45.0079 414.019 48.2553H438.019C438.019 47.1249 438.173 46.5248 438.253 46.291L415.55 38.5073ZM414.019 48.2553C414.019 51.5028 414.454 54.8068 415.55 58.0034L438.253 50.2196C438.173 49.9858 438.019 49.3857 438.019 48.2553H414.019ZM415.583 58.0997C416.767 61.4592 418.744 64.7327 421.815 67.3348L437.329 49.0232C437.663 49.306 437.9 49.5955 438.053 49.8283C438.2 50.0523 438.237 50.1747 438.219 50.1233L415.583 58.0997ZM421.953 67.4495C425.575 70.4268 429.845 71.6491 433.983 71.6491V47.6491C434.236 47.6491 434.73 47.6861 435.364 47.8974C436.017 48.115 436.649 48.462 437.192 48.9085L421.953 67.4495ZM459.245 67H447.245V79H459.245V67ZM459.245 29.3636V17.3636H447.245V29.3636H459.245ZM469.365 29.3636H481.365V17.3636H469.365V29.3636ZM469.365 35.9304H457.365V47.9304H469.365V35.9304ZM469.757 35.9304V47.9304H478.739L481.27 39.312L469.757 35.9304ZM473.212 30.6378L480.333 40.296L480.365 40.2728L480.396 40.2494L473.212 30.6378ZM480.489 28.9226L481.779 16.9921L481.779 16.9921L480.489 28.9226ZM482.082 29.1921H494.082V19.8228L484.992 17.5504L482.082 29.1921ZM482.082 38.4542L478.634 49.9481L494.082 54.5826V38.4542H482.082ZM473.555 38.8952L479.321 49.419L479.346 49.4054L479.37 49.3918L473.555 38.8952ZM470.712 41.6396L460.41 35.4867L460.378 35.5397L460.347 35.5931L470.712 41.6396ZM469.683 67V79H481.683V67H469.683ZM471.245 67V29.3636H447.245V67H471.245ZM459.245 41.3636H469.365V17.3636H459.245V41.3636ZM457.365 29.3636V35.9304H481.365V29.3636H457.365ZM469.365 47.9304H469.757V23.9304H469.365V47.9304ZM481.27 39.312C481.333 39.0982 481.339 39.176 481.184 39.4148C481.015 39.6731 480.733 40.0015 480.333 40.296L466.09 20.9796C461.946 24.0356 459.508 28.2438 458.243 32.5488L481.27 39.312ZM480.396 40.2494C480.185 40.4075 479.885 40.5753 479.526 40.6918C479.172 40.8064 478.907 40.8246 478.798 40.8246V16.8246C474.222 16.8246 469.814 18.1958 466.027 21.0262L480.396 40.2494ZM478.798 40.8246C478.828 40.8246 478.956 40.8268 479.199 40.8531L481.779 16.9921C480.813 16.8877 479.815 16.8246 478.798 16.8246V40.8246ZM479.199 40.8531C479.245 40.858 479.28 40.8624 479.303 40.8656C479.327 40.8689 479.339 40.8708 479.338 40.8707C479.338 40.8707 479.324 40.8683 479.297 40.8627C479.27 40.8572 479.228 40.8479 479.171 40.8338L484.992 17.5504C483.875 17.2711 482.782 17.1006 481.779 16.9921L479.199 40.8531ZM470.082 29.1921V38.4542H494.082V29.1921H470.082ZM485.53 26.9603C484.146 26.5451 482.744 26.3139 481.619 26.1655L478.477 49.9588C478.601 49.9753 478.702 49.9901 478.781 50.0026C478.86 50.0152 478.91 50.0243 478.934 50.029C478.959 50.0338 478.947 50.032 478.903 50.0215C478.861 50.0115 478.767 49.9883 478.634 49.9481L485.53 26.9603ZM481.619 26.1655C480.339 25.9964 479.013 25.8906 477.671 25.8906V49.8906C477.767 49.8906 478.026 49.8992 478.477 49.9588L481.619 26.1655ZM477.671 25.8906C474.332 25.8906 470.919 26.6367 467.739 28.3987L479.37 49.3918C479.02 49.5859 478.664 49.7195 478.336 49.7996C478.013 49.8783 477.779 49.8906 477.671 49.8906V25.8906ZM467.788 28.3715C464.707 30.06 462.2 32.4901 460.41 35.4867L481.015 47.7925C480.845 48.0776 480.604 48.3963 480.285 48.7042C479.966 49.0124 479.631 49.2492 479.321 49.419L467.788 28.3715ZM460.347 35.5931C458.459 38.8298 457.683 42.3239 457.683 45.707H481.683C481.683 45.8359 481.668 46.1089 481.574 46.4819C481.478 46.8628 481.316 47.278 481.078 47.686L460.347 35.5931ZM457.683 45.707V67H481.683V45.707H457.683ZM469.683 55H459.245V79H469.683V55Z" fill="#789CE1" mask="url(#path-1-outside-1_29_574)"/>
</svg>
