<svg width="333" height="388" viewBox="0 0 333 388" fill="none" xmlns="http://www.w3.org/2000/svg">
<path d="M14.0018 150.523C15.3238 150.523 16.3955 149.661 16.3955 148.597C16.3955 147.533 15.3238 146.671 14.0018 146.671C12.6798 146.671 11.6082 147.533 11.6082 148.597C11.6082 149.661 12.6798 150.523 14.0018 150.523Z" fill="#0C3D7A"/>
<path d="M242.297 135.591C243.619 135.591 244.69 134.729 244.69 133.665C244.69 132.601 243.619 131.739 242.297 131.739C240.975 131.739 239.903 132.601 239.903 133.665C239.903 134.729 240.975 135.591 242.297 135.591Z" fill="#0C3D7A"/>
<path fill-rule="evenodd" clip-rule="evenodd" d="M204.335 237.878C196.444 242.155 187.406 244.584 177.8 244.584C162.196 244.584 148.088 238.174 137.967 227.845C131.301 231.087 123.815 232.905 115.904 232.905C106.542 232.905 97.7741 230.358 90.2568 225.918C86.7451 227.043 83.0019 227.65 79.117 227.65C62.9357 227.65 49.2141 217.119 44.4317 202.537C27.2596 202.256 13.4255 188.248 13.4255 171.009C13.4255 166.137 14.5308 161.522 16.5042 157.403C9.02402 145.992 4.66675 132.301 4.66675 117.58C4.66675 77.7525 36.5614 45.4657 75.9054 45.4657C86.8647 45.4657 97.246 47.9708 106.521 52.4463C117.723 40.3367 137.24 32.3192 159.443 32.3192C170.084 32.3192 180.107 34.1607 188.895 37.4116C197.492 30.4005 208.468 26.1962 220.426 26.1962C244.188 26.1962 264.072 42.7953 269.116 65.0302C272.262 64.4529 275.505 64.1512 278.819 64.1512C308.327 64.1512 332.248 88.0722 332.248 117.58C332.248 137.212 321.66 154.37 305.884 163.657C307.811 167.646 308.891 172.121 308.891 176.849C308.891 193.618 295.297 207.213 278.527 207.213C278.04 207.213 277.555 207.201 277.073 207.178C271.736 228.662 252.32 244.584 229.185 244.584C220.124 244.584 211.633 242.141 204.335 237.878Z" fill="#0C3D7A"/>
<path fill-rule="evenodd" clip-rule="evenodd" d="M147.731 159.93C157.187 159.93 166.052 157.402 173.687 152.984L186.811 168.154C185.601 173.119 186.731 178.575 190.329 182.735L213.132 209.09C219.039 215.918 229.363 216.664 236.191 210.756C243.019 204.849 243.765 194.525 237.858 187.697L215.055 161.342C211.093 156.762 205.142 154.918 199.593 155.984L187.232 141.697C194.963 132.634 199.631 120.877 199.631 108.031C199.631 79.3672 176.395 56.1309 147.731 56.1309C119.068 56.1309 95.8315 79.3672 95.8315 108.031C95.8315 136.694 119.068 159.93 147.731 159.93ZM147.731 144.218C167.717 144.218 183.918 128.016 183.918 108.031C183.918 88.045 167.717 71.8436 147.731 71.8436C127.746 71.8436 111.544 88.045 111.544 108.031C111.544 128.016 127.746 144.218 147.731 144.218Z" fill="white"/>
<path d="M2.39365 154.127C3.71563 154.127 4.7873 153.265 4.7873 152.201C4.7873 151.138 3.71563 150.275 2.39365 150.275C1.07167 150.275 0 151.138 0 152.201C0 153.265 1.07167 154.127 2.39365 154.127Z" fill="#0C3D7A"/>
<path d="M211.394 13.8522C212.716 13.8522 213.787 12.9898 213.787 11.9261C213.787 10.8623 212.716 10 211.394 10C210.072 10 209 10.8623 209 11.9261C209 12.9898 210.072 13.8522 211.394 13.8522Z" fill="#0C3D7A"/>
<path d="M254.394 3.85216C255.716 3.85216 256.787 2.98983 256.787 1.92608C256.787 0.862338 255.716 0 254.394 0C253.072 0 252 0.862338 252 1.92608C252 2.98983 253.072 3.85216 254.394 3.85216Z" fill="#0C3D7A"/>
<path d="M247.394 21.8522C248.716 21.8522 249.787 20.9898 249.787 19.9261C249.787 18.8623 248.716 18 247.394 18C246.072 18 245 18.8623 245 19.9261C245 20.9898 246.072 21.8522 247.394 21.8522Z" fill="#0C3D7A"/>
<path d="M131.628 116.814C138.61 106.028 146.101 95.6772 154.101 85.7625C154.695 85.0501 153.105 83.6213 152.511 84.3337C144.48 94.1879 136.989 104.538 130.038 115.386C129.559 116.209 131.148 117.638 131.628 116.814Z" fill="white" fill-opacity="0.6"/>
<path d="M140.706 131.785C145.45 121.914 150.458 112.33 155.765 102.892C156.203 102.073 154.597 100.621 154.159 101.44C148.902 110.868 143.877 120.523 139.1 130.333C138.662 131.152 140.268 132.604 140.706 131.785Z" fill="white" fill-opacity="0.6"/>
<path d="M88.0344 273.545V291H84.8469L77.2532 280.014H77.1254V291H73.435V273.545H76.6737L84.2077 284.523H84.3612V273.545H88.0344ZM91.0153 291V277.909H94.646V291H91.0153ZM92.8391 276.222C92.2994 276.222 91.8363 276.043 91.4499 275.685C91.0692 275.321 90.8789 274.886 90.8789 274.381C90.8789 273.881 91.0692 273.452 91.4499 273.094C91.8363 272.73 92.2994 272.548 92.8391 272.548C93.3789 272.548 93.8391 272.73 94.2198 273.094C94.6062 273.452 94.7994 273.881 94.7994 274.381C94.7994 274.886 94.6062 275.321 94.2198 275.685C93.8391 276.043 93.3789 276.222 92.8391 276.222ZM101.185 283.432V291H97.5543V277.909H101.015V280.219H101.168C101.458 279.457 101.944 278.855 102.625 278.412C103.307 277.963 104.134 277.739 105.105 277.739C106.015 277.739 106.807 277.938 107.483 278.335C108.159 278.733 108.685 279.301 109.06 280.04C109.435 280.773 109.623 281.648 109.623 282.665V291H105.992V283.312C105.998 282.511 105.793 281.886 105.378 281.438C104.963 280.983 104.392 280.756 103.665 280.756C103.176 280.756 102.745 280.861 102.37 281.071C102 281.281 101.711 281.588 101.5 281.991C101.296 282.389 101.191 282.869 101.185 283.432ZM118.382 296.182C117.206 296.182 116.197 296.02 115.356 295.696C114.521 295.378 113.856 294.943 113.362 294.392C112.868 293.841 112.547 293.222 112.399 292.534L115.757 292.082C115.859 292.344 116.021 292.588 116.243 292.815C116.464 293.043 116.757 293.224 117.12 293.361C117.49 293.503 117.939 293.574 118.467 293.574C119.257 293.574 119.907 293.381 120.419 292.994C120.936 292.614 121.194 291.974 121.194 291.077V288.682H121.041C120.882 289.045 120.643 289.389 120.325 289.713C120.007 290.037 119.598 290.301 119.098 290.506C118.598 290.71 118.001 290.812 117.308 290.812C116.325 290.812 115.43 290.585 114.623 290.131C113.822 289.67 113.183 288.969 112.706 288.026C112.234 287.077 111.998 285.878 111.998 284.429C111.998 282.946 112.24 281.707 112.723 280.713C113.206 279.719 113.848 278.974 114.649 278.48C115.456 277.986 116.339 277.739 117.299 277.739C118.032 277.739 118.646 277.864 119.14 278.114C119.635 278.358 120.032 278.665 120.333 279.034C120.64 279.398 120.876 279.756 121.041 280.108H121.177V277.909H124.782V291.128C124.782 292.241 124.51 293.173 123.964 293.923C123.419 294.673 122.663 295.236 121.697 295.611C120.737 295.991 119.632 296.182 118.382 296.182ZM118.458 288.085C119.044 288.085 119.538 287.94 119.941 287.651C120.35 287.355 120.663 286.935 120.879 286.389C121.1 285.838 121.211 285.179 121.211 284.412C121.211 283.645 121.103 282.98 120.887 282.418C120.672 281.849 120.359 281.409 119.95 281.097C119.541 280.784 119.044 280.628 118.458 280.628C117.862 280.628 117.359 280.79 116.95 281.114C116.541 281.432 116.231 281.875 116.021 282.443C115.811 283.011 115.706 283.668 115.706 284.412C115.706 285.168 115.811 285.821 116.021 286.372C116.237 286.918 116.547 287.341 116.95 287.642C117.359 287.937 117.862 288.085 118.458 288.085ZM136.066 285.426V277.909H139.697V291H136.211V288.622H136.075C135.779 289.389 135.288 290.006 134.6 290.472C133.919 290.937 133.086 291.17 132.103 291.17C131.228 291.17 130.458 290.972 129.794 290.574C129.129 290.176 128.609 289.611 128.234 288.878C127.865 288.145 127.677 287.267 127.672 286.244V277.909H131.302V285.597C131.308 286.369 131.515 286.98 131.924 287.429C132.333 287.878 132.882 288.102 133.569 288.102C134.007 288.102 134.416 288.003 134.797 287.804C135.177 287.599 135.484 287.298 135.717 286.901C135.956 286.503 136.072 286.011 136.066 285.426ZM132.393 276.222L134.2 272.344H137.558L134.958 276.222H132.393ZM146.232 283.432V291H142.601V277.909H146.061V280.219H146.215C146.505 279.457 146.99 278.855 147.672 278.412C148.354 277.963 149.181 277.739 150.152 277.739C151.061 277.739 151.854 277.938 152.53 278.335C153.206 278.733 153.732 279.301 154.107 280.04C154.482 280.773 154.669 281.648 154.669 282.665V291H151.039V283.312C151.044 282.511 150.84 281.886 150.425 281.438C150.01 280.983 149.439 280.756 148.712 280.756C148.223 280.756 147.792 280.861 147.417 281.071C147.047 281.281 146.757 281.588 146.547 281.991C146.343 282.389 146.238 282.869 146.232 283.432ZM163.086 291V277.909H166.546V280.219H166.699C166.972 279.452 167.426 278.847 168.063 278.403C168.699 277.96 169.461 277.739 170.347 277.739C171.245 277.739 172.009 277.963 172.64 278.412C173.27 278.855 173.691 279.457 173.901 280.219H174.037C174.304 279.469 174.787 278.869 175.486 278.42C176.191 277.966 177.023 277.739 177.983 277.739C179.205 277.739 180.196 278.128 180.958 278.906C181.725 279.679 182.108 280.776 182.108 282.196V291H178.486V282.912C178.486 282.185 178.293 281.639 177.907 281.276C177.52 280.912 177.037 280.73 176.458 280.73C175.799 280.73 175.284 280.94 174.915 281.361C174.546 281.776 174.361 282.324 174.361 283.006V291H170.841V282.835C170.841 282.193 170.657 281.682 170.287 281.301C169.924 280.92 169.444 280.73 168.847 280.73C168.444 280.73 168.08 280.832 167.756 281.037C167.438 281.236 167.185 281.517 166.998 281.881C166.81 282.239 166.716 282.659 166.716 283.142V291H163.086ZM190.942 291.256C189.596 291.256 188.436 290.983 187.465 290.438C186.499 289.886 185.755 289.108 185.232 288.102C184.709 287.091 184.448 285.895 184.448 284.514C184.448 283.168 184.709 281.986 185.232 280.969C185.755 279.952 186.49 279.159 187.439 278.591C188.394 278.023 189.513 277.739 190.797 277.739C191.661 277.739 192.465 277.878 193.209 278.156C193.959 278.429 194.613 278.841 195.169 279.392C195.732 279.943 196.169 280.636 196.482 281.472C196.794 282.301 196.951 283.273 196.951 284.386V285.384H185.897V283.134H193.533C193.533 282.611 193.419 282.148 193.192 281.744C192.965 281.341 192.65 281.026 192.246 280.798C191.848 280.565 191.385 280.449 190.857 280.449C190.306 280.449 189.817 280.577 189.391 280.832C188.971 281.082 188.641 281.42 188.402 281.847C188.164 282.267 188.042 282.736 188.036 283.253V285.392C188.036 286.04 188.155 286.599 188.394 287.071C188.638 287.543 188.982 287.906 189.425 288.162C189.868 288.418 190.394 288.545 191.002 288.545C191.405 288.545 191.775 288.489 192.11 288.375C192.445 288.261 192.732 288.091 192.971 287.864C193.209 287.636 193.391 287.358 193.516 287.028L196.874 287.25C196.703 288.057 196.354 288.761 195.826 289.364C195.303 289.96 194.627 290.426 193.797 290.761C192.973 291.091 192.022 291.256 190.942 291.256ZM202.951 283.432V291H199.32V277.909H202.78V280.219H202.934C203.223 279.457 203.709 278.855 204.391 278.412C205.073 277.963 205.9 277.739 206.871 277.739C207.78 277.739 208.573 277.938 209.249 278.335C209.925 278.733 210.451 279.301 210.826 280.04C211.201 280.773 211.388 281.648 211.388 282.665V291H207.757V283.312C207.763 282.511 207.559 281.886 207.144 281.438C206.729 280.983 206.158 280.756 205.431 280.756C204.942 280.756 204.51 280.861 204.135 281.071C203.766 281.281 203.476 281.588 203.266 281.991C203.061 282.389 202.956 282.869 202.951 283.432ZM225.142 281.642L221.818 281.847C221.761 281.562 221.639 281.307 221.451 281.08C221.264 280.847 221.017 280.662 220.71 280.526C220.409 280.384 220.048 280.312 219.627 280.312C219.065 280.312 218.591 280.432 218.204 280.67C217.818 280.903 217.625 281.216 217.625 281.608C217.625 281.92 217.75 282.185 218 282.401C218.25 282.616 218.679 282.79 219.287 282.92L221.656 283.398C222.929 283.659 223.877 284.08 224.502 284.659C225.127 285.239 225.44 286 225.44 286.943C225.44 287.801 225.187 288.554 224.681 289.202C224.181 289.849 223.494 290.355 222.619 290.719C221.75 291.077 220.747 291.256 219.61 291.256C217.877 291.256 216.497 290.895 215.468 290.173C214.446 289.446 213.846 288.457 213.67 287.207L217.241 287.02C217.349 287.548 217.61 287.952 218.025 288.23C218.44 288.503 218.971 288.639 219.619 288.639C220.255 288.639 220.767 288.517 221.153 288.273C221.545 288.023 221.744 287.702 221.75 287.31C221.744 286.98 221.605 286.71 221.332 286.5C221.059 286.284 220.639 286.119 220.071 286.006L217.804 285.554C216.525 285.298 215.574 284.855 214.949 284.224C214.329 283.594 214.02 282.79 214.02 281.812C214.02 280.972 214.247 280.247 214.701 279.639C215.162 279.031 215.806 278.562 216.636 278.233C217.471 277.903 218.449 277.739 219.568 277.739C221.221 277.739 222.522 278.088 223.471 278.787C224.426 279.486 224.983 280.437 225.142 281.642ZM231.459 291.247C230.624 291.247 229.88 291.102 229.226 290.812C228.573 290.517 228.056 290.082 227.675 289.509C227.3 288.929 227.113 288.207 227.113 287.344C227.113 286.616 227.246 286.006 227.513 285.511C227.78 285.017 228.144 284.619 228.604 284.318C229.064 284.017 229.587 283.79 230.172 283.636C230.763 283.483 231.382 283.375 232.03 283.312C232.792 283.233 233.405 283.159 233.871 283.091C234.337 283.017 234.675 282.909 234.885 282.767C235.096 282.625 235.201 282.415 235.201 282.136V282.085C235.201 281.545 235.03 281.128 234.689 280.832C234.354 280.537 233.877 280.389 233.257 280.389C232.604 280.389 232.084 280.534 231.698 280.824C231.311 281.108 231.056 281.466 230.931 281.898L227.573 281.625C227.743 280.83 228.078 280.142 228.578 279.562C229.078 278.977 229.723 278.528 230.513 278.216C231.309 277.898 232.229 277.739 233.275 277.739C234.002 277.739 234.698 277.824 235.363 277.994C236.033 278.165 236.627 278.429 237.144 278.787C237.667 279.145 238.078 279.605 238.38 280.168C238.681 280.724 238.831 281.392 238.831 282.17V291H235.388V289.185H235.286C235.076 289.594 234.794 289.955 234.442 290.267C234.09 290.574 233.667 290.815 233.172 290.991C232.678 291.162 232.107 291.247 231.459 291.247ZM232.499 288.741C233.033 288.741 233.505 288.636 233.914 288.426C234.323 288.21 234.644 287.92 234.877 287.557C235.11 287.193 235.226 286.781 235.226 286.321V284.932C235.113 285.006 234.956 285.074 234.757 285.136C234.564 285.193 234.346 285.247 234.101 285.298C233.857 285.344 233.613 285.386 233.368 285.426C233.124 285.46 232.902 285.491 232.703 285.52C232.277 285.582 231.905 285.682 231.587 285.818C231.269 285.955 231.022 286.139 230.846 286.372C230.669 286.599 230.581 286.884 230.581 287.224C230.581 287.719 230.76 288.097 231.118 288.358C231.482 288.614 231.942 288.741 232.499 288.741ZM241.648 277.909H245.279V291.648C245.279 292.659 245.08 293.477 244.682 294.102C244.284 294.727 243.713 295.185 242.969 295.474C242.23 295.764 241.347 295.909 240.319 295.909C240.194 295.909 240.074 295.906 239.961 295.901C239.841 295.901 239.716 295.898 239.586 295.892V293.054C239.682 293.06 239.767 293.062 239.841 293.062C239.909 293.068 239.983 293.071 240.063 293.071C240.648 293.071 241.057 292.946 241.29 292.696C241.529 292.452 241.648 292.082 241.648 291.588V277.909ZM243.455 276.222C242.921 276.222 242.461 276.043 242.074 275.685C241.688 275.321 241.495 274.886 241.495 274.381C241.495 273.881 241.688 273.452 242.074 273.094C242.461 272.73 242.921 272.548 243.455 272.548C244 272.548 244.463 272.73 244.844 273.094C245.23 273.452 245.424 273.881 245.424 274.381C245.424 274.886 245.23 275.321 244.844 275.685C244.463 276.043 244 276.222 243.455 276.222ZM254.153 291.256C252.806 291.256 251.647 290.983 250.676 290.438C249.71 289.886 248.966 289.108 248.443 288.102C247.92 287.091 247.659 285.895 247.659 284.514C247.659 283.168 247.92 281.986 248.443 280.969C248.966 279.952 249.701 279.159 250.65 278.591C251.605 278.023 252.724 277.739 254.008 277.739C254.872 277.739 255.676 277.878 256.42 278.156C257.17 278.429 257.824 278.841 258.38 279.392C258.943 279.943 259.38 280.636 259.693 281.472C260.005 282.301 260.162 283.273 260.162 284.386V285.384H249.108V283.134H256.744C256.744 282.611 256.63 282.148 256.403 281.744C256.176 281.341 255.86 281.026 255.457 280.798C255.059 280.565 254.596 280.449 254.068 280.449C253.517 280.449 253.028 280.577 252.602 280.832C252.181 281.082 251.852 281.42 251.613 281.847C251.375 282.267 251.252 282.736 251.247 283.253V285.392C251.247 286.04 251.366 286.599 251.605 287.071C251.849 287.543 252.193 287.906 252.636 288.162C253.079 288.418 253.605 288.545 254.213 288.545C254.616 288.545 254.985 288.489 255.321 288.375C255.656 288.261 255.943 288.091 256.181 287.864C256.42 287.636 256.602 287.358 256.727 287.028L260.085 287.25C259.914 288.057 259.565 288.761 259.037 289.364C258.514 289.96 257.838 290.426 257.008 290.761C256.184 291.091 255.233 291.256 254.153 291.256ZM85.1058 306.909V309.636H77.0263V306.909H85.1058ZM78.8757 320V305.963C78.8757 305.014 79.0604 304.227 79.4297 303.602C79.8047 302.977 80.3161 302.509 80.9638 302.196C81.6115 301.884 82.3473 301.727 83.1712 301.727C83.728 301.727 84.2365 301.77 84.6967 301.855C85.1626 301.94 85.5092 302.017 85.7365 302.085L85.0888 304.812C84.9467 304.767 84.7706 304.724 84.5604 304.685C84.3558 304.645 84.1456 304.625 83.9297 304.625C83.3956 304.625 83.0234 304.75 82.8132 305C82.603 305.244 82.4979 305.588 82.4979 306.031V320H78.8757ZM95.7188 314.426V306.909H99.3494V320H95.8636V317.622H95.7273C95.4318 318.389 94.9403 319.006 94.2528 319.472C93.571 319.937 92.7386 320.17 91.7557 320.17C90.8807 320.17 90.1108 319.972 89.446 319.574C88.7813 319.176 88.2614 318.611 87.8864 317.878C87.517 317.145 87.3295 316.267 87.3239 315.244V306.909H90.9545V314.597C90.9602 315.369 91.1676 315.98 91.5767 316.429C91.9858 316.878 92.5341 317.102 93.2216 317.102C93.6591 317.102 94.0682 317.003 94.4489 316.804C94.8295 316.599 95.1364 316.298 95.3693 315.901C95.608 315.503 95.7244 315.011 95.7188 314.426ZM108.219 320.256C106.873 320.256 105.714 319.983 104.742 319.438C103.776 318.886 103.032 318.108 102.509 317.102C101.987 316.091 101.725 314.895 101.725 313.514C101.725 312.168 101.987 310.986 102.509 309.969C103.032 308.952 103.768 308.159 104.717 307.591C105.671 307.023 106.79 306.739 108.075 306.739C108.938 306.739 109.742 306.878 110.487 307.156C111.237 307.429 111.89 307.841 112.447 308.392C113.009 308.943 113.447 309.636 113.759 310.472C114.072 311.301 114.228 312.273 114.228 313.386V314.384H103.174V312.134H110.81C110.81 311.611 110.697 311.148 110.469 310.744C110.242 310.341 109.927 310.026 109.523 309.798C109.126 309.565 108.663 309.449 108.134 309.449C107.583 309.449 107.094 309.577 106.668 309.832C106.248 310.082 105.918 310.42 105.68 310.847C105.441 311.267 105.319 311.736 105.313 312.253V314.392C105.313 315.04 105.433 315.599 105.671 316.071C105.915 316.543 106.259 316.906 106.702 317.162C107.146 317.418 107.671 317.545 108.279 317.545C108.683 317.545 109.052 317.489 109.387 317.375C109.722 317.261 110.009 317.091 110.248 316.864C110.487 316.636 110.668 316.358 110.793 316.028L114.151 316.25C113.981 317.057 113.631 317.761 113.103 318.364C112.58 318.96 111.904 319.426 111.075 319.761C110.251 320.091 109.299 320.256 108.219 320.256ZM128.118 320.256C126.771 320.256 125.612 319.983 124.641 319.438C123.675 318.886 122.93 318.108 122.408 317.102C121.885 316.091 121.624 314.895 121.624 313.514C121.624 312.168 121.885 310.986 122.408 309.969C122.93 308.952 123.666 308.159 124.615 307.591C125.57 307.023 126.689 306.739 127.973 306.739C128.837 306.739 129.641 306.878 130.385 307.156C131.135 307.429 131.788 307.841 132.345 308.392C132.908 308.943 133.345 309.636 133.658 310.472C133.97 311.301 134.126 312.273 134.126 313.386V314.384H123.072V312.134H130.709C130.709 311.611 130.595 311.148 130.368 310.744C130.141 310.341 129.825 310.026 129.422 309.798C129.024 309.565 128.561 309.449 128.033 309.449C127.482 309.449 126.993 309.577 126.567 309.832C126.146 310.082 125.817 310.42 125.578 310.847C125.339 311.267 125.217 311.736 125.212 312.253V314.392C125.212 315.04 125.331 315.599 125.57 316.071C125.814 316.543 126.158 316.906 126.601 317.162C127.044 317.418 127.57 317.545 128.178 317.545C128.581 317.545 128.95 317.489 129.286 317.375C129.621 317.261 129.908 317.091 130.146 316.864C130.385 316.636 130.567 316.358 130.692 316.028L134.05 316.25C133.879 317.057 133.53 317.761 133.001 318.364C132.479 318.96 131.803 319.426 130.973 319.761C130.149 320.091 129.197 320.256 128.118 320.256ZM140.126 312.432V320H136.496V306.909H139.956V309.219H140.109C140.399 308.457 140.885 307.855 141.567 307.412C142.249 306.963 143.075 306.739 144.047 306.739C144.956 306.739 145.749 306.938 146.425 307.335C147.101 307.733 147.626 308.301 148.001 309.04C148.376 309.773 148.564 310.648 148.564 311.665V320H144.933V312.312C144.939 311.511 144.734 310.886 144.32 310.438C143.905 309.983 143.334 309.756 142.607 309.756C142.118 309.756 141.686 309.861 141.311 310.071C140.942 310.281 140.652 310.588 140.442 310.991C140.237 311.389 140.132 311.869 140.126 312.432ZM157.34 320.256C155.999 320.256 154.846 319.972 153.88 319.403C152.92 318.83 152.181 318.034 151.664 317.017C151.153 316 150.897 314.83 150.897 313.506C150.897 312.165 151.156 310.989 151.673 309.977C152.195 308.96 152.937 308.168 153.897 307.599C154.857 307.026 155.999 306.739 157.323 306.739C158.465 306.739 159.465 306.946 160.323 307.361C161.181 307.776 161.86 308.358 162.36 309.108C162.86 309.858 163.136 310.739 163.187 311.75H159.761C159.664 311.097 159.408 310.571 158.994 310.173C158.585 309.77 158.048 309.568 157.383 309.568C156.82 309.568 156.329 309.722 155.908 310.028C155.494 310.33 155.17 310.77 154.937 311.349C154.704 311.929 154.587 312.631 154.587 313.455C154.587 314.29 154.701 315 154.928 315.585C155.161 316.17 155.488 316.616 155.908 316.923C156.329 317.23 156.82 317.384 157.383 317.384C157.798 317.384 158.17 317.298 158.499 317.128C158.835 316.957 159.11 316.71 159.326 316.386C159.548 316.057 159.692 315.662 159.761 315.202H163.187C163.13 316.202 162.857 317.082 162.369 317.844C161.886 318.599 161.218 319.19 160.366 319.616C159.513 320.043 158.505 320.256 157.34 320.256ZM171.426 320.256C170.102 320.256 168.957 319.974 167.991 319.412C167.031 318.844 166.29 318.054 165.767 317.043C165.244 316.026 164.983 314.847 164.983 313.506C164.983 312.153 165.244 310.972 165.767 309.96C166.29 308.943 167.031 308.153 167.991 307.591C168.957 307.023 170.102 306.739 171.426 306.739C172.75 306.739 173.892 307.023 174.852 307.591C175.818 308.153 176.562 308.943 177.085 309.96C177.608 310.972 177.869 312.153 177.869 313.506C177.869 314.847 177.608 316.026 177.085 317.043C176.562 318.054 175.818 318.844 174.852 319.412C173.892 319.974 172.75 320.256 171.426 320.256ZM171.443 317.443C172.045 317.443 172.548 317.273 172.952 316.932C173.355 316.585 173.659 316.114 173.864 315.517C174.074 314.92 174.179 314.241 174.179 313.48C174.179 312.719 174.074 312.04 173.864 311.443C173.659 310.847 173.355 310.375 172.952 310.028C172.548 309.682 172.045 309.509 171.443 309.509C170.835 309.509 170.324 309.682 169.909 310.028C169.5 310.375 169.19 310.847 168.98 311.443C168.776 312.04 168.673 312.719 168.673 313.48C168.673 314.241 168.776 314.92 168.98 315.517C169.19 316.114 169.5 316.585 169.909 316.932C170.324 317.273 170.835 317.443 171.443 317.443ZM183.861 312.432V320H180.23V306.909H183.69V309.219H183.844C184.134 308.457 184.619 307.855 185.301 307.412C185.983 306.963 186.81 306.739 187.781 306.739C188.69 306.739 189.483 306.938 190.159 307.335C190.835 307.733 191.361 308.301 191.736 309.04C192.111 309.773 192.298 310.648 192.298 311.665V320H188.668V312.312C188.673 311.511 188.469 310.886 188.054 310.438C187.639 309.983 187.068 309.756 186.341 309.756C185.852 309.756 185.42 309.861 185.045 310.071C184.676 310.281 184.386 310.588 184.176 310.991C183.972 311.389 183.866 311.869 183.861 312.432ZM202.123 306.909V309.636H194.239V306.909H202.123ZM196.029 303.773H199.66V315.977C199.66 316.312 199.711 316.574 199.813 316.761C199.915 316.943 200.058 317.071 200.239 317.145C200.427 317.219 200.643 317.256 200.887 317.256C201.058 317.256 201.228 317.241 201.398 317.213C201.569 317.179 201.7 317.153 201.79 317.136L202.362 319.838C202.18 319.895 201.924 319.96 201.594 320.034C201.265 320.114 200.864 320.162 200.393 320.179C199.518 320.213 198.751 320.097 198.092 319.83C197.438 319.562 196.93 319.148 196.566 318.585C196.202 318.023 196.023 317.312 196.029 316.455V303.773ZM204.488 320V306.909H208.008V309.193H208.144C208.383 308.381 208.783 307.767 209.346 307.352C209.908 306.932 210.556 306.722 211.289 306.722C211.471 306.722 211.667 306.733 211.877 306.756C212.087 306.778 212.272 306.81 212.431 306.849V310.071C212.261 310.02 212.025 309.974 211.724 309.935C211.423 309.895 211.147 309.875 210.897 309.875C210.363 309.875 209.886 309.991 209.465 310.224C209.05 310.452 208.721 310.77 208.477 311.179C208.238 311.588 208.119 312.06 208.119 312.594V320H204.488ZM217.666 320.247C216.831 320.247 216.087 320.102 215.433 319.812C214.78 319.517 214.263 319.082 213.882 318.509C213.507 317.929 213.32 317.207 213.32 316.344C213.32 315.616 213.453 315.006 213.72 314.511C213.987 314.017 214.351 313.619 214.811 313.318C215.271 313.017 215.794 312.79 216.379 312.636C216.97 312.483 217.589 312.375 218.237 312.312C218.999 312.233 219.612 312.159 220.078 312.091C220.544 312.017 220.882 311.909 221.092 311.767C221.303 311.625 221.408 311.415 221.408 311.136V311.085C221.408 310.545 221.237 310.128 220.896 309.832C220.561 309.537 220.084 309.389 219.464 309.389C218.811 309.389 218.291 309.534 217.905 309.824C217.518 310.108 217.263 310.466 217.138 310.898L213.78 310.625C213.95 309.83 214.286 309.142 214.786 308.562C215.286 307.977 215.93 307.528 216.72 307.216C217.516 306.898 218.436 306.739 219.482 306.739C220.209 306.739 220.905 306.824 221.57 306.994C222.24 307.165 222.834 307.429 223.351 307.787C223.874 308.145 224.286 308.605 224.587 309.168C224.888 309.724 225.038 310.392 225.038 311.17V320H221.595V318.185H221.493C221.283 318.594 221.001 318.955 220.649 319.267C220.297 319.574 219.874 319.815 219.379 319.991C218.885 320.162 218.314 320.247 217.666 320.247ZM218.706 317.741C219.24 317.741 219.712 317.636 220.121 317.426C220.53 317.21 220.851 316.92 221.084 316.557C221.317 316.193 221.433 315.781 221.433 315.321V313.932C221.32 314.006 221.163 314.074 220.964 314.136C220.771 314.193 220.553 314.247 220.308 314.298C220.064 314.344 219.82 314.386 219.575 314.426C219.331 314.46 219.109 314.491 218.911 314.52C218.484 314.582 218.112 314.682 217.794 314.818C217.476 314.955 217.229 315.139 217.053 315.372C216.876 315.599 216.788 315.884 216.788 316.224C216.788 316.719 216.967 317.097 217.325 317.358C217.689 317.614 218.149 317.741 218.706 317.741ZM232.679 320.213C231.685 320.213 230.784 319.957 229.977 319.446C229.176 318.929 228.54 318.17 228.068 317.17C227.602 316.165 227.369 314.932 227.369 313.472C227.369 311.972 227.611 310.724 228.094 309.73C228.577 308.73 229.219 307.983 230.02 307.489C230.827 306.989 231.71 306.739 232.67 306.739C233.403 306.739 234.014 306.864 234.503 307.114C234.997 307.358 235.395 307.665 235.696 308.034C236.003 308.398 236.236 308.756 236.395 309.108H236.506V302.545H240.128V320H236.548V317.903H236.395C236.224 318.267 235.983 318.628 235.67 318.986C235.364 319.338 234.963 319.631 234.469 319.864C233.98 320.097 233.384 320.213 232.679 320.213ZM233.83 317.324C234.415 317.324 234.909 317.165 235.312 316.847C235.722 316.523 236.034 316.071 236.25 315.491C236.472 314.912 236.582 314.233 236.582 313.455C236.582 312.676 236.474 312 236.259 311.426C236.043 310.852 235.73 310.409 235.321 310.097C234.912 309.784 234.415 309.628 233.83 309.628C233.233 309.628 232.73 309.79 232.321 310.114C231.912 310.437 231.602 310.886 231.392 311.46C231.182 312.034 231.077 312.699 231.077 313.455C231.077 314.216 231.182 314.889 231.392 315.474C231.608 316.054 231.918 316.509 232.321 316.838C232.73 317.162 233.233 317.324 233.83 317.324ZM249.028 320.256C247.704 320.256 246.559 319.974 245.593 319.412C244.633 318.844 243.891 318.054 243.369 317.043C242.846 316.026 242.585 314.847 242.585 313.506C242.585 312.153 242.846 310.972 243.369 309.96C243.891 308.943 244.633 308.153 245.593 307.591C246.559 307.023 247.704 306.739 249.028 306.739C250.352 306.739 251.494 307.023 252.454 307.591C253.42 308.153 254.164 308.943 254.687 309.96C255.21 310.972 255.471 312.153 255.471 313.506C255.471 314.847 255.21 316.026 254.687 317.043C254.164 318.054 253.42 318.844 252.454 319.412C251.494 319.974 250.352 320.256 249.028 320.256ZM249.045 317.443C249.647 317.443 250.15 317.273 250.553 316.932C250.957 316.585 251.261 316.114 251.465 315.517C251.675 314.92 251.781 314.241 251.781 313.48C251.781 312.719 251.675 312.04 251.465 311.443C251.261 310.847 250.957 310.375 250.553 310.028C250.15 309.682 249.647 309.509 249.045 309.509C248.437 309.509 247.925 309.682 247.511 310.028C247.102 310.375 246.792 310.847 246.582 311.443C246.377 312.04 246.275 312.719 246.275 313.48C246.275 314.241 246.377 314.92 246.582 315.517C246.792 316.114 247.102 316.585 247.511 316.932C247.925 317.273 248.437 317.443 249.045 317.443Z" fill="#343A40"/>
<path d="M65.076 348.364V360H63.6669V348.364H65.076ZM69.0604 354.75V360H67.7195V351.273H69.0149V352.636H69.1286C69.3331 352.193 69.6437 351.837 70.0604 351.568C70.477 351.295 71.0149 351.159 71.674 351.159C72.2649 351.159 72.782 351.28 73.2251 351.523C73.6683 351.761 74.013 352.125 74.2592 352.614C74.5054 353.098 74.6286 353.712 74.6286 354.455V360H73.2876V354.545C73.2876 353.86 73.1096 353.326 72.7536 352.943C72.3975 352.557 71.9089 352.364 71.2876 352.364C70.8596 352.364 70.477 352.456 70.1399 352.642C69.8066 352.828 69.5433 353.098 69.3501 353.455C69.157 353.811 69.0604 354.242 69.0604 354.75ZM80.6016 363.455C79.9538 363.455 79.397 363.371 78.9311 363.205C78.4652 363.042 78.0769 362.826 77.7663 362.557C77.4595 362.292 77.2152 362.008 77.0334 361.705L78.1016 360.955C78.2228 361.114 78.3762 361.295 78.5618 361.5C78.7474 361.708 79.0012 361.888 79.3232 362.04C79.6489 362.195 80.075 362.273 80.6016 362.273C81.3061 362.273 81.8875 362.102 82.3459 361.761C82.8042 361.42 83.0334 360.886 83.0334 360.159V358.386H82.9197C82.8213 358.545 82.6811 358.742 82.4993 358.977C82.3213 359.208 82.0637 359.415 81.7266 359.597C81.3932 359.775 80.9425 359.864 80.3743 359.864C79.6697 359.864 79.0372 359.697 78.4766 359.364C77.9197 359.03 77.4785 358.545 77.1527 357.909C76.8307 357.273 76.6697 356.5 76.6697 355.591C76.6697 354.697 76.8269 353.919 77.1413 353.256C77.4557 352.589 77.8932 352.074 78.4538 351.71C79.0144 351.343 79.6622 351.159 80.397 351.159C80.9652 351.159 81.416 351.254 81.7493 351.443C82.0864 351.629 82.344 351.841 82.522 352.08C82.7038 352.314 82.844 352.508 82.9425 352.659H83.0788V351.273H84.3743V360.25C84.3743 361 84.2038 361.61 83.8629 362.08C83.5258 362.553 83.0713 362.9 82.4993 363.119C81.9311 363.343 81.2985 363.455 80.6016 363.455ZM80.5561 358.659C81.094 358.659 81.5485 358.536 81.9197 358.29C82.291 358.044 82.5732 357.689 82.7663 357.227C82.9595 356.765 83.0561 356.212 83.0561 355.568C83.0561 354.939 82.9614 354.384 82.772 353.903C82.5826 353.422 82.3023 353.045 81.9311 352.773C81.5599 352.5 81.1016 352.364 80.5561 352.364C79.9879 352.364 79.5144 352.508 79.1357 352.795C78.7607 353.083 78.4785 353.47 78.2891 353.955C78.1035 354.439 78.0107 354.977 78.0107 355.568C78.0107 356.174 78.1054 356.71 78.2947 357.176C78.4879 357.638 78.772 358.002 79.147 358.267C79.5258 358.528 79.9955 358.659 80.5561 358.659ZM86.8288 360V351.273H88.1243V352.591H88.2152C88.3743 352.159 88.6622 351.809 89.0788 351.54C89.4955 351.271 89.9652 351.136 90.4879 351.136C90.5864 351.136 90.7095 351.138 90.8572 351.142C91.005 351.146 91.1167 351.152 91.1925 351.159V352.523C91.147 352.511 91.0429 352.494 90.88 352.472C90.7209 352.445 90.5523 352.432 90.3743 352.432C89.95 352.432 89.5713 352.521 89.2379 352.699C88.9084 352.873 88.647 353.116 88.4538 353.426C88.2644 353.733 88.1697 354.083 88.1697 354.477V360H86.8288ZM96.1754 360.182C95.3345 360.182 94.6091 359.996 93.9993 359.625C93.3932 359.25 92.9254 358.727 92.5959 358.057C92.2701 357.383 92.1072 356.598 92.1072 355.705C92.1072 354.811 92.2701 354.023 92.5959 353.341C92.9254 352.655 93.3838 352.121 93.9709 351.739C94.5618 351.352 95.2512 351.159 96.0391 351.159C96.4936 351.159 96.9425 351.235 97.3857 351.386C97.8288 351.538 98.2322 351.784 98.5959 352.125C98.9595 352.462 99.2493 352.909 99.4652 353.466C99.6811 354.023 99.7891 354.708 99.7891 355.523V356.091H93.0618V354.932H98.4254C98.4254 354.439 98.3269 354 98.13 353.614C97.9368 353.227 97.6603 352.922 97.3004 352.699C96.9444 352.475 96.5239 352.364 96.0391 352.364C95.505 352.364 95.0429 352.496 94.6527 352.761C94.2663 353.023 93.969 353.364 93.7607 353.784C93.5523 354.205 93.4482 354.655 93.4482 355.136V355.909C93.4482 356.568 93.5618 357.127 93.7891 357.585C94.0201 358.04 94.3402 358.386 94.7493 358.625C95.1584 358.86 95.6338 358.977 96.1754 358.977C96.5277 358.977 96.8459 358.928 97.13 358.83C97.4179 358.727 97.666 358.576 97.8743 358.375C98.0826 358.17 98.2436 357.917 98.3572 357.614L99.6527 357.977C99.5163 358.417 99.2872 358.803 98.9652 359.136C98.6432 359.466 98.2455 359.723 97.772 359.909C97.2985 360.091 96.7663 360.182 96.1754 360.182ZM108.011 353.227L106.806 353.568C106.73 353.367 106.619 353.172 106.471 352.983C106.327 352.79 106.13 352.631 105.88 352.506C105.63 352.381 105.31 352.318 104.92 352.318C104.386 352.318 103.941 352.441 103.585 352.688C103.232 352.93 103.056 353.239 103.056 353.614C103.056 353.947 103.177 354.21 103.42 354.403C103.662 354.597 104.041 354.758 104.556 354.886L105.852 355.205C106.632 355.394 107.213 355.684 107.596 356.074C107.978 356.46 108.17 356.958 108.17 357.568C108.17 358.068 108.026 358.515 107.738 358.909C107.454 359.303 107.056 359.614 106.545 359.841C106.033 360.068 105.439 360.182 104.761 360.182C103.871 360.182 103.134 359.989 102.55 359.602C101.967 359.216 101.598 358.652 101.442 357.909L102.715 357.591C102.836 358.061 103.066 358.413 103.403 358.648C103.744 358.883 104.189 359 104.738 359C105.363 359 105.859 358.867 106.227 358.602C106.598 358.333 106.783 358.011 106.783 357.636C106.783 357.333 106.677 357.08 106.465 356.875C106.253 356.667 105.927 356.511 105.488 356.409L104.033 356.068C103.234 355.879 102.647 355.585 102.272 355.188C101.901 354.786 101.715 354.284 101.715 353.682C101.715 353.189 101.853 352.754 102.13 352.375C102.41 351.996 102.791 351.699 103.272 351.483C103.757 351.267 104.306 351.159 104.92 351.159C105.783 351.159 106.461 351.348 106.954 351.727C107.45 352.106 107.802 352.606 108.011 353.227ZM112.756 360.205C112.203 360.205 111.701 360.1 111.251 359.892C110.8 359.68 110.442 359.375 110.177 358.977C109.912 358.576 109.779 358.091 109.779 357.523C109.779 357.023 109.878 356.617 110.075 356.307C110.272 355.992 110.535 355.746 110.864 355.568C111.194 355.39 111.558 355.258 111.955 355.17C112.357 355.08 112.76 355.008 113.165 354.955C113.696 354.886 114.126 354.835 114.455 354.801C114.789 354.763 115.031 354.701 115.183 354.614C115.338 354.527 115.415 354.375 115.415 354.159V354.114C115.415 353.553 115.262 353.117 114.955 352.807C114.652 352.496 114.192 352.341 113.575 352.341C112.934 352.341 112.433 352.481 112.069 352.761C111.705 353.042 111.45 353.341 111.302 353.659L110.029 353.205C110.256 352.674 110.559 352.261 110.938 351.966C111.321 351.667 111.737 351.458 112.188 351.341C112.643 351.22 113.09 351.159 113.529 351.159C113.809 351.159 114.131 351.193 114.495 351.261C114.862 351.326 115.217 351.46 115.558 351.665C115.902 351.869 116.188 352.178 116.415 352.591C116.643 353.004 116.756 353.557 116.756 354.25V360H115.415V358.818H115.347C115.256 359.008 115.105 359.21 114.893 359.426C114.681 359.642 114.398 359.826 114.046 359.977C113.694 360.129 113.264 360.205 112.756 360.205ZM112.961 359C113.491 359 113.938 358.896 114.302 358.688C114.669 358.479 114.946 358.21 115.131 357.881C115.321 357.551 115.415 357.205 115.415 356.841V355.614C115.359 355.682 115.234 355.744 115.04 355.801C114.851 355.854 114.631 355.902 114.381 355.943C114.135 355.981 113.895 356.015 113.66 356.045C113.429 356.072 113.241 356.095 113.097 356.114C112.749 356.159 112.423 356.233 112.12 356.335C111.821 356.434 111.578 356.583 111.393 356.784C111.211 356.981 111.12 357.25 111.12 357.591C111.12 358.057 111.292 358.409 111.637 358.648C111.986 358.883 112.427 359 112.961 359ZM127.363 360.182C126.522 360.182 125.797 359.996 125.187 359.625C124.581 359.25 124.113 358.727 123.783 358.057C123.458 357.383 123.295 356.598 123.295 355.705C123.295 354.811 123.458 354.023 123.783 353.341C124.113 352.655 124.571 352.121 125.158 351.739C125.749 351.352 126.439 351.159 127.227 351.159C127.681 351.159 128.13 351.235 128.573 351.386C129.016 351.538 129.42 351.784 129.783 352.125C130.147 352.462 130.437 352.909 130.653 353.466C130.869 354.023 130.977 354.708 130.977 355.523V356.091H124.249V354.932H129.613C129.613 354.439 129.514 354 129.317 353.614C129.124 353.227 128.848 352.922 128.488 352.699C128.132 352.475 127.711 352.364 127.227 352.364C126.692 352.364 126.23 352.496 125.84 352.761C125.454 353.023 125.156 353.364 124.948 353.784C124.74 354.205 124.636 354.655 124.636 355.136V355.909C124.636 356.568 124.749 357.127 124.977 357.585C125.208 358.04 125.528 358.386 125.937 358.625C126.346 358.86 126.821 358.977 127.363 358.977C127.715 358.977 128.033 358.928 128.317 358.83C128.605 358.727 128.853 358.576 129.062 358.375C129.27 358.17 129.431 357.917 129.545 357.614L130.84 357.977C130.704 358.417 130.475 358.803 130.153 359.136C129.831 359.466 129.433 359.723 128.96 359.909C128.486 360.091 127.954 360.182 127.363 360.182ZM134.357 348.364V360H133.016V348.364H134.357ZM145.109 351.273V352.409H140.586V351.273H145.109ZM141.904 349.182H143.245V357.5C143.245 357.879 143.3 358.163 143.41 358.352C143.523 358.538 143.667 358.663 143.842 358.727C144.02 358.788 144.207 358.818 144.404 358.818C144.552 358.818 144.673 358.811 144.768 358.795C144.862 358.777 144.938 358.761 144.995 358.75L145.268 359.955C145.177 359.989 145.05 360.023 144.887 360.057C144.724 360.095 144.518 360.114 144.268 360.114C143.889 360.114 143.518 360.032 143.154 359.869C142.794 359.706 142.495 359.458 142.256 359.125C142.022 358.792 141.904 358.371 141.904 357.864V349.182ZM150.691 360.182C149.85 360.182 149.125 359.996 148.515 359.625C147.909 359.25 147.441 358.727 147.112 358.057C146.786 357.383 146.623 356.598 146.623 355.705C146.623 354.811 146.786 354.023 147.112 353.341C147.441 352.655 147.899 352.121 148.487 351.739C149.077 351.352 149.767 351.159 150.555 351.159C151.009 351.159 151.458 351.235 151.901 351.386C152.344 351.538 152.748 351.784 153.112 352.125C153.475 352.462 153.765 352.909 153.981 353.466C154.197 354.023 154.305 354.708 154.305 355.523V356.091H147.577V354.932H152.941C152.941 354.439 152.843 354 152.646 353.614C152.452 353.227 152.176 352.922 151.816 352.699C151.46 352.475 151.04 352.364 150.555 352.364C150.021 352.364 149.558 352.496 149.168 352.761C148.782 353.023 148.485 353.364 148.276 353.784C148.068 354.205 147.964 354.655 147.964 355.136V355.909C147.964 356.568 148.077 357.127 148.305 357.585C148.536 358.04 148.856 358.386 149.265 358.625C149.674 358.86 150.149 358.977 150.691 358.977C151.043 358.977 151.362 358.928 151.646 358.83C151.933 358.727 152.182 358.576 152.39 358.375C152.598 358.17 152.759 357.917 152.873 357.614L154.168 357.977C154.032 358.417 153.803 358.803 153.481 359.136C153.159 359.466 152.761 359.723 152.288 359.909C151.814 360.091 151.282 360.182 150.691 360.182ZM157.11 351.273L159.201 354.841L161.292 351.273H162.837L160.019 355.636L162.837 360H161.292L159.201 356.614L157.11 360H155.565L158.337 355.636L155.565 351.273H157.11ZM168.546 351.273V352.409H164.023V351.273H168.546ZM165.342 349.182H166.683V357.5C166.683 357.879 166.737 358.163 166.847 358.352C166.961 358.538 167.105 358.663 167.279 358.727C167.457 358.788 167.645 358.818 167.842 358.818C167.989 358.818 168.111 358.811 168.205 358.795C168.3 358.777 168.376 358.761 168.433 358.75L168.705 359.955C168.614 359.989 168.487 360.023 168.325 360.057C168.162 360.095 167.955 360.114 167.705 360.114C167.326 360.114 166.955 360.032 166.592 359.869C166.232 359.706 165.933 359.458 165.694 359.125C165.459 358.792 165.342 358.371 165.342 357.864V349.182ZM174.015 360.182C173.227 360.182 172.536 359.994 171.941 359.619C171.35 359.244 170.888 358.72 170.555 358.045C170.225 357.371 170.06 356.583 170.06 355.682C170.06 354.773 170.225 353.979 170.555 353.301C170.888 352.623 171.35 352.097 171.941 351.722C172.536 351.347 173.227 351.159 174.015 351.159C174.803 351.159 175.492 351.347 176.083 351.722C176.678 352.097 177.14 352.623 177.469 353.301C177.803 353.979 177.969 354.773 177.969 355.682C177.969 356.583 177.803 357.371 177.469 358.045C177.14 358.72 176.678 359.244 176.083 359.619C175.492 359.994 174.803 360.182 174.015 360.182ZM174.015 358.977C174.613 358.977 175.106 358.824 175.492 358.517C175.879 358.21 176.165 357.807 176.35 357.307C176.536 356.807 176.629 356.265 176.629 355.682C176.629 355.098 176.536 354.555 176.35 354.051C176.165 353.547 175.879 353.14 175.492 352.83C175.106 352.519 174.613 352.364 174.015 352.364C173.416 352.364 172.924 352.519 172.538 352.83C172.151 353.14 171.865 353.547 171.68 354.051C171.494 354.555 171.401 355.098 171.401 355.682C171.401 356.265 171.494 356.807 171.68 357.307C171.865 357.807 172.151 358.21 172.538 358.517C172.924 358.824 173.416 358.977 174.015 358.977ZM190.471 363.273V358.659H190.357C190.259 358.818 190.119 359.019 189.937 359.261C189.755 359.5 189.496 359.714 189.158 359.903C188.821 360.089 188.372 360.182 187.812 360.182C187.085 360.182 186.442 359.998 185.886 359.631C185.329 359.259 184.893 358.737 184.579 358.062C184.264 357.384 184.107 356.583 184.107 355.659C184.107 354.742 184.264 353.947 184.579 353.273C184.893 352.598 185.331 352.078 185.891 351.71C186.452 351.343 187.1 351.159 187.835 351.159C188.403 351.159 188.852 351.254 189.181 351.443C189.514 351.629 189.768 351.841 189.942 352.08C190.121 352.314 190.259 352.508 190.357 352.659H190.516V351.273H191.812V363.273H190.471ZM187.994 358.977C188.531 358.977 188.986 358.837 189.357 358.557C189.728 358.273 190.011 357.881 190.204 357.381C190.397 356.877 190.494 356.295 190.494 355.636C190.494 354.985 190.399 354.415 190.21 353.926C190.02 353.434 189.74 353.051 189.369 352.778C188.997 352.502 188.539 352.364 187.994 352.364C187.425 352.364 186.952 352.509 186.573 352.801C186.198 353.089 185.916 353.481 185.727 353.977C185.541 354.47 185.448 355.023 185.448 355.636C185.448 356.258 185.543 356.822 185.732 357.33C185.925 357.833 186.21 358.235 186.585 358.534C186.963 358.83 187.433 358.977 187.994 358.977ZM199.766 356.432V351.273H201.107V360H199.766V358.523H199.675C199.471 358.966 199.153 359.343 198.721 359.653C198.289 359.96 197.744 360.114 197.085 360.114C196.539 360.114 196.054 359.994 195.63 359.756C195.206 359.513 194.872 359.15 194.63 358.665C194.388 358.176 194.266 357.561 194.266 356.818V351.273H195.607V356.727C195.607 357.364 195.785 357.871 196.141 358.25C196.501 358.629 196.96 358.818 197.516 358.818C197.85 358.818 198.189 358.733 198.533 358.562C198.882 358.392 199.174 358.131 199.408 357.778C199.647 357.426 199.766 356.977 199.766 356.432ZM207.222 360.182C206.381 360.182 205.656 359.996 205.046 359.625C204.44 359.25 203.972 358.727 203.643 358.057C203.317 357.383 203.154 356.598 203.154 355.705C203.154 354.811 203.317 354.023 203.643 353.341C203.972 352.655 204.431 352.121 205.018 351.739C205.609 351.352 206.298 351.159 207.086 351.159C207.54 351.159 207.989 351.235 208.433 351.386C208.876 351.538 209.279 351.784 209.643 352.125C210.006 352.462 210.296 352.909 210.512 353.466C210.728 354.023 210.836 354.708 210.836 355.523V356.091H204.109V354.932H209.472C209.472 354.439 209.374 354 209.177 353.614C208.984 353.227 208.707 352.922 208.347 352.699C207.991 352.475 207.571 352.364 207.086 352.364C206.552 352.364 206.09 352.496 205.7 352.761C205.313 353.023 205.016 353.364 204.808 353.784C204.599 354.205 204.495 354.655 204.495 355.136V355.909C204.495 356.568 204.609 357.127 204.836 357.585C205.067 358.04 205.387 358.386 205.796 358.625C206.205 358.86 206.681 358.977 207.222 358.977C207.575 358.977 207.893 358.928 208.177 358.83C208.465 358.727 208.713 358.576 208.921 358.375C209.129 358.17 209.29 357.917 209.404 357.614L210.7 357.977C210.563 358.417 210.334 358.803 210.012 359.136C209.69 359.466 209.292 359.723 208.819 359.909C208.345 360.091 207.813 360.182 207.222 360.182ZM220.671 360.182C219.944 360.182 219.302 359.998 218.745 359.631C218.188 359.259 217.753 358.737 217.438 358.062C217.124 357.384 216.967 356.583 216.967 355.659C216.967 354.742 217.124 353.947 217.438 353.273C217.753 352.598 218.19 352.078 218.751 351.71C219.311 351.343 219.959 351.159 220.694 351.159C221.262 351.159 221.711 351.254 222.04 351.443C222.374 351.629 222.628 351.841 222.802 352.08C222.98 352.314 223.118 352.508 223.217 352.659H223.33V348.364H224.671V360H223.376V358.659H223.217C223.118 358.818 222.978 359.019 222.796 359.261C222.614 359.5 222.355 359.714 222.018 359.903C221.681 360.089 221.232 360.182 220.671 360.182ZM220.853 358.977C221.391 358.977 221.845 358.837 222.217 358.557C222.588 358.273 222.87 357.881 223.063 357.381C223.256 356.877 223.353 356.295 223.353 355.636C223.353 354.985 223.258 354.415 223.069 353.926C222.879 353.434 222.599 353.051 222.228 352.778C221.857 352.502 221.398 352.364 220.853 352.364C220.285 352.364 219.811 352.509 219.433 352.801C219.058 353.089 218.775 353.481 218.586 353.977C218.4 354.47 218.308 355.023 218.308 355.636C218.308 356.258 218.402 356.822 218.592 357.33C218.785 357.833 219.069 358.235 219.444 358.534C219.823 358.83 220.292 358.977 220.853 358.977ZM230.972 360.182C230.131 360.182 229.406 359.996 228.796 359.625C228.19 359.25 227.722 358.727 227.393 358.057C227.067 357.383 226.904 356.598 226.904 355.705C226.904 354.811 227.067 354.023 227.393 353.341C227.722 352.655 228.181 352.121 228.768 351.739C229.359 351.352 230.048 351.159 230.836 351.159C231.29 351.159 231.739 351.235 232.183 351.386C232.626 351.538 233.029 351.784 233.393 352.125C233.756 352.462 234.046 352.909 234.262 353.466C234.478 354.023 234.586 354.708 234.586 355.523V356.091H227.859V354.932H233.222C233.222 354.439 233.124 354 232.927 353.614C232.734 353.227 232.457 352.922 232.097 352.699C231.741 352.475 231.321 352.364 230.836 352.364C230.302 352.364 229.84 352.496 229.45 352.761C229.063 353.023 228.766 353.364 228.558 353.784C228.349 354.205 228.245 354.655 228.245 355.136V355.909C228.245 356.568 228.359 357.127 228.586 357.585C228.817 358.04 229.137 358.386 229.546 358.625C229.955 358.86 230.431 358.977 230.972 358.977C231.325 358.977 231.643 358.928 231.927 358.83C232.215 358.727 232.463 358.576 232.671 358.375C232.879 358.17 233.04 357.917 233.154 357.614L234.45 357.977C234.313 358.417 234.084 358.803 233.762 359.136C233.44 359.466 233.042 359.723 232.569 359.909C232.095 360.091 231.563 360.182 230.972 360.182ZM242.808 353.227L241.603 353.568C241.527 353.367 241.415 353.172 241.268 352.983C241.124 352.79 240.927 352.631 240.677 352.506C240.427 352.381 240.107 352.318 239.717 352.318C239.183 352.318 238.737 352.441 238.381 352.688C238.029 352.93 237.853 353.239 237.853 353.614C237.853 353.947 237.974 354.21 238.217 354.403C238.459 354.597 238.838 354.758 239.353 354.886L240.648 355.205C241.429 355.394 242.01 355.684 242.393 356.074C242.775 356.46 242.967 356.958 242.967 357.568C242.967 358.068 242.823 358.515 242.535 358.909C242.251 359.303 241.853 359.614 241.342 359.841C240.83 360.068 240.236 360.182 239.558 360.182C238.667 360.182 237.931 359.989 237.347 359.602C236.764 359.216 236.395 358.652 236.239 357.909L237.512 357.591C237.633 358.061 237.862 358.413 238.2 358.648C238.54 358.883 238.986 359 239.535 359C240.16 359 240.656 358.867 241.023 358.602C241.395 358.333 241.58 358.011 241.58 357.636C241.58 357.333 241.474 357.08 241.262 356.875C241.05 356.667 240.724 356.511 240.285 356.409L238.83 356.068C238.031 355.879 237.444 355.585 237.069 355.188C236.698 354.786 236.512 354.284 236.512 353.682C236.512 353.189 236.65 352.754 236.927 352.375C237.207 351.996 237.588 351.699 238.069 351.483C238.554 351.267 239.103 351.159 239.717 351.159C240.58 351.159 241.258 351.348 241.751 351.727C242.247 352.106 242.599 352.606 242.808 353.227ZM248.644 360.182C247.803 360.182 247.078 359.996 246.468 359.625C245.862 359.25 245.394 358.727 245.065 358.057C244.739 357.383 244.576 356.598 244.576 355.705C244.576 354.811 244.739 354.023 245.065 353.341C245.394 352.655 245.853 352.121 246.44 351.739C247.031 351.352 247.72 351.159 248.508 351.159C248.962 351.159 249.411 351.235 249.854 351.386C250.298 351.538 250.701 351.784 251.065 352.125C251.428 352.462 251.718 352.909 251.934 353.466C252.15 354.023 252.258 354.708 252.258 355.523V356.091H245.531V354.932H250.894C250.894 354.439 250.796 354 250.599 353.614C250.406 353.227 250.129 352.922 249.769 352.699C249.413 352.475 248.993 352.364 248.508 352.364C247.974 352.364 247.512 352.496 247.121 352.761C246.735 353.023 246.438 353.364 246.229 353.784C246.021 354.205 245.917 354.655 245.917 355.136V355.909C245.917 356.568 246.031 357.127 246.258 357.585C246.489 358.04 246.809 358.386 247.218 358.625C247.627 358.86 248.103 358.977 248.644 358.977C248.996 358.977 249.315 358.928 249.599 358.83C249.887 358.727 250.135 358.576 250.343 358.375C250.551 358.17 250.712 357.917 250.826 357.614L252.121 357.977C251.985 358.417 251.756 358.803 251.434 359.136C251.112 359.466 250.714 359.723 250.241 359.909C249.767 360.091 249.235 360.182 248.644 360.182ZM257.957 360.182C257.116 360.182 256.39 359.996 255.781 359.625C255.174 359.25 254.707 358.727 254.377 358.057C254.051 357.383 253.888 356.598 253.888 355.705C253.888 354.811 254.051 354.023 254.377 353.341C254.707 352.655 255.165 352.121 255.752 351.739C256.343 351.352 257.032 351.159 257.82 351.159C258.275 351.159 258.724 351.235 259.167 351.386C259.61 351.538 260.013 351.784 260.377 352.125C260.741 352.462 261.031 352.909 261.246 353.466C261.462 354.023 261.57 354.708 261.57 355.523V356.091H254.843V354.932H260.207C260.207 354.439 260.108 354 259.911 353.614C259.718 353.227 259.442 352.922 259.082 352.699C258.726 352.475 258.305 352.364 257.82 352.364C257.286 352.364 256.824 352.496 256.434 352.761C256.048 353.023 255.75 353.364 255.542 353.784C255.334 354.205 255.229 354.655 255.229 355.136V355.909C255.229 356.568 255.343 357.127 255.57 357.585C255.801 358.04 256.121 358.386 256.531 358.625C256.94 358.86 257.415 358.977 257.957 358.977C258.309 358.977 258.627 358.928 258.911 358.83C259.199 358.727 259.447 358.576 259.656 358.375C259.864 358.17 260.025 357.917 260.138 357.614L261.434 357.977C261.298 358.417 261.068 358.803 260.746 359.136C260.424 359.466 260.027 359.723 259.553 359.909C259.08 360.091 258.548 360.182 257.957 360.182ZM269.792 353.227L268.587 353.568C268.512 353.367 268.4 353.172 268.252 352.983C268.108 352.79 267.911 352.631 267.661 352.506C267.411 352.381 267.091 352.318 266.701 352.318C266.167 352.318 265.722 352.441 265.366 352.688C265.013 352.93 264.837 353.239 264.837 353.614C264.837 353.947 264.959 354.21 265.201 354.403C265.443 354.597 265.822 354.758 266.337 354.886L267.633 355.205C268.413 355.394 268.995 355.684 269.377 356.074C269.76 356.46 269.951 356.958 269.951 357.568C269.951 358.068 269.807 358.515 269.519 358.909C269.235 359.303 268.837 359.614 268.326 359.841C267.815 360.068 267.22 360.182 266.542 360.182C265.652 360.182 264.915 359.989 264.332 359.602C263.748 359.216 263.379 358.652 263.224 357.909L264.496 357.591C264.618 358.061 264.847 358.413 265.184 358.648C265.525 358.883 265.97 359 266.519 359C267.144 359 267.64 358.867 268.008 358.602C268.379 358.333 268.565 358.011 268.565 357.636C268.565 357.333 268.459 357.08 268.246 356.875C268.034 356.667 267.709 356.511 267.269 356.409L265.815 356.068C265.015 355.879 264.428 355.585 264.053 355.188C263.682 354.786 263.496 354.284 263.496 353.682C263.496 353.189 263.635 352.754 263.911 352.375C264.192 351.996 264.572 351.699 265.053 351.483C265.538 351.267 266.087 351.159 266.701 351.159C267.565 351.159 268.243 351.348 268.735 351.727C269.231 352.106 269.584 352.606 269.792 353.227ZM78.7145 384.182C77.8736 384.182 77.1482 383.996 76.5384 383.625C75.9323 383.25 75.4645 382.727 75.1349 382.057C74.8092 381.383 74.6463 380.598 74.6463 379.705C74.6463 378.811 74.8092 378.023 75.1349 377.341C75.4645 376.655 75.9228 376.121 76.5099 375.739C77.1009 375.352 77.7902 375.159 78.5781 375.159C79.0327 375.159 79.4815 375.235 79.9247 375.386C80.3679 375.538 80.7713 375.784 81.1349 376.125C81.4986 376.462 81.7884 376.909 82.0043 377.466C82.2202 378.023 82.3281 378.708 82.3281 379.523V380.091H75.6009V378.932H80.9645C80.9645 378.439 80.866 378 80.669 377.614C80.4759 377.227 80.1993 376.922 79.8395 376.699C79.4834 376.475 79.063 376.364 78.5781 376.364C78.044 376.364 77.5819 376.496 77.1918 376.761C76.8054 377.023 76.508 377.364 76.2997 377.784C76.0914 378.205 75.9872 378.655 75.9872 379.136V379.909C75.9872 380.568 76.1009 381.127 76.3281 381.585C76.5592 382.04 76.8793 382.386 77.2884 382.625C77.6974 382.86 78.1728 382.977 78.7145 382.977C79.0668 382.977 79.3849 382.928 79.669 382.83C79.9569 382.727 80.205 382.576 80.4134 382.375C80.6217 382.17 80.7827 381.917 80.8963 381.614L82.1918 381.977C82.0554 382.417 81.8262 382.803 81.5043 383.136C81.1823 383.466 80.7846 383.723 80.3111 383.909C79.8376 384.091 79.3054 384.182 78.7145 384.182ZM85.7088 378.75V384H84.3679V375.273H85.6634V376.636H85.777C85.9815 376.193 86.2921 375.837 86.7088 375.568C87.1255 375.295 87.6634 375.159 88.3224 375.159C88.9134 375.159 89.4304 375.28 89.8736 375.523C90.3168 375.761 90.6615 376.125 90.9077 376.614C91.1539 377.098 91.277 377.712 91.277 378.455V384H89.9361V378.545C89.9361 377.86 89.758 377.326 89.402 376.943C89.0459 376.557 88.5573 376.364 87.9361 376.364C87.508 376.364 87.1255 376.456 86.7884 376.642C86.455 376.828 86.1918 377.098 85.9986 377.455C85.8054 377.811 85.7088 378.242 85.7088 378.75ZM97.2727 384.182C96.4545 384.182 95.75 383.989 95.1591 383.602C94.5682 383.216 94.1136 382.684 93.7955 382.006C93.4773 381.328 93.3182 380.553 93.3182 379.682C93.3182 378.795 93.4811 378.013 93.8068 377.335C94.1364 376.653 94.5947 376.121 95.1818 375.739C95.7727 375.352 96.4621 375.159 97.25 375.159C97.8636 375.159 98.4167 375.273 98.9091 375.5C99.4015 375.727 99.8049 376.045 100.119 376.455C100.434 376.864 100.629 377.341 100.705 377.886H99.3636C99.2614 377.489 99.0341 377.136 98.6818 376.83C98.3333 376.519 97.8636 376.364 97.2727 376.364C96.75 376.364 96.2917 376.5 95.8977 376.773C95.5076 377.042 95.2027 377.422 94.983 377.915C94.767 378.403 94.6591 378.977 94.6591 379.636C94.6591 380.311 94.7652 380.898 94.9773 381.398C95.1932 381.898 95.4962 382.286 95.8864 382.562C96.2803 382.839 96.7424 382.977 97.2727 382.977C97.6212 382.977 97.9375 382.917 98.2216 382.795C98.5057 382.674 98.7462 382.5 98.9432 382.273C99.1402 382.045 99.2803 381.773 99.3636 381.455H100.705C100.629 381.97 100.441 382.434 100.142 382.847C99.8466 383.256 99.4545 383.581 98.9659 383.824C98.4811 384.062 97.9167 384.182 97.2727 384.182ZM102.665 384V375.273H103.96V376.591H104.051C104.21 376.159 104.498 375.809 104.915 375.54C105.331 375.271 105.801 375.136 106.324 375.136C106.422 375.136 106.545 375.138 106.693 375.142C106.841 375.146 106.953 375.152 107.028 375.159V376.523C106.983 376.511 106.879 376.494 106.716 376.472C106.557 376.445 106.388 376.432 106.21 376.432C105.786 376.432 105.407 376.521 105.074 376.699C104.744 376.873 104.483 377.116 104.29 377.426C104.1 377.733 104.006 378.083 104.006 378.477V384H102.665ZM108.618 384V375.273H109.959V384H108.618ZM109.3 373.818C109.038 373.818 108.813 373.729 108.624 373.551C108.438 373.373 108.345 373.159 108.345 372.909C108.345 372.659 108.438 372.445 108.624 372.267C108.813 372.089 109.038 372 109.3 372C109.561 372 109.785 372.089 109.97 372.267C110.16 372.445 110.254 372.659 110.254 372.909C110.254 373.159 110.16 373.373 109.97 373.551C109.785 373.729 109.561 373.818 109.3 373.818ZM112.415 387.273V375.273H113.71V376.659H113.869C113.968 376.508 114.104 376.314 114.278 376.08C114.456 375.841 114.71 375.629 115.04 375.443C115.373 375.254 115.824 375.159 116.392 375.159C117.127 375.159 117.775 375.343 118.335 375.71C118.896 376.078 119.333 376.598 119.648 377.273C119.962 377.947 120.119 378.742 120.119 379.659C120.119 380.583 119.962 381.384 119.648 382.062C119.333 382.737 118.898 383.259 118.341 383.631C117.784 383.998 117.142 384.182 116.415 384.182C115.854 384.182 115.405 384.089 115.068 383.903C114.731 383.714 114.472 383.5 114.29 383.261C114.108 383.019 113.968 382.818 113.869 382.659H113.756V387.273H112.415ZM113.733 379.636C113.733 380.295 113.83 380.877 114.023 381.381C114.216 381.881 114.498 382.273 114.869 382.557C115.241 382.837 115.695 382.977 116.233 382.977C116.794 382.977 117.261 382.83 117.636 382.534C118.015 382.235 118.299 381.833 118.489 381.33C118.682 380.822 118.778 380.258 118.778 379.636C118.778 379.023 118.684 378.47 118.494 377.977C118.309 377.481 118.027 377.089 117.648 376.801C117.273 376.509 116.801 376.364 116.233 376.364C115.688 376.364 115.229 376.502 114.858 376.778C114.487 377.051 114.206 377.434 114.017 377.926C113.828 378.415 113.733 378.985 113.733 379.636ZM125.96 375.273V376.409H121.438V375.273H125.96ZM122.756 373.182H124.097V381.5C124.097 381.879 124.152 382.163 124.261 382.352C124.375 382.538 124.519 382.663 124.693 382.727C124.871 382.788 125.059 382.818 125.256 382.818C125.403 382.818 125.525 382.811 125.619 382.795C125.714 382.777 125.79 382.761 125.847 382.75L126.119 383.955C126.028 383.989 125.902 384.023 125.739 384.057C125.576 384.095 125.369 384.114 125.119 384.114C124.741 384.114 124.369 384.032 124.006 383.869C123.646 383.706 123.347 383.458 123.108 383.125C122.873 382.792 122.756 382.371 122.756 381.864V373.182ZM130.545 384.205C129.992 384.205 129.491 384.1 129.04 383.892C128.589 383.68 128.231 383.375 127.966 382.977C127.701 382.576 127.568 382.091 127.568 381.523C127.568 381.023 127.667 380.617 127.864 380.307C128.061 379.992 128.324 379.746 128.653 379.568C128.983 379.39 129.347 379.258 129.744 379.17C130.146 379.08 130.549 379.008 130.955 378.955C131.485 378.886 131.915 378.835 132.244 378.801C132.578 378.763 132.82 378.701 132.972 378.614C133.127 378.527 133.205 378.375 133.205 378.159V378.114C133.205 377.553 133.051 377.117 132.744 376.807C132.441 376.496 131.981 376.341 131.364 376.341C130.723 376.341 130.222 376.481 129.858 376.761C129.494 377.042 129.239 377.341 129.091 377.659L127.818 377.205C128.045 376.674 128.348 376.261 128.727 375.966C129.11 375.667 129.527 375.458 129.977 375.341C130.432 375.22 130.879 375.159 131.318 375.159C131.598 375.159 131.92 375.193 132.284 375.261C132.652 375.326 133.006 375.46 133.347 375.665C133.691 375.869 133.977 376.178 134.205 376.591C134.432 377.004 134.545 377.557 134.545 378.25V384H133.205V382.818H133.136C133.045 383.008 132.894 383.21 132.682 383.426C132.47 383.642 132.188 383.826 131.835 383.977C131.483 384.129 131.053 384.205 130.545 384.205ZM130.75 383C131.28 383 131.727 382.896 132.091 382.688C132.458 382.479 132.735 382.21 132.92 381.881C133.11 381.551 133.205 381.205 133.205 380.841V379.614C133.148 379.682 133.023 379.744 132.83 379.801C132.64 379.854 132.42 379.902 132.17 379.943C131.924 379.981 131.684 380.015 131.449 380.045C131.218 380.072 131.03 380.095 130.886 380.114C130.538 380.159 130.212 380.233 129.909 380.335C129.61 380.434 129.367 380.583 129.182 380.784C129 380.981 128.909 381.25 128.909 381.591C128.909 382.057 129.081 382.409 129.426 382.648C129.775 382.883 130.216 383 130.75 383ZM136.993 384V375.273H138.288V376.591H138.379C138.538 376.159 138.826 375.809 139.243 375.54C139.66 375.271 140.129 375.136 140.652 375.136C140.75 375.136 140.874 375.138 141.021 375.142C141.169 375.146 141.281 375.152 141.357 375.159V376.523C141.311 376.511 141.207 376.494 141.044 376.472C140.885 376.445 140.716 376.432 140.538 376.432C140.114 376.432 139.735 376.521 139.402 376.699C139.072 376.873 138.811 377.116 138.618 377.426C138.429 377.733 138.334 378.083 138.334 378.477V384H136.993ZM150.991 384.182C150.204 384.182 149.512 383.994 148.918 383.619C148.327 383.244 147.865 382.72 147.531 382.045C147.202 381.371 147.037 380.583 147.037 379.682C147.037 378.773 147.202 377.979 147.531 377.301C147.865 376.623 148.327 376.097 148.918 375.722C149.512 375.347 150.204 375.159 150.991 375.159C151.779 375.159 152.469 375.347 153.06 375.722C153.654 376.097 154.116 376.623 154.446 377.301C154.779 377.979 154.946 378.773 154.946 379.682C154.946 380.583 154.779 381.371 154.446 382.045C154.116 382.72 153.654 383.244 153.06 383.619C152.469 383.994 151.779 384.182 150.991 384.182ZM150.991 382.977C151.59 382.977 152.082 382.824 152.469 382.517C152.855 382.21 153.141 381.807 153.327 381.307C153.512 380.807 153.605 380.265 153.605 379.682C153.605 379.098 153.512 378.555 153.327 378.051C153.141 377.547 152.855 377.14 152.469 376.83C152.082 376.519 151.59 376.364 150.991 376.364C150.393 376.364 149.901 376.519 149.514 376.83C149.128 377.14 148.842 377.547 148.656 378.051C148.471 378.555 148.378 379.098 148.378 379.682C148.378 380.265 148.471 380.807 148.656 381.307C148.842 381.807 149.128 382.21 149.514 382.517C149.901 382.824 150.393 382.977 150.991 382.977ZM164.788 384.182C164.061 384.182 163.419 383.998 162.862 383.631C162.305 383.259 161.87 382.737 161.555 382.062C161.241 381.384 161.084 380.583 161.084 379.659C161.084 378.742 161.241 377.947 161.555 377.273C161.87 376.598 162.307 376.078 162.868 375.71C163.429 375.343 164.076 375.159 164.811 375.159C165.379 375.159 165.828 375.254 166.158 375.443C166.491 375.629 166.745 375.841 166.919 376.08C167.097 376.314 167.235 376.508 167.334 376.659H167.447V372.364H168.788V384H167.493V382.659H167.334C167.235 382.818 167.095 383.019 166.913 383.261C166.732 383.5 166.472 383.714 166.135 383.903C165.798 384.089 165.349 384.182 164.788 384.182ZM164.97 382.977C165.508 382.977 165.963 382.837 166.334 382.557C166.705 382.273 166.987 381.881 167.18 381.381C167.374 380.877 167.47 380.295 167.47 379.636C167.47 378.985 167.375 378.415 167.186 377.926C166.997 377.434 166.716 377.051 166.345 376.778C165.974 376.502 165.516 376.364 164.97 376.364C164.402 376.364 163.929 376.509 163.55 376.801C163.175 377.089 162.893 377.481 162.703 377.977C162.518 378.47 162.425 379.023 162.425 379.636C162.425 380.258 162.519 380.822 162.709 381.33C162.902 381.833 163.186 382.235 163.561 382.534C163.94 382.83 164.41 382.977 164.97 382.977ZM175.089 384.182C174.249 384.182 173.523 383.996 172.913 383.625C172.307 383.25 171.839 382.727 171.51 382.057C171.184 381.383 171.021 380.598 171.021 379.705C171.021 378.811 171.184 378.023 171.51 377.341C171.839 376.655 172.298 376.121 172.885 375.739C173.476 375.352 174.165 375.159 174.953 375.159C175.408 375.159 175.857 375.235 176.3 375.386C176.743 375.538 177.146 375.784 177.51 376.125C177.874 376.462 178.163 376.909 178.379 377.466C178.595 378.023 178.703 378.708 178.703 379.523V380.091H171.976V378.932H177.339C177.339 378.439 177.241 378 177.044 377.614C176.851 377.227 176.574 376.922 176.214 376.699C175.858 376.475 175.438 376.364 174.953 376.364C174.419 376.364 173.957 376.496 173.567 376.761C173.18 377.023 172.883 377.364 172.675 377.784C172.466 378.205 172.362 378.655 172.362 379.136V379.909C172.362 380.568 172.476 381.127 172.703 381.585C172.934 382.04 173.254 382.386 173.663 382.625C174.072 382.86 174.548 382.977 175.089 382.977C175.442 382.977 175.76 382.928 176.044 382.83C176.332 382.727 176.58 382.576 176.788 382.375C176.997 382.17 177.158 381.917 177.271 381.614L178.567 381.977C178.43 382.417 178.201 382.803 177.879 383.136C177.557 383.466 177.16 383.723 176.686 383.909C176.213 384.091 175.68 384.182 175.089 384.182ZM186.925 377.227L185.72 377.568C185.644 377.367 185.533 377.172 185.385 376.983C185.241 376.79 185.044 376.631 184.794 376.506C184.544 376.381 184.224 376.318 183.834 376.318C183.3 376.318 182.855 376.441 182.499 376.688C182.146 376.93 181.97 377.239 181.97 377.614C181.97 377.947 182.091 378.21 182.334 378.403C182.576 378.597 182.955 378.758 183.47 378.886L184.766 379.205C185.546 379.394 186.127 379.684 186.51 380.074C186.893 380.46 187.084 380.958 187.084 381.568C187.084 382.068 186.94 382.515 186.652 382.909C186.368 383.303 185.97 383.614 185.459 383.841C184.947 384.068 184.353 384.182 183.675 384.182C182.785 384.182 182.048 383.989 181.464 383.602C180.881 383.216 180.512 382.652 180.357 381.909L181.629 381.591C181.75 382.061 181.98 382.413 182.317 382.648C182.658 382.883 183.103 383 183.652 383C184.277 383 184.773 382.867 185.141 382.602C185.512 382.333 185.697 382.011 185.697 381.636C185.697 381.333 185.591 381.08 185.379 380.875C185.167 380.667 184.841 380.511 184.402 380.409L182.947 380.068C182.148 379.879 181.561 379.585 181.186 379.188C180.815 378.786 180.629 378.284 180.629 377.682C180.629 377.189 180.768 376.754 181.044 376.375C181.324 375.996 181.705 375.699 182.186 375.483C182.671 375.267 183.22 375.159 183.834 375.159C184.697 375.159 185.375 375.348 185.868 375.727C186.364 376.106 186.716 376.606 186.925 377.227ZM192.761 384.182C191.92 384.182 191.195 383.996 190.585 383.625C189.979 383.25 189.511 382.727 189.182 382.057C188.856 381.383 188.693 380.598 188.693 379.705C188.693 378.811 188.856 378.023 189.182 377.341C189.511 376.655 189.97 376.121 190.557 375.739C191.148 375.352 191.837 375.159 192.625 375.159C193.08 375.159 193.528 375.235 193.972 375.386C194.415 375.538 194.818 375.784 195.182 376.125C195.545 376.462 195.835 376.909 196.051 377.466C196.267 378.023 196.375 378.708 196.375 379.523V380.091H189.648V378.932H195.011C195.011 378.439 194.913 378 194.716 377.614C194.523 377.227 194.246 376.922 193.886 376.699C193.53 376.475 193.11 376.364 192.625 376.364C192.091 376.364 191.629 376.496 191.239 376.761C190.852 377.023 190.555 377.364 190.347 377.784C190.138 378.205 190.034 378.655 190.034 379.136V379.909C190.034 380.568 190.148 381.127 190.375 381.585C190.606 382.04 190.926 382.386 191.335 382.625C191.744 382.86 192.22 382.977 192.761 382.977C193.114 382.977 193.432 382.928 193.716 382.83C194.004 382.727 194.252 382.576 194.46 382.375C194.669 382.17 194.83 381.917 194.943 381.614L196.239 381.977C196.102 382.417 195.873 382.803 195.551 383.136C195.229 383.466 194.831 383.723 194.358 383.909C193.884 384.091 193.352 384.182 192.761 384.182ZM199.756 378.75V384H198.415V375.273H199.71V376.636H199.824C200.028 376.193 200.339 375.837 200.756 375.568C201.172 375.295 201.71 375.159 202.369 375.159C202.96 375.159 203.477 375.28 203.92 375.523C204.364 375.761 204.708 376.125 204.955 376.614C205.201 377.098 205.324 377.712 205.324 378.455V384H203.983V378.545C203.983 377.86 203.805 377.326 203.449 376.943C203.093 376.557 202.604 376.364 201.983 376.364C201.555 376.364 201.172 376.456 200.835 376.642C200.502 376.828 200.239 377.098 200.045 377.455C199.852 377.811 199.756 378.242 199.756 378.75ZM211.32 384.182C210.501 384.182 209.797 383.989 209.206 383.602C208.615 383.216 208.161 382.684 207.842 382.006C207.524 381.328 207.365 380.553 207.365 379.682C207.365 378.795 207.528 378.013 207.854 377.335C208.183 376.653 208.642 376.121 209.229 375.739C209.82 375.352 210.509 375.159 211.297 375.159C211.911 375.159 212.464 375.273 212.956 375.5C213.448 375.727 213.852 376.045 214.166 376.455C214.481 376.864 214.676 377.341 214.751 377.886H213.411C213.308 377.489 213.081 377.136 212.729 376.83C212.38 376.519 211.911 376.364 211.32 376.364C210.797 376.364 210.339 376.5 209.945 376.773C209.554 377.042 209.25 377.422 209.03 377.915C208.814 378.403 208.706 378.977 208.706 379.636C208.706 380.311 208.812 380.898 209.024 381.398C209.24 381.898 209.543 382.286 209.933 382.562C210.327 382.839 210.789 382.977 211.32 382.977C211.668 382.977 211.984 382.917 212.268 382.795C212.553 382.674 212.793 382.5 212.99 382.273C213.187 382.045 213.327 381.773 213.411 381.455H214.751C214.676 381.97 214.488 382.434 214.189 382.847C213.893 383.256 213.501 383.581 213.013 383.824C212.528 384.062 211.964 384.182 211.32 384.182ZM216.712 384V375.273H218.007V376.591H218.098C218.257 376.159 218.545 375.809 218.962 375.54C219.378 375.271 219.848 375.136 220.371 375.136C220.469 375.136 220.592 375.138 220.74 375.142C220.888 375.146 221 375.152 221.075 375.159V376.523C221.03 376.511 220.926 376.494 220.763 376.472C220.604 376.445 220.435 376.432 220.257 376.432C219.833 376.432 219.454 376.521 219.121 376.699C218.791 376.873 218.53 377.116 218.337 377.426C218.147 377.733 218.053 378.083 218.053 378.477V384H216.712ZM222.665 384V375.273H224.006V384H222.665ZM223.347 373.818C223.085 373.818 222.86 373.729 222.67 373.551C222.485 373.373 222.392 373.159 222.392 372.909C222.392 372.659 222.485 372.445 222.67 372.267C222.86 372.089 223.085 372 223.347 372C223.608 372 223.831 372.089 224.017 372.267C224.206 372.445 224.301 372.659 224.301 372.909C224.301 373.159 224.206 373.373 224.017 373.551C223.831 373.729 223.608 373.818 223.347 373.818ZM226.462 387.273V375.273H227.757V376.659H227.916C228.015 376.508 228.151 376.314 228.325 376.08C228.503 375.841 228.757 375.629 229.087 375.443C229.42 375.254 229.871 375.159 230.439 375.159C231.174 375.159 231.821 375.343 232.382 375.71C232.943 376.078 233.38 376.598 233.695 377.273C234.009 377.947 234.166 378.742 234.166 379.659C234.166 380.583 234.009 381.384 233.695 382.062C233.38 382.737 232.945 383.259 232.388 383.631C231.831 383.998 231.189 384.182 230.462 384.182C229.901 384.182 229.452 384.089 229.115 383.903C228.778 383.714 228.518 383.5 228.337 383.261C228.155 383.019 228.015 382.818 227.916 382.659H227.803V387.273H226.462ZM227.78 379.636C227.78 380.295 227.876 380.877 228.07 381.381C228.263 381.881 228.545 382.273 228.916 382.557C229.287 382.837 229.742 382.977 230.28 382.977C230.84 382.977 231.308 382.83 231.683 382.534C232.062 382.235 232.346 381.833 232.536 381.33C232.729 380.822 232.825 380.258 232.825 379.636C232.825 379.023 232.731 378.47 232.541 377.977C232.356 377.481 232.073 377.089 231.695 376.801C231.32 376.509 230.848 376.364 230.28 376.364C229.734 376.364 229.276 376.502 228.905 376.778C228.534 377.051 228.253 377.434 228.064 377.926C227.875 378.415 227.78 378.985 227.78 379.636ZM240.007 375.273V376.409H235.484V375.273H240.007ZM236.803 373.182H238.143V381.5C238.143 381.879 238.198 382.163 238.308 382.352C238.422 382.538 238.566 382.663 238.74 382.727C238.918 382.788 239.106 382.818 239.303 382.818C239.45 382.818 239.571 382.811 239.666 382.795C239.761 382.777 239.837 382.761 239.893 382.75L240.166 383.955C240.075 383.989 239.948 384.023 239.786 384.057C239.623 384.095 239.416 384.114 239.166 384.114C238.787 384.114 238.416 384.032 238.053 383.869C237.693 383.706 237.393 383.458 237.155 383.125C236.92 382.792 236.803 382.371 236.803 381.864V373.182ZM244.592 384.205C244.039 384.205 243.537 384.1 243.087 383.892C242.636 383.68 242.278 383.375 242.013 382.977C241.748 382.576 241.615 382.091 241.615 381.523C241.615 381.023 241.714 380.617 241.911 380.307C242.107 379.992 242.371 379.746 242.7 379.568C243.03 379.39 243.393 379.258 243.791 379.17C244.193 379.08 244.596 379.008 245.001 378.955C245.532 378.886 245.962 378.835 246.291 378.801C246.625 378.763 246.867 378.701 247.018 378.614C247.174 378.527 247.251 378.375 247.251 378.159V378.114C247.251 377.553 247.098 377.117 246.791 376.807C246.488 376.496 246.028 376.341 245.411 376.341C244.77 376.341 244.268 376.481 243.905 376.761C243.541 377.042 243.286 377.341 243.138 377.659L241.865 377.205C242.092 376.674 242.395 376.261 242.774 375.966C243.157 375.667 243.573 375.458 244.024 375.341C244.479 375.22 244.926 375.159 245.365 375.159C245.645 375.159 245.967 375.193 246.331 375.261C246.698 375.326 247.053 375.46 247.393 375.665C247.738 375.869 248.024 376.178 248.251 376.591C248.479 377.004 248.592 377.557 248.592 378.25V384H247.251V382.818H247.183C247.092 383.008 246.941 383.21 246.729 383.426C246.517 383.642 246.234 383.826 245.882 383.977C245.53 384.129 245.1 384.205 244.592 384.205ZM244.797 383C245.327 383 245.774 382.896 246.138 382.688C246.505 382.479 246.782 382.21 246.967 381.881C247.157 381.551 247.251 381.205 247.251 380.841V379.614C247.195 379.682 247.07 379.744 246.876 379.801C246.687 379.854 246.467 379.902 246.217 379.943C245.971 379.981 245.731 380.015 245.496 380.045C245.265 380.072 245.077 380.095 244.933 380.114C244.585 380.159 244.259 380.233 243.956 380.335C243.657 380.434 243.414 380.583 243.229 380.784C243.047 380.981 242.956 381.25 242.956 381.591C242.956 382.057 243.128 382.409 243.473 382.648C243.821 382.883 244.263 383 244.797 383ZM251.04 384V375.273H252.335V376.591H252.426C252.585 376.159 252.873 375.809 253.29 375.54C253.706 375.271 254.176 375.136 254.699 375.136C254.797 375.136 254.92 375.138 255.068 375.142C255.216 375.146 255.328 375.152 255.403 375.159V376.523C255.358 376.511 255.254 376.494 255.091 376.472C254.932 376.445 254.763 376.432 254.585 376.432C254.161 376.432 253.782 376.521 253.449 376.699C253.119 376.873 252.858 377.116 252.665 377.426C252.475 377.733 252.381 378.083 252.381 378.477V384H251.04ZM256.97 384.091C256.69 384.091 256.449 383.991 256.249 383.79C256.048 383.589 255.947 383.348 255.947 383.068C255.947 382.788 256.048 382.547 256.249 382.347C256.449 382.146 256.69 382.045 256.97 382.045C257.25 382.045 257.491 382.146 257.692 382.347C257.893 382.547 257.993 382.788 257.993 383.068C257.993 383.254 257.946 383.424 257.851 383.58C257.76 383.735 257.637 383.86 257.482 383.955C257.33 384.045 257.16 384.091 256.97 384.091Z" fill="#495057"/>
</svg>
